<?xml version="1.0" standalone="no"?>
<!DOCTYPE svg PUBLIC "-//W3C//DTD SVG 20010904//EN"
 "http://www.w3.org/TR/2001/REC-SVG-20010904/DTD/svg10.dtd">
<svg version="1.0" xmlns="http://www.w3.org/2000/svg"
 width="1802.000000pt" height="1240.000000pt" viewBox="0 0 1802.000000 1240.000000"
 preserveAspectRatio="xMidYMid meet">

<g transform="translate(0.000000,1240.000000) scale(0.100000,-0.100000)"
fill="#000000" stroke="none">
<path d="M8855 7888 c-1600 -5 -2920 -11 -2932 -13 -12 -3 -29 -13 -38 -23 -9
-9 -37 -38 -61 -63 l-46 -47 21 -163 c11 -90 50 -400 86 -689 35 -289 67 -539
70 -556 l5 -31 108 -7 c59 -4 123 -11 142 -16 l35 -8 -38 -1 c-21 -1 -539 26
-1150 59 -612 33 -1206 64 -1322 70 -115 6 -303 15 -417 21 -226 12 -254 8
-308 -38 -45 -38 -78 -101 -110 -210 -15 -54 -49 -170 -75 -258 -46 -160 -84
-289 -150 -515 -19 -66 -51 -174 -70 -240 -19 -66 -51 -174 -70 -240 -19 -66
-51 -174 -70 -240 -19 -66 -51 -174 -70 -240 -19 -66 -51 -174 -70 -240 -19
-66 -51 -174 -70 -240 -19 -66 -51 -174 -70 -240 -19 -66 -51 -174 -70 -240
-19 -66 -51 -174 -70 -240 -19 -66 -52 -175 -72 -243 -47 -155 -50 -240 -13
-307 31 -55 22 -52 403 -124 160 -30 447 -85 637 -121 190 -36 379 -72 420
-80 111 -20 1330 -252 1820 -345 234 -45 495 -94 580 -110 418 -78 789 -151
822 -160 21 -6 40 -15 43 -20 17 -28 140 12 191 62 44 42 81 114 104 200 12
47 23 72 31 70 21 -5 219 -123 219 -130 -1 -4 -20 -20 -43 -35 -43 -29 -56
-38 -297 -217 -78 -58 -174 -128 -213 -157 -40 -29 -166 -122 -282 -208 -115
-86 -221 -164 -234 -173 -86 -61 -124 -117 -91 -137 16 -10 12 -45 -6 -45 -11
0 -14 -5 -9 -17 3 -10 11 -39 16 -64 17 -77 -62 -49 754 -277 543 -153 522
-148 598 -129 89 22 129 41 189 90 111 90 415 342 463 383 28 23 113 94 190
157 l140 115 55 -31 c30 -17 143 -83 250 -147 107 -64 238 -141 290 -171 l94
-54 101 0 c77 0 158 12 350 48 138 26 336 63 440 82 236 43 984 180 1085 199
41 8 143 26 225 41 144 26 492 89 660 120 44 9 215 40 380 70 165 30 388 70
495 90 107 20 247 45 310 56 63 11 185 33 270 49 198 38 683 126 1010 185 140
25 325 59 410 75 85 16 247 45 360 65 199 36 781 144 887 166 29 6 60 17 68
25 19 19 20 103 1 147 -16 39 -67 85 -104 93 -15 3 -133 37 -262 76 -129 38
-287 85 -350 103 -63 18 -128 38 -145 44 -50 18 -242 71 -256 70 -8 0 15 -9
50 -20 46 -15 60 -23 50 -30 -9 -5 -1 -6 22 -3 22 4 39 2 43 -5 4 -6 25 -11
47 -11 21 0 39 -4 39 -10 0 -5 18 -13 40 -16 22 -4 43 -11 47 -17 3 -5 2 -7
-4 -4 -5 3 -26 2 -46 -3 -20 -4 -37 -4 -37 0 0 5 4 10 10 12 5 2 -30 3 -78 2
-153 -1 -172 -3 -172 -19 0 -11 -11 -15 -40 -15 -29 0 -40 4 -40 15 0 11 -11
15 -40 15 -22 0 -40 4 -40 9 0 5 -36 12 -80 16 -45 4 -80 12 -80 18 0 7 -38 8
-117 4 -70 -4 -124 -3 -133 3 -10 6 -11 10 -2 10 6 0 12 5 12 10 0 6 -13 4
-30 -5 -17 -9 -30 -11 -30 -5 0 5 5 10 10 10 6 0 10 3 10 8 0 9 -66 9 -76 -1
-4 -4 3 -6 16 -5 12 2 25 -2 27 -9 3 -7 -8 -11 -31 -10 -19 0 -33 3 -31 6 2 4
-8 7 -22 8 -19 1 -22 -1 -12 -8 8 -5 12 -9 9 -10 -3 0 -13 -2 -23 -4 -9 -2
-15 1 -11 6 3 5 -2 9 -11 9 -9 0 -14 -4 -11 -9 3 -5 0 -8 -7 -8 -24 3 -185
-14 -307 -33 -69 -10 -168 -24 -220 -31 -52 -6 -100 -16 -106 -20 -5 -5 -20
-6 -32 -2 -13 3 -22 1 -22 -5 0 -6 -12 -11 -27 -10 -16 0 -95 -9 -176 -21 -81
-12 -153 -21 -159 -19 -12 4 44 14 517 88 561 89 629 101 636 111 4 7 18 9 36
5 38 -9 62 14 38 37 -17 17 -13 16 -390 132 -342 105 -410 126 -845 261 -341
106 -346 107 -448 108 -87 1 -101 3 -96 16 3 8 11 41 17 73 10 52 9 60 -9 84
-32 43 -81 54 -180 42 -46 -6 -90 -9 -96 -7 -7 3 37 10 97 17 139 16 169 25
185 57 12 22 8 66 -33 357 -55 391 -131 931 -146 1037 -17 126 -178 1276 -226
1610 -24 173 -65 461 -90 640 -25 179 -59 422 -76 540 -16 118 -32 223 -35
233 -10 34 -65 47 -186 45 -62 -1 -1422 -5 -3023 -10z m828 -196 c3 -41 1 -50
-8 -42 -19 15 -25 60 -12 88 13 28 14 26 20 -46z m2225 -379 c56 -426 85 -651
142 -1078 34 -253 83 -631 110 -840 27 -209 77 -585 110 -835 34 -250 72 -543
85 -650 14 -107 27 -209 30 -227 l6 -31 -68 -11 c-38 -6 -167 -22 -288 -36
-121 -14 -274 -33 -340 -41 -66 -9 -154 -19 -195 -24 -41 -4 -154 -17 -250
-29 -96 -11 -197 -22 -225 -25 -27 -3 -113 -14 -190 -25 -156 -23 -215 -26
-215 -11 0 5 -10 15 -22 21 -23 12 -23 12 -4 -10 11 -11 17 -23 15 -25 -4 -4
-101 -16 -924 -116 -375 -45 -942 -113 -1040 -124 -22 -2 -150 -18 -285 -35
-135 -17 -306 -37 -380 -46 -74 -8 -249 -28 -389 -45 -140 -17 -263 -28 -273
-24 -10 3 -18 1 -18 -5 0 -6 -14 -11 -31 -11 -32 0 -32 0 -26 43 4 23 11 58
17 78 9 33 12 35 47 33 22 -2 27 0 13 3 -14 2 -29 8 -33 12 -9 9 21 171 34
186 5 5 9 19 9 32 0 13 5 23 10 23 6 0 10 18 10 39 0 22 29 160 66 308 36 147
81 333 100 413 19 80 38 148 42 152 4 4 129 17 277 28 275 22 299 27 332 69
16 20 16 76 2 104 -18 32 -50 56 -87 63 -28 5 -189 -3 -399 -22 -53 -5 -63 -3
-63 10 0 14 70 308 189 790 l47 189 32 2 c22 2 32 -2 32 -11 0 -14 -11 -18
-44 -14 -11 1 -15 -3 -12 -9 9 -15 38 -14 59 2 14 10 16 22 11 65 -4 29 -12
52 -18 52 -8 0 -10 -13 -8 -35 4 -30 1 -35 -17 -35 -16 0 -21 6 -21 28 0 16 3
32 6 35 4 4 8 21 10 40 1 18 10 53 18 77 9 25 16 55 16 68 0 12 5 22 11 22 7
0 9 -10 7 -25 -4 -18 -1 -25 10 -25 11 0 13 8 9 37 -4 20 -10 39 -15 42 -5 3
-11 36 -14 72 -5 65 -5 66 23 76 62 24 21 123 -50 123 -35 0 -55 -14 -48 -33
10 -27 -5 -27 -36 -1 -33 28 -45 26 -25 -5 9 -15 9 -24 2 -31 -8 -8 -20 0 -43
29 -17 22 -46 44 -64 50 -18 6 -156 17 -307 26 -151 8 -336 20 -410 25 -74 5
-144 10 -155 11 -13 1 -9 4 10 8 18 4 -41 10 -145 15 -96 5 -204 11 -240 15
l-65 6 -16 130 c-9 72 -40 318 -69 547 -30 230 -51 420 -48 423 6 6 561 16
3383 61 550 8 1200 19 1445 23 245 4 529 9 631 9 l185 2 22 -167z m-8740 -900
c-10 -2 -26 -2 -35 0 -10 3 -2 5 17 5 19 0 27 -2 18 -5z m159 -10 c-20 -2 -52
-2 -70 0 -17 2 0 4 38 4 39 0 53 -2 32 -4z m171 -10 c-16 -2 -40 -2 -55 0 -16
2 -3 4 27 4 30 0 43 -2 28 -4z m190 -10 c-15 -2 -42 -2 -60 0 -18 2 -6 4 27 4
33 0 48 -2 33 -4z m180 -10 c-16 -2 -40 -2 -55 0 -16 2 -3 4 27 4 30 0 43 -2
28 -4z m190 -10 c-16 -2 -40 -2 -55 0 -16 2 -3 4 27 4 30 0 43 -2 28 -4z m175
-10 c-18 -2 -48 -2 -65 0 -18 2 -4 4 32 4 36 0 50 -2 33 -4z m195 -10 c-21 -2
-55 -2 -75 0 -21 2 -4 4 37 4 41 0 58 -2 38 -4z m185 -10 c-18 -2 -48 -2 -65
0 -18 2 -4 4 32 4 36 0 50 -2 33 -4z m180 -10 c-18 -2 -48 -2 -65 0 -18 2 -4
4 32 4 36 0 50 -2 33 -4z m180 -10 c-18 -2 -48 -2 -65 0 -18 2 -4 4 32 4 36 0
50 -2 33 -4z m200 -10 c-18 -2 -48 -2 -65 0 -18 2 -4 4 32 4 36 0 50 -2 33 -4z
m165 -10 c-15 -2 -42 -2 -60 0 -18 2 -6 4 27 4 33 0 48 -2 33 -4z m195 -10
c-18 -2 -48 -2 -65 0 -18 2 -4 4 32 4 36 0 50 -2 33 -4z m190 -10 c-18 -2 -48
-2 -65 0 -18 2 -4 4 32 4 36 0 50 -2 33 -4z m160 -10 c-24 -2 -62 -2 -85 0
-24 2 -5 4 42 4 47 0 66 -2 43 -4z m144 -9 c-3 -3 -12 -4 -19 -1 -8 3 -5 6 6
6 11 1 17 -2 13 -5z m-2262 -94 c363 -22 725 -44 805 -50 80 -5 262 -17 405
-25 143 -9 584 -36 980 -60 396 -24 873 -54 1060 -65 446 -27 585 -37 590 -41
5 -6 -948 -3845 -957 -3855 -3 -2 -178 27 -389 66 -617 112 -569 102 -530 112
50 14 33 18 -23 6 -38 -8 -68 -7 -135 6 -167 32 -300 56 -666 121 -203 37
-415 75 -470 85 -55 11 -179 33 -275 50 -96 17 -321 58 -500 90 -179 32 -377
68 -440 79 -63 11 -263 47 -445 80 -181 33 -420 76 -529 96 -109 20 -202 38
-206 40 -4 3 7 55 25 117 18 62 53 183 78 268 25 85 80 274 122 420 42 146
116 402 165 570 49 168 114 393 145 500 31 107 72 249 92 315 34 118 101 347
248 857 41 141 75 260 75 263 0 3 26 3 58 0 31 -3 354 -23 717 -45z m1375 20
c0 -5 -4 -10 -10 -10 -5 0 -10 5 -10 10 0 6 5 10 10 10 6 0 10 -4 10 -10z
m2413 -7 c-13 -2 -35 -2 -50 0 -16 2 -5 4 22 4 28 0 40 -2 28 -4z m134 -23
c17 -10 37 -28 43 -39 16 -30 3 -26 -26 9 -14 16 -40 34 -57 39 -21 6 -25 10
-12 10 11 1 34 -8 52 -19z m259 -17 c20 -27 17 -61 -8 -74 -18 -10 -24 -8 -40
11 -10 12 -18 35 -18 51 0 25 4 29 26 29 15 0 33 -8 40 -17z m-126 -136 c0
-13 -18 -95 -40 -183 -21 -87 -64 -260 -94 -384 -95 -390 -222 -907 -455
-1850 -44 -179 -150 -611 -235 -960 -146 -597 -178 -711 -193 -696 -8 7 -33
-13 -33 -26 0 -6 8 -4 17 3 15 12 16 12 8 -1 -36 -64 -90 -110 -146 -124 -19
-4 -29 -1 -33 9 -4 10 9 22 42 39 26 13 64 42 84 63 40 42 27 -7 394 1483 147
599 299 1213 468 1900 90 366 167 681 171 700 9 44 13 50 31 50 8 0 14 -10 14
-23z m-145 -353 c-97 -391 -237 -961 -310 -1259 -527 -2152 -602 -2453 -605
-2403 0 11 102 428 449 1828 71 289 213 863 315 1275 212 855 218 877 223 871
2 -2 -30 -143 -72 -312z m92 -126 c-3 -8 -6 -5 -6 6 -1 11 2 17 5 13 3 -3 4
-12 1 -19z m-10 -40 c-3 -8 -6 -5 -6 6 -1 11 2 17 5 13 3 -3 4 -12 1 -19z
m-72 -298 c-4 -17 -9 -30 -11 -27 -2 2 -1 18 2 36 4 17 9 30 11 27 3 -2 2 -19
-2 -36z m135 -679 c18 -2 11 -30 -7 -30 -27 -1 -132 -18 -181 -29 -46 -11 -54
-6 -45 26 4 17 13 22 42 23 49 1 113 7 116 11 3 3 51 2 75 -1z m4510 -1152
c-25 -4 -61 -7 -80 -7 l-35 1 40 7 c22 4 58 7 80 7 l40 0 -45 -8z m550 -233
l34 -13 -78 -12 c-121 -20 -206 -16 -206 9 0 11 83 24 102 17 7 -3 2 -6 -11
-6 -15 -1 -21 -5 -15 -10 5 -5 29 -5 54 -1 43 6 44 7 20 18 -23 10 -21 11 20
11 25 0 61 -6 80 -13z m196 -62 c86 -27 95 -35 47 -40 -16 -2 -58 -8 -95 -14
-63 -11 -74 -10 -158 16 -49 15 -90 31 -90 34 0 7 118 26 179 29 18 0 71 -11
117 -25z m-308 -40 c50 -15 92 -30 92 -34 0 -6 -175 -30 -215 -30 -47 1 -57
44 -12 53 l22 4 -22 8 c-13 4 -21 10 -19 14 10 16 67 10 154 -15z m568 -46
c40 -13 74 -26 74 -29 0 -8 -197 -39 -249 -39 -41 0 -207 47 -198 57 9 9 170
31 235 32 40 1 91 -7 138 -21z m-411 -55 c47 -15 85 -30 85 -33 0 -8 -148 -30
-198 -30 -38 0 -192 48 -192 59 0 8 119 26 187 29 18 1 71 -10 118 -25z m555
-13 c0 -5 -6 -10 -12 -11 -7 0 -21 -2 -30 -4 -10 -2 -44 -6 -75 -10 -32 -4
-67 -8 -78 -10 -11 -2 -30 -4 -43 -4 -14 -1 -21 -5 -16 -12 4 -8 24 -9 58 -4
28 4 76 9 106 11 30 3 79 12 108 20 48 13 58 13 110 -2 31 -10 61 -21 65 -24
8 -7 -276 -50 -328 -50 -28 0 -207 56 -195 61 9 3 285 47 308 48 12 0 22 -3
22 -9z m-842 -39 c29 -10 55 -20 58 -23 4 -5 -105 -28 -128 -28 -4 0 -1 16 5
35 6 19 11 35 11 35 1 -1 25 -9 54 -19z m469 -48 c51 -16 93 -31 93 -34 0 -8
-175 -33 -220 -31 -30 1 -204 58 -190 63 16 5 161 26 190 28 19 0 77 -11 127
-26z m751 -30 c45 -14 81 -27 79 -29 -5 -6 -381 -64 -454 -71 -52 -5 -77 -1
-148 23 -47 15 -85 32 -85 36 0 4 3 8 6 8 4 0 95 13 203 30 260 39 252 38 286
33 17 -3 67 -16 113 -30z m-1058 -21 c46 -16 79 -31 74 -35 -6 -3 -58 -11
-116 -18 -85 -10 -114 -10 -152 1 -52 14 -60 22 -51 49 12 40 131 41 245 3z
m1270 -47 c-35 -19 -7 -29 48 -16 34 7 56 5 109 -11 82 -25 73 -31 -62 -48
l-100 -12 -98 32 c-54 17 -97 34 -94 36 7 7 148 31 187 32 l35 1 -25 -14z
m-901 -26 c59 -20 89 -34 80 -39 -8 -4 -58 -13 -111 -20 -96 -13 -99 -13 -185
14 -48 15 -92 31 -96 35 -5 5 24 14 65 21 40 7 78 14 83 15 30 10 80 2 164
-26z m601 -19 c-8 -5 -30 -10 -48 -10 -20 0 -31 -4 -27 -10 3 -5 19 -10 34
-10 45 0 91 12 85 21 -8 14 4 11 91 -18 91 -30 90 -31 -59 -53 l-88 -13 -104
33 c-57 19 -101 36 -99 39 7 7 144 28 190 30 29 0 36 -2 25 -9z m-920 -32
c109 -36 107 -39 -51 -58 l-105 -13 -80 28 c-118 42 -119 41 21 64 87 15 118
12 215 -21z m638 -13 c-4 -5 -62 -12 -116 -14 -15 -1 -21 -5 -16 -12 8 -14
147 -5 152 10 2 5 37 -3 79 -17 87 -30 86 -31 -67 -52 l-96 -13 -98 33 c-53
17 -94 35 -91 39 10 10 134 29 199 30 33 0 57 -1 54 -4z m-890 -70 c4 -4 -13
-8 -70 -20 -23 -4 -28 5 -17 33 8 22 10 22 46 7 20 -9 39 -18 41 -20z m557 20
c-5 -2 -36 -6 -67 -10 -32 -4 -58 -10 -58 -15 0 -15 51 -17 113 -4 57 12 67
12 127 -8 l65 -22 -55 -13 c-30 -7 -87 -15 -126 -19 -63 -6 -80 -3 -159 25
-48 17 -90 31 -93 31 -3 0 -2 3 2 8 11 11 133 29 201 30 33 0 56 -1 50 -3z
m1005 -45 c0 -5 -8 -10 -17 -10 -15 0 -16 2 -3 10 19 12 20 12 20 0z m-1259
-31 c50 -18 86 -35 82 -39 -11 -9 -157 -30 -209 -30 -37 0 -220 57 -211 66 7
7 164 32 205 33 25 1 82 -12 133 -30z m1136 15 c-3 -3 -12 -4 -19 -1 -8 3 -5
6 6 6 11 1 17 -2 13 -5z m-5807 -14 c0 -5 -7 -10 -16 -10 -8 0 -12 5 -9 10 3
6 10 10 16 10 5 0 9 -4 9 -10z m5767 4 c-3 -3 -12 -4 -19 -1 -8 3 -5 6 6 6 11
1 17 -2 13 -5z m-5701 -17 c4 -4 0 -7 -9 -7 -9 0 -14 -6 -11 -13 3 -9 27 -13
77 -12 39 0 81 -4 92 -9 11 -5 32 -10 47 -11 15 -2 35 -6 45 -9 15 -6 15 -9 3
-16 -12 -7 -12 -12 3 -28 23 -26 22 -45 -3 -37 -12 4 -20 2 -20 -5 0 -6 5 -8
11 -5 6 4 9 0 7 -11 -2 -15 4 -19 37 -20 22 0 48 -4 57 -8 29 -13 63 -3 60 18
-3 16 1 18 35 12 21 -4 53 -16 70 -26 31 -18 96 -24 86 -7 -9 16 40 6 68 -14
16 -11 37 -20 46 -20 10 0 53 0 96 0 159 -1 159 -1 107 -46 -14 -12 -47 -41
-75 -64 -27 -23 -85 -68 -128 -100 l-77 -58 -35 15 c-19 8 -60 14 -92 14 -32
0 -89 9 -128 20 -38 11 -82 20 -97 20 -15 0 -30 5 -33 10 -3 6 -26 10 -51 10
-40 0 -44 -2 -44 -25 0 -22 -4 -25 -39 -25 -25 0 -41 -5 -45 -15 -3 -8 -16
-15 -30 -15 -13 0 -26 -7 -30 -15 -4 -10 -21 -15 -53 -16 l-48 -1 60 -19 c33
-11 80 -22 105 -24 36 -4 182 -35 328 -70 31 -8 27 -30 -10 -54 -66 -42 -89
-58 -116 -82 -59 -52 -86 -69 -111 -69 -30 0 -65 7 -446 94 -154 36 -363 83
-465 106 -232 52 -213 45 -198 70 7 11 16 20 21 20 8 0 200 141 205 151 1 3
30 0 64 -8 33 -8 68 -12 77 -10 9 3 3 5 -12 6 -16 0 -26 5 -22 10 6 11 -63 33
-79 25 -27 -13 191 165 252 206 21 14 53 37 73 53 20 15 48 27 64 27 15 0 33
6 39 14 17 22 158 32 177 13 8 -8 26 -13 40 -12 32 3 31 2 17 28 -22 41 -21
58 7 54 13 -1 27 -6 31 -10z m5627 6 c-7 -2 -19 -2 -25 0 -7 3 -2 5 12 5 14 0
19 -2 13 -5z m-1345 -53 c39 -13 72 -27 72 -30 0 -3 -41 -13 -91 -21 l-91 -15
6 35 c3 20 6 42 6 49 0 15 -1 15 98 -18z m600 -37 c-10 -2 -28 -2 -40 0 -13 2
-5 4 17 4 22 1 32 -1 23 -4z m-80 -10 c-10 -2 -26 -2 -35 0 -10 3 -2 5 17 5
19 0 27 -2 18 -5z m-75 -13 c-28 -12 -255 -42 -261 -35 -3 3 1 5 9 6 8 0 66 9
129 19 133 20 154 22 123 10z m-3553 -29 c0 -6 -4 -13 -10 -16 -5 -3 -10 1
-10 9 0 9 5 16 10 16 6 0 10 -4 10 -9z m40 -17 c0 -8 -4 -14 -10 -14 -5 0 -10
9 -10 21 0 11 5 17 10 14 6 -3 10 -13 10 -21z m3203 -1 c-7 -2 -19 -2 -25 0
-7 3 -2 5 12 5 14 0 19 -2 13 -5z m-3623 -12 c0 -5 -9 -7 -20 -4 -11 3 -20 7
-20 9 0 2 9 4 20 4 11 0 20 -4 20 -9z m3568 2 c-10 -2 -26 -2 -35 0 -10 3 -2
5 17 5 19 0 27 -2 18 -5z m-3495 -10 c-7 -2 -19 -2 -25 0 -7 3 -2 5 12 5 14 0
19 -2 13 -5z m3420 0 c-7 -2 -19 -2 -25 0 -7 3 -2 5 12 5 14 0 19 -2 13 -5z
m-3324 -12 c20 -13 -2 -22 -38 -15 -17 4 -28 10 -25 15 7 11 45 11 63 0z
m3251 2 c-36 -7 -55 -24 -38 -34 17 -9 89 3 88 16 -1 5 4 11 12 13 9 2 8 0 -2
-8 -11 -9 0 -10 50 -6 57 4 53 3 -35 -14 -123 -23 -135 -24 -135 -6 0 24 30
46 58 45 l27 -2 -25 -4z m312 -35 c27 -11 47 -23 44 -25 -2 -2 -21 3 -42 13
-22 9 -61 23 -89 30 l-50 14 44 -5 c24 -3 66 -15 93 -27z m-5572 -92 c91 -53
163 -100 161 -104 -3 -4 -21 -19 -41 -33 l-37 -27 -79 48 c-43 26 -112 66
-151 89 -40 23 -73 44 -73 47 0 3 5 25 11 49 9 37 14 43 28 36 9 -5 90 -52
181 -105z m8185 93 c-55 -10 -107 -17 -115 -16 -21 4 137 35 180 35 19 0 -10
-8 -65 -19z m-138 -25 c-3 -3 -12 -4 -19 -1 -8 3 -5 6 6 6 11 1 17 -2 13 -5z
m-2362 -75 c104 -38 219 -81 255 -95 36 -13 77 -24 92 -24 25 0 202 -60 195
-66 -2 -3 -380 -69 -462 -81 -16 -3 -65 -11 -109 -19 -110 -20 -135 -18 -218
15 -95 38 -92 38 -96 26 -2 -5 25 -20 60 -33 35 -13 67 -27 71 -31 4 -4 -43
-16 -105 -25 -62 -10 -148 -25 -191 -33 -43 -8 -80 -13 -82 -11 -2 2 3 31 11
63 8 33 29 123 46 200 17 77 33 142 34 144 6 7 209 39 259 40 38 1 91 -14 240
-70z m31 46 c38 -14 75 -28 83 -31 8 -2 12 -6 9 -9 -2 -2 -44 11 -93 30 -50
19 -85 34 -79 35 7 0 43 -11 80 -25z m2277 18 c-7 -2 -21 -2 -30 0 -10 3 -4 5
12 5 17 0 24 -2 18 -5z m317 -12 c26 -16 28 -19 14 -25 -11 -4 -21 -1 -26 7
-4 8 -17 12 -30 10 -13 -2 -32 3 -43 11 -19 15 -18 15 17 16 21 0 51 -8 68
-19z m-435 -1 c-3 -5 -16 -10 -28 -9 -20 1 -20 2 3 9 14 4 26 8 28 9 2 1 0 -3
-3 -9z m58 3 c-7 -2 -21 -2 -30 0 -10 3 -4 5 12 5 17 0 24 -2 18 -5z m257 -12
c0 -5 12 -12 28 -16 25 -7 25 -8 7 -15 -13 -5 -24 -3 -31 6 -6 8 -28 14 -48
14 -20 0 -36 5 -36 10 0 6 18 10 40 10 22 0 40 -4 40 -9z m-387 -8 c-7 -2 -19
-2 -25 0 -7 3 -2 5 12 5 14 0 19 -2 13 -5z m-56 -9 c-3 -3 -12 -4 -19 -1 -8 3
-5 6 6 6 11 1 17 -2 13 -5z m358 -14 l30 -20 -27 0 c-16 0 -28 5 -28 10 0 6
-18 10 -40 10 -22 0 -40 5 -40 10 0 18 74 11 105 -10z m-402 3 c-7 -2 -21 -2
-30 0 -10 3 -4 5 12 5 17 0 24 -2 18 -5z m297 -22 l35 -15 -30 -4 c-16 -2 -31
1 -33 7 -2 6 -21 11 -43 11 -36 0 -48 8 -33 23 9 8 61 -3 104 -22z m-417 2
c-7 -2 -19 -2 -25 0 -7 3 -2 5 12 5 14 0 19 -2 13 -5z m-1658 -29 c24 -11 25
-13 5 -8 -14 4 -38 13 -55 20 -24 11 -25 13 -5 8 14 -4 39 -13 55 -20z m1598
19 c-7 -2 -19 -2 -25 0 -7 3 -2 5 12 5 14 0 19 -2 13 -5z m-60 -10 c-7 -2 -21
-2 -30 0 -10 3 -4 5 12 5 17 0 24 -2 18 -5z m438 -3 c5 0 9 -4 9 -8 0 -5 -69
-21 -152 -35 -84 -15 -229 -40 -323 -57 -193 -34 -205 -35 -205 -17 0 9 83 27
278 60 152 27 295 52 317 57 22 4 46 6 53 4 8 -2 18 -4 23 -4z m-564 -16 c-3
-3 -12 -4 -19 -1 -8 3 -5 6 6 6 11 1 17 -2 13 -5z m-1307 -32 c13 -14 13 -15
0 -5 -8 6 -28 15 -45 22 l-30 11 30 -6 c17 -3 37 -13 45 -22z m120 -44 c10 -6
7 -7 -10 -2 -14 3 -32 11 -40 16 -10 6 -7 7 10 2 14 -3 32 -11 40 -16z m-4540
-109 c-54 -45 -90 -71 -90 -64 0 4 7 14 16 22 14 15 13 17 -13 28 -31 14 -33
11 37 35 30 11 73 17 80 12 3 -2 -11 -17 -30 -33z m-2122 -10 c-28 -50 -81
-88 -134 -96 -37 -5 -36 -4 24 27 36 18 76 49 94 71 40 50 45 49 16 -2z m1835
2 c8 -8 2 -10 -23 -7 -19 3 -43 5 -52 5 -10 1 -18 6 -18 12 0 14 77 6 93 -10z
m105 -17 c20 -4 30 -10 24 -16 -10 -10 -102 11 -102 23 0 5 10 6 23 3 12 -2
37 -7 55 -10z m-1230 -55 c76 -17 154 -36 176 -43 l38 -12 -143 -109 c-78 -61
-149 -114 -158 -119 -9 -5 -33 -5 -60 2 -25 6 -98 23 -161 38 -63 14 -121 30
-128 34 -10 5 31 41 126 113 78 59 144 112 147 117 9 14 11 14 163 -21z m418
-95 c93 -20 172 -39 176 -43 11 -10 -289 -241 -313 -241 -17 0 -208 44 -313
71 -38 10 -38 11 -20 28 31 30 286 221 294 221 4 0 84 -16 176 -36z m429 -99
c66 -15 126 -31 133 -34 12 -7 -253 -230 -290 -244 -10 -3 -30 -2 -45 3 -15 4
-91 23 -168 41 -77 18 -144 35 -148 39 -5 4 42 47 105 96 62 48 115 91 118 94
3 3 20 17 39 32 32 24 36 25 85 13 28 -7 105 -25 171 -40z m-1363 -92 c10 -9
18 -21 18 -26 0 -6 -8 -1 -17 10 -10 11 -24 18 -32 15 -8 -3 -11 0 -7 7 10 15
16 14 38 -6z m78 -23 c0 -5 -4 -10 -10 -10 -5 0 -10 5 -10 10 0 6 5 10 10 10
6 0 10 -4 10 -10z m24 -16 c3 -8 2 -12 -4 -9 -6 3 -10 10 -10 16 0 14 7 11 14
-7z m91 -24 c7 -12 -2 -12 -30 0 -19 8 -19 9 2 9 12 1 25 -3 28 -9z m30 0 c3
-5 1 -10 -4 -10 -6 0 -11 5 -11 10 0 6 2 10 4 10 3 0 8 -4 11 -10z m52 -16
c-3 -3 -12 -4 -19 -1 -8 3 -5 6 6 6 11 1 17 -2 13 -5z m63 -10 c0 -2 -12 -4
-26 -4 -14 0 -23 4 -20 9 6 8 46 4 46 -5z m290 12 c0 -2 -7 -6 -15 -10 -8 -3
-15 -1 -15 4 0 6 7 10 15 10 8 0 15 -2 15 -4z m35 -16 c-3 -5 -10 -10 -16 -10
-5 0 -9 5 -9 10 0 6 7 10 16 10 8 0 12 -4 9 -10z m-826 -76 c-12 -15 -11 -16
11 -9 14 4 31 10 39 13 10 4 13 1 8 -11 -7 -20 -3 -21 23 -7 14 8 21 6 28 -6
6 -11 11 -13 16 -5 4 6 16 11 26 11 10 0 20 5 22 11 4 13 98 -4 128 -23 16
-10 -42 -4 -89 9 -17 4 -22 3 -17 -5 4 -7 -7 -17 -30 -27 -43 -18 -47 -18 -39
-5 4 7 -2 9 -19 4 -16 -4 -26 -2 -26 5 0 7 -8 8 -22 3 -26 -9 -93 10 -81 22 5
5 -5 6 -22 2 l-30 -6 24 20 c13 11 32 20 43 20 18 0 19 -2 7 -16z m433 -49
c18 -2 33 -4 33 -5 0 -3 38 -11 62 -13 13 -1 23 -5 23 -9 0 -15 -19 -17 -50
-6 -25 8 -38 8 -51 -1 -10 -6 -28 -11 -39 -11 -11 0 -20 -7 -20 -15 0 -8 -9
-15 -20 -15 -22 0 -25 10 -10 28 7 9 7 9 -2 2 -7 -5 -18 -10 -26 -10 -7 0 -10
5 -7 10 9 14 -8 13 -23 -2 -6 -6 -15 -9 -18 -5 -10 10 23 37 46 37 12 0 19 -3
17 -7 -3 -5 17 -8 44 -8 27 -1 49 3 49 7 0 8 -29 13 -63 10 -10 -1 -20 5 -23
12 -3 8 -13 12 -22 9 -14 -4 -14 -3 -3 5 9 7 24 7 42 0 15 -5 42 -11 61 -13z
m-208 -15 c-15 -16 -25 -18 -49 -11 -17 5 -28 10 -25 10 3 1 23 8 45 15 47 17
56 13 29 -14z m806 20 c0 -5 -8 -10 -17 -10 -15 0 -16 2 -3 10 19 12 20 12 20
0z m35 -10 c3 -5 -1 -10 -10 -10 -9 0 -13 5 -10 10 3 6 8 10 10 10 2 0 7 -4
10 -10z m-775 -8 c0 -16 -25 -32 -49 -32 -24 0 -24 0 -5 19 19 20 54 28 54 13z
m-227 -19 c-7 -2 -19 -2 -25 0 -7 3 -2 5 12 5 14 0 19 -2 13 -5z m1146 -9 c2
-2 -10 -4 -27 -4 -18 0 -32 5 -32 10 0 9 47 4 59 -6z m734 -98 c252 -156 243
-157 -23 -3 -166 96 -182 107 -159 107 7 0 90 -47 182 -104z m-2028 84 c-3 -5
-11 -10 -16 -10 -6 0 -7 5 -4 10 3 6 11 10 16 10 6 0 7 -4 4 -10z m208 3 c-7
-2 -19 -2 -25 0 -7 3 -2 5 12 5 14 0 19 -2 13 -5z m380 -17 c-1 -13 2 -15 10
-7 6 6 25 11 42 10 27 0 28 -1 9 -9 -43 -17 -34 -29 10 -13 25 10 49 14 53 9
10 -10 -39 -46 -52 -38 -5 4 -25 8 -44 9 -19 1 -38 7 -42 14 -3 6 -12 8 -18 5
-6 -4 -20 -4 -31 -1 -20 6 -20 7 2 26 29 24 64 21 61 -5z m-533 -2 c0 -2 -9
-4 -21 -4 -11 0 -18 4 -14 10 5 8 35 3 35 -6z m289 0 c10 -9 -55 -3 -69 6 -10
6 -2 7 25 3 22 -3 42 -7 44 -9z m38 -10 c-3 -3 -12 -4 -19 -1 -8 3 -5 6 6 6
11 1 17 -2 13 -5z m798 -9 c22 -8 31 -14 20 -14 -11 0 -31 6 -45 14 -32 18
-25 18 25 0z m-730 -5 c18 -8 18 -9 -5 -9 -14 0 -32 4 -40 9 -12 8 -12 10 5 9
11 0 29 -4 40 -9z m289 -15 c-18 -28 -17 -27 -39 -19 -14 6 -12 10 12 25 38
26 47 24 27 -6z m332 -1 c68 -1 84 -8 84 -38 0 -16 -11 -32 -32 -47 -18 -13
-39 -30 -46 -39 -8 -8 -11 -10 -8 -4 4 8 -7 10 -37 7 -48 -6 -117 18 -117 39
0 23 28 55 60 68 16 7 30 18 30 24 0 7 3 8 8 1 4 -6 30 -11 58 -11z m-836 2
c0 -11 -19 -15 -25 -6 -3 5 1 10 9 10 9 0 16 -2 16 -4z m310 -6 l25 -8 -25 0
c-14 0 -34 3 -45 8 l-20 9 20 -1 c11 0 31 -4 45 -8z m-390 -30 c12 -8 12 -10
-5 -10 -11 0 -27 5 -35 10 -12 8 -12 10 5 10 11 0 27 -5 35 -10z m1050 -9 c0
-5 -9 -7 -20 -4 -11 3 -20 7 -20 9 0 2 9 4 20 4 11 0 20 -4 20 -9z m-980 -11
c0 -5 -4 -10 -10 -10 -5 0 -10 5 -10 10 0 6 5 10 10 10 6 0 10 -4 10 -10z
m230 0 c0 -5 -5 -10 -11 -10 -5 0 -7 5 -4 10 3 6 8 10 11 10 2 0 4 -4 4 -10z
m-180 -16 c0 -2 -7 -4 -15 -4 -8 0 -15 4 -15 10 0 5 7 7 15 4 8 -4 15 -8 15
-10z m910 8 c0 -4 -10 -13 -22 -21 -23 -14 -23 -14 -4 8 20 22 26 25 26 13z
m-795 -32 c25 0 42 -17 30 -28 -4 -4 -10 -1 -12 6 -3 6 -13 12 -23 12 -10 0
-26 3 -35 6 -13 5 -14 8 -3 15 7 5 14 4 16 -1 2 -6 14 -10 27 -10z m480 -20
c3 -5 0 -10 -7 -11 -7 0 -26 -3 -43 -5 l-30 -4 25 15 c30 17 47 19 55 5z
m-107 -21 c17 -1 21 -3 9 -6 -9 -2 -15 -8 -13 -12 3 -4 -13 -7 -34 -7 -35 -1
-38 1 -29 18 6 12 17 17 26 14 8 -3 27 -7 41 -7z m1732 -28 c54 -7 55 -7 22
-17 -33 -9 -41 -31 -9 -26 24 4 47 -15 47 -40 0 -17 -7 -19 -72 -16 l-73 3 2
34 c1 18 7 38 15 43 9 6 6 7 -9 3 -19 -5 -23 -2 -23 15 0 19 4 21 23 15 12 -4
47 -10 77 -14z m-2163 -7 c-3 -3 -12 -4 -19 -1 -8 3 -5 6 6 6 11 1 17 -2 13
-5z m540 0 c-3 -3 -12 -4 -19 -1 -8 3 -5 6 6 6 11 1 17 -2 13 -5z m-500 -10
c-3 -3 -12 -4 -19 -1 -8 3 -5 6 6 6 11 1 17 -2 13 -5z m-949 -60 c-10 -10 -28
6 -28 24 0 15 1 15 17 -1 9 -9 14 -19 11 -23z m813 -37 c-10 -9 -11 -8 -5 6 3
10 9 15 12 12 3 -3 0 -11 -7 -18z m662 6 c-7 -2 -19 -2 -25 0 -7 3 -2 5 12 5
14 0 19 -2 13 -5z m-853 -43 c13 -8 13 -10 -2 -10 -9 0 -20 5 -23 10 -8 13 5
13 25 0z m120 -20 c-8 -5 -24 -10 -35 -10 -17 0 -17 2 -5 10 8 5 24 10 35 10
17 0 17 -2 5 -10z m-285 -70 c-3 -5 -1 -10 6 -10 7 0 10 -3 6 -6 -9 -9 -28 6
-22 17 4 5 8 9 11 9 3 0 2 -4 -1 -10z m155 -40 c-8 -5 -22 -9 -30 -9 -10 0 -8
3 5 9 27 12 43 12 25 0z m82 -21 c29 -6 57 -15 63 -20 13 -12 2 -11 -80 11
-77 20 -66 26 17 9z m104 -30 c3 -6 16 -8 28 -6 11 3 30 2 40 -2 18 -7 18 -8
2 -14 -20 -8 -96 12 -96 25 0 12 18 10 26 -3z m224 -19 c8 -5 11 -10 5 -10 -5
0 -17 5 -25 10 -8 5 -10 10 -5 10 6 0 17 -5 25 -10z m-110 -10 c-8 -5 -22 -10
-30 -10 -13 0 -13 1 0 10 8 5 22 10 30 10 13 0 13 -1 0 -10z m45 -10 c4 -6 18
-10 33 -10 15 1 52 -6 82 -15 76 -21 178 -29 223 -17 29 8 37 8 37 -3 0 -17
-21 -24 -91 -32 -59 -6 -113 2 -105 15 3 5 -10 8 -27 8 -18 0 -57 8 -87 17
-30 9 -68 19 -84 22 -23 5 -27 8 -15 16 18 11 26 11 34 -1z m360 -15 c-32 -15
-142 -20 -172 -7 -15 6 34 11 182 19 14 1 11 -3 -10 -12z"/>
<path d="M10937 7349 c-48 -28 -36 -107 20 -126 16 -6 96 -8 183 -5 173 5 190
11 190 68 0 23 -7 38 -26 53 -25 19 -40 21 -188 21 -94 0 -169 -5 -179 -11z
m143 -56 c0 -11 3 -13 13 -5 7 6 18 7 26 2 8 -4 24 -4 37 2 28 13 67 2 44 -12
-20 -13 -127 -13 -135 0 -3 5 -12 7 -20 3 -9 -3 -15 1 -15 8 0 8 11 15 25 15
16 1 25 -3 25 -13z"/>
<path d="M6930 7303 c0 -13 29 -29 55 -31 16 -1 34 -7 39 -12 12 -12 26 -13
26 -1 0 5 -27 18 -60 29 -33 10 -60 17 -60 15z"/>
<path d="M6690 7271 c0 -18 -4 -21 -20 -16 -25 8 -50 -10 -50 -36 0 -26 35
-46 71 -41 31 5 31 5 24 51 -7 50 -25 80 -25 42z m4 -47 c8 -21 -1 -34 -24
-34 -22 0 -34 15 -26 35 7 20 42 19 50 -1z"/>
<path d="M10548 7283 c7 -3 16 -2 19 1 4 3 -2 6 -13 5 -11 0 -14 -3 -6 -6z"/>
<path d="M6450 7275 c0 -24 23 -104 30 -100 7 4 5 28 -6 83 -4 18 -24 33 -24
17z"/>
<path d="M6790 7264 c0 -8 5 -12 10 -9 6 4 8 11 5 16 -9 14 -15 11 -15 -7z"/>
<path d="M6877 7243 c1 -20 8 -41 14 -47 9 -8 10 -6 5 7 -3 10 -6 32 -6 48 0
16 -4 29 -8 29 -5 0 -7 -17 -5 -37z"/>
<path d="M6920 7256 c0 -9 5 -16 10 -16 6 0 10 4 10 9 0 6 -4 13 -10 16 -5 3
-10 -1 -10 -9z"/>
<path d="M7135 7246 c11 -8 24 -12 28 -9 11 7 -12 23 -32 23 -11 0 -9 -4 4
-14z"/>
<path d="M7200 7245 c7 -9 15 -13 17 -11 7 7 -7 26 -19 26 -6 0 -6 -6 2 -15z"/>
<path d="M7312 7246 c7 -8 15 -12 17 -11 5 6 -10 25 -20 25 -5 0 -4 -6 3 -14z"/>
<path d="M6510 7226 c0 -33 10 -57 21 -50 5 3 6 16 3 29 -3 12 -1 26 6 30 15
9 40 -13 40 -36 0 -11 5 -19 10 -19 6 0 8 11 4 28 -10 40 -12 42 -50 42 -29 0
-34 -3 -34 -24z"/>
<path d="M6745 7218 c8 -37 12 -44 21 -35 9 9 -6 67 -18 67 -6 0 -7 -13 -3
-32z"/>
<path d="M7090 7220 c0 -16 3 -30 8 -30 4 0 7 14 7 30 0 17 -3 30 -7 30 -5 0
-8 -13 -8 -30z"/>
<path d="M7260 7231 c0 -11 4 -22 9 -25 4 -3 6 6 3 19 -5 30 -12 33 -12 6z"/>
<path d="M6800 7212 c0 -18 5 -32 10 -32 6 0 8 11 4 28 -10 39 -14 40 -14 4z"/>
<path d="M6975 7230 c-3 -6 1 -13 10 -16 19 -8 30 0 20 15 -8 14 -22 14 -30 1z"/>
<path d="M6930 7213 c0 -12 5 -25 11 -28 16 -11 17 -2 2 25 -12 24 -13 24 -13
3z"/>
<path d="M7221 7204 c0 -11 3 -14 6 -6 3 7 2 16 -1 19 -3 4 -6 -2 -5 -13z"/>
<path d="M7036 7201 c-4 -7 -5 -15 -2 -18 9 -9 19 4 14 18 -4 11 -6 11 -12 0z"/>
<path d="M8450 6975 c-8 -9 -8 -15 -2 -15 12 0 26 19 19 26 -2 2 -10 -2 -17
-11z"/>
<path d="M8522 6981 c2 -7 7 -12 11 -12 12 1 9 15 -3 20 -7 2 -11 -2 -8 -8z"/>
<path d="M8160 6970 c0 -5 5 -10 11 -10 5 0 7 5 4 10 -3 6 -8 10 -11 10 -2 0
-4 -4 -4 -10z"/>
<path d="M8195 6970 c-3 -5 1 -10 9 -10 9 0 16 5 16 10 0 6 -4 10 -9 10 -6 0
-13 -4 -16 -10z"/>
<path d="M8560 6970 c0 -5 5 -10 10 -10 6 0 10 5 10 10 0 6 -4 10 -10 10 -5 0
-10 -4 -10 -10z"/>
<path d="M7600 6954 c0 -7 10 -9 25 -6 36 7 40 19 5 18 -17 -1 -30 -6 -30 -12z"/>
<path d="M8010 6960 c0 -5 5 -10 10 -10 6 0 10 5 10 10 0 6 -4 10 -10 10 -5 0
-10 -4 -10 -10z"/>
<path d="M7015 6950 c-4 -6 3 -10 14 -10 25 0 27 6 6 13 -8 4 -17 2 -20 -3z"/>
<path d="M7096 6953 c-11 -11 -6 -23 9 -23 8 0 15 4 15 9 0 13 -16 22 -24 14z"/>
<path d="M7505 6950 c-3 -5 -1 -10 4 -10 6 0 11 5 11 10 0 6 -2 10 -4 10 -3 0
-8 -4 -11 -10z"/>
<path d="M7535 6941 c-3 -5 -1 -12 5 -16 5 -3 10 1 10 9 0 18 -6 21 -15 7z"/>
<path d="M9994 6397 c-17 -7 -45 -28 -62 -48 -36 -42 -42 -85 -15 -125 13 -21
14 -33 5 -72 -12 -52 -8 -62 48 -122 30 -32 32 -33 25 -10 -4 14 -20 44 -36
68 -36 53 -38 76 -6 66 12 -3 29 -13 39 -21 14 -13 17 -12 23 6 3 12 15 21 26
21 12 0 19 7 19 20 0 17 7 20 46 20 49 0 120 17 142 33 20 16 14 63 -13 95
-50 59 -175 95 -241 69z"/>
<path d="M10952 6195 c0 -16 2 -22 5 -12 2 9 2 23 0 30 -3 6 -5 -1 -5 -18z"/>
<path d="M8400 6165 c0 -49 12 -105 22 -105 6 0 7 23 3 58 -8 62 -25 95 -25
47z"/>
<path d="M8170 6170 c0 -5 5 -10 10 -10 6 0 10 5 10 10 0 6 -4 10 -10 10 -5 0
-10 -4 -10 -10z"/>
<path d="M8227 6151 c-2 -10 -1 -25 4 -32 5 -8 9 -24 9 -37 0 -12 7 -25 15
-29 19 -7 34 5 19 15 -15 10 -24 51 -13 57 9 6 -10 45 -22 45 -4 0 -9 -9 -12
-19z"/>
<path d="M10255 6159 c-4 -6 -5 -12 -2 -15 2 -3 7 2 10 11 7 17 1 20 -8 4z"/>
<path d="M8310 6140 c-12 -8 -9 -10 13 -10 34 0 35 -16 2 -24 -16 -4 -25 -13
-25 -25 0 -23 23 -33 56 -25 18 5 24 13 24 34 0 47 -36 72 -70 50z m48 -58 c2
-7 -6 -12 -17 -12 -21 0 -27 11 -14 24 9 9 26 2 31 -12z"/>
<path d="M8065 6120 c-15 -17 -16 -24 -7 -45 11 -24 25 -30 66 -25 11 1 17 -3
14 -12 -3 -7 -17 -14 -33 -16 -18 -2 -24 -6 -16 -11 16 -10 59 -2 64 13 2 6 1
31 -2 56 -5 34 -11 46 -26 48 -16 3 -18 1 -7 -9 6 -7 12 -24 12 -37 0 -18 -5
-23 -21 -20 -33 5 -48 36 -26 52 9 7 17 16 17 20 0 12 -17 6 -35 -14z"/>
<path d="M10105 6130 c-4 -6 8 -10 30 -10 42 0 44 -20 4 -31 -24 -7 -24 -7 -1
-8 13 -1 32 8 44 18 l21 20 -29 6 c-16 4 -36 9 -46 11 -9 3 -19 0 -23 -6z"/>
<path d="M8010 6100 c0 -19 5 -42 10 -50 11 -17 13 -9 10 35 -3 44 -20 56 -20
15z"/>
<path d="M8173 6116 c4 -10 7 -29 7 -42 0 -13 5 -24 11 -24 15 0 6 73 -10 78
-10 3 -12 0 -8 -12z"/>
<path d="M10232 6119 c2 -6 8 -10 13 -10 5 0 11 4 13 10 2 6 -4 11 -13 11 -9
0 -15 -5 -13 -11z"/>
<path d="M11058 6034 c-26 -8 -54 -24 -63 -36 -20 -29 -19 -87 1 -138 18 -45
34 -52 34 -16 0 38 25 56 80 56 41 0 55 -5 86 -32 24 -22 39 -29 42 -20 8 26
32 12 33 -20 l1 -33 14 42 c12 33 13 50 4 82 -11 41 -49 95 -79 110 -33 17
-106 20 -153 5z"/>
<path d="M10145 6010 c3 -5 14 -10 23 -10 15 0 15 2 2 10 -20 13 -33 13 -25 0z"/>
<path d="M9835 5988 c-77 -27 -102 -87 -110 -268 -7 -160 -39 -293 -72 -298
-28 -4 -37 -29 -18 -55 25 -36 19 -57 -15 -57 -40 0 -38 -18 3 -22 43 -4 47
-34 10 -76 l-28 -33 -18 31 c-13 21 -16 40 -12 60 8 35 -11 48 -72 47 -47 0
-59 -14 -17 -19 15 -2 33 -12 40 -24 14 -20 13 -20 -45 -16 -34 2 -67 -1 -80
-8 -22 -11 -21 -12 21 -40 66 -43 158 -144 170 -187 5 -21 17 -46 25 -55 23
-25 12 -52 -21 -56 l-29 -4 6 -76 c8 -95 1 -111 -39 -89 -55 30 -79 39 -126
44 -27 3 -48 10 -48 14 0 5 5 9 10 9 14 0 13 43 -2 58 -7 7 -20 12 -31 12 -11
0 -15 5 -11 11 3 6 21 9 39 7 19 -2 31 0 29 4 -3 4 2 18 10 30 18 26 20 38 6
38 -5 0 -19 9 -30 20 -23 23 -42 26 -34 7 3 -8 -3 -20 -12 -28 -15 -12 -16
-10 -13 29 l5 42 -49 0 c-40 0 -50 3 -54 20 -3 11 -9 20 -13 20 -5 0 -6 9 -3
20 4 14 0 20 -11 20 -9 0 -16 8 -16 21 0 11 -4 17 -10 14 -13 -8 -13 1 1 27
10 19 9 20 -10 15 -18 -4 -21 -2 -19 16 2 13 -2 21 -9 20 -7 -2 -13 6 -13 17
0 11 -4 20 -9 20 -5 0 -16 6 -23 13 -15 14 -50 32 -90 47 -26 9 -28 8 -28 -17
0 -23 77 -154 98 -167 5 -3 7 -30 5 -61 -3 -42 0 -55 10 -55 8 0 20 7 27 15
14 17 30 20 30 5 0 -5 -7 -10 -15 -10 -8 0 3 -18 28 -43 35 -35 47 -59 71
-137 37 -120 55 -203 56 -257 l0 -43 34 18 c24 12 31 20 24 29 -16 20 -1 29
44 27 56 -2 58 -2 58 -13 0 -5 -12 -11 -27 -13 -16 -2 67 -3 182 -2 116 0 251
-4 300 -9 66 -7 104 -6 143 4 61 14 85 35 61 53 -19 15 -44 56 -52 84 -8 35
20 49 213 110 53 16 118 29 146 30 28 0 61 3 73 7 20 6 22 4 17 -13 -8 -23 11
-69 31 -76 22 -9 174 31 195 51 25 22 79 21 145 -3 59 -22 76 -34 46 -34 -30
0 -34 -10 -17 -43 10 -19 14 -43 10 -65 l-5 -35 66 7 c90 9 103 18 103 66 0
21 -5 42 -11 46 -16 9 9 24 42 24 15 0 43 7 63 15 l36 15 26 -41 c14 -22 24
-42 22 -44 -2 -1 -25 -11 -53 -21 -62 -23 -44 -28 60 -14 44 6 136 15 205 21
83 7 130 16 140 25 9 9 16 36 17 72 1 56 1 56 40 69 21 7 55 29 76 48 31 29
37 40 37 75 0 52 -13 76 -52 96 -30 16 -84 16 -120 0 -13 -6 -21 -2 -28 15 -8
18 -9 5 -5 -51 3 -41 2 -80 -2 -86 -5 -8 -81 -16 -213 -23 -113 -6 -244 -13
-291 -17 -97 -6 -103 -3 -112 60 -4 22 -10 43 -14 47 -4 4 -35 15 -67 23 -56
15 -62 15 -95 -2 -20 -11 -42 -30 -48 -43 -16 -31 -17 -81 -1 -97 6 -6 8 -15
4 -19 -4 -5 -16 3 -27 16 -11 13 -22 21 -26 18 -3 -4 0 -13 7 -22 7 -9 10 -18
7 -22 -11 -10 -37 18 -37 39 0 16 -5 19 -29 13 -27 -6 -33 -2 -66 47 -19 29
-51 75 -70 103 -19 27 -35 57 -35 67 0 9 -4 20 -10 23 -20 12 -10 -45 15 -82
30 -47 83 -120 109 -150 18 -22 49 -94 42 -100 -1 -2 -11 6 -20 16 -10 11 -24
17 -31 15 -15 -6 -74 30 -123 74 -29 26 -33 37 -39 98 -3 45 -15 88 -33 124
-56 114 -72 158 -51 146 5 -4 11 -2 13 3 1 5 20 12 41 16 l37 7 0 -45 c0 -30
6 -49 17 -58 10 -8 14 -9 10 -2 -4 6 -12 47 -17 90 -10 79 -19 113 -48 170 -9
18 -14 34 -11 37 7 8 368 28 379 21 6 -3 10 -12 10 -19 0 -8 12 -13 30 -12 16
1 30 6 30 13 0 16 -44 46 -48 33 -8 -24 -20 -6 -36 53 l-17 63 -67 23 c-37 13
-83 29 -102 37 -19 7 -60 13 -91 13 -65 1 -64 2 -99 -128 l-23 -83 -36 7 c-20
4 -66 8 -103 10 -37 2 -72 6 -78 10 -14 8 -70 -49 -70 -71 0 -11 10 -8 41 12
51 32 65 22 21 -14 -36 -30 -42 -46 -12 -37 33 11 46 -6 19 -25 -19 -15 -21
-21 -10 -34 15 -18 16 -51 8 -191 -9 -141 -15 -171 -49 -247 -29 -64 -33 -68
-64 -68 -19 0 -34 4 -34 8 0 5 -16 15 -36 22 -52 21 -147 162 -128 191 10 17
126 3 140 -16 26 -34 36 -13 75 155 19 81 9 117 -58 195 -28 33 -33 46 -31 80
2 22 7 38 13 35 6 -3 9 -16 7 -29 -3 -25 23 -61 43 -61 7 0 15 11 19 23 3 13
18 36 33 51 23 23 25 29 13 36 -48 27 -86 59 -99 82 -14 25 -14 30 6 65 11 21
27 58 34 82 l13 43 48 -4 c26 -3 48 -2 48 3 0 4 -16 21 -36 37 -53 44 -164 69
-219 50z m-831 -674 c9 -3 16 -17 16 -31 0 -14 -4 -22 -10 -18 -6 4 -8 11 -5
16 4 5 2 9 -3 9 -6 0 -12 7 -16 15 -6 17 -4 18 18 9z m561 -34 c3 -5 2 -10 -4
-10 -5 0 -13 5 -16 10 -3 6 -2 10 4 10 5 0 13 -4 16 -10z m135 -40 c0 -5 -4
-10 -9 -10 -6 0 -13 5 -16 10 -3 6 1 10 9 10 9 0 16 -4 16 -10z m7 -50 c7 -8
13 -27 13 -42 0 -15 8 -33 18 -40 26 -20 28 -42 2 -26 -11 7 -20 16 -20 20 0
5 -12 8 -27 8 -18 0 -23 3 -16 8 10 7 10 12 -1 28 -8 10 -18 15 -22 11 -5 -4
-3 -12 4 -16 15 -9 5 -44 -11 -38 -14 4 -28 57 -16 57 5 0 14 11 19 25 11 28
37 30 57 5z m73 -172 c0 -14 -11 -8 -41 19 -41 39 -36 50 6 16 19 -15 35 -31
35 -35z m-412 -107 c-15 -6 -20 7 -12 31 l8 23 6 -25 c3 -14 2 -27 -2 -29z
m452 29 c0 -5 -6 -10 -14 -10 -8 0 -18 5 -21 10 -3 6 3 10 14 10 12 0 21 -4
21 -10z m820 -4 c0 -2 3 -11 6 -20 9 -23 -9 -20 -24 4 -10 17 -10 20 3 20 8 0
15 -2 15 -4z m-1370 -42 c0 -8 -6 -11 -15 -8 -8 4 -15 12 -15 20 0 8 6 11 15
8 8 -4 15 -12 15 -20z m655 1 c34 -15 37 -19 23 -29 -9 -7 -18 -28 -20 -47
l-3 -34 -115 2 c-63 1 -118 2 -122 3 -5 0 -8 13 -8 28 0 15 -5 33 -11 39 -7 7
-3 18 13 37 22 26 25 27 113 23 55 -3 105 -11 130 -22z m-618 -157 c-3 -8 -6
-5 -6 6 -1 11 2 17 5 13 3 -3 4 -12 1 -19z m165 -9 c28 -11 60 -18 70 -16 16
5 18 1 12 -31 -8 -41 -18 -52 -51 -52 -12 0 -29 -3 -37 -6 -12 -4 -15 -2 -10
9 7 20 -51 34 -71 17 -12 -10 -15 -9 -15 9 0 18 6 21 39 21 22 0 50 -4 64 -9
13 -5 29 -6 36 -2 16 11 -25 27 -108 44 -36 7 -66 18 -69 25 -6 20 81 14 140
-9z m-119 -50 c7 0 3 -4 -8 -9 -29 -13 -35 -12 -35 6 0 11 5 14 16 10 9 -3 21
-6 27 -7z"/>
<path d="M9733 4865 c-27 -24 -27 -26 -9 -40 49 -38 161 -24 161 20 0 47 -106
61 -152 20z m107 0 c28 -34 -35 -61 -74 -32 -17 13 -17 14 -1 30 20 21 58 22
75 2z"/>
<path d="M10049 5979 c23 -19 51 -25 51 -11 0 4 -17 12 -37 19 l-38 11 24 -19z"/>
<path d="M8469 5965 c-1 -6 0 -23 1 -40 1 -16 2 -42 2 -57 1 -16 7 -28 14 -28
9 0 11 14 7 58 -5 50 -21 94 -24 67z"/>
<path d="M8162 5898 c-20 -66 -19 -85 2 -55 17 22 64 22 88 0 11 -10 18 -12
18 -4 0 17 -68 121 -80 121 -5 0 -18 -28 -28 -62z m62 -20 c-3 -4 -14 -8 -25
-8 -20 0 -24 15 -12 45 5 15 8 15 24 -6 9 -13 15 -27 13 -31z"/>
<path d="M7980 5923 c0 -46 12 -103 21 -103 5 0 9 9 9 21 l0 20 27 -20 c14
-12 29 -18 32 -15 3 3 -4 13 -17 21 -21 15 -22 17 -6 34 22 25 10 37 -14 16
-26 -24 -32 -21 -32 12 0 17 -4 33 -10 36 -6 4 -10 -6 -10 -22z"/>
<path d="M8415 5916 c-28 -20 -10 -70 25 -73 15 -1 18 0 8 3 -27 8 -34 52 -12
69 11 8 14 15 8 15 -5 0 -19 -6 -29 -14z"/>
<path d="M8553 5923 c22 -4 27 -9 27 -33 0 -15 -7 -30 -15 -33 -19 -8 -31 13
-14 24 10 6 8 9 -8 9 -16 0 -23 -6 -23 -19 0 -24 21 -32 61 -24 28 5 29 8 23
37 -8 36 -20 46 -54 44 -24 -1 -24 -1 3 -5z"/>
<path d="M8290 5881 c0 -22 5 -43 10 -46 6 -4 10 12 10 39 0 25 -4 46 -10 46
-5 0 -10 -18 -10 -39z"/>
<path d="M8330 5913 c20 -8 30 -24 30 -50 0 -13 5 -23 10 -23 14 0 12 54 -2
68 -7 7 -21 12 -32 11 -15 0 -17 -2 -6 -6z"/>
<path d="M11215 5820 c-3 -5 1 -10 9 -10 9 0 16 5 16 10 0 6 -4 10 -9 10 -6 0
-13 -4 -16 -10z"/>
<path d="M10110 5800 c0 -5 5 -10 10 -10 6 0 10 5 10 10 0 6 -4 10 -10 10 -5
0 -10 -4 -10 -10z"/>
<path d="M10035 5790 c-19 -8 -19 -9 3 -9 12 -1 22 4 22 9 0 6 -1 10 -2 9 -2
0 -12 -4 -23 -9z"/>
<path d="M11090 5790 c19 -13 30 -13 30 0 0 6 -10 10 -22 10 -19 0 -20 -2 -8
-10z"/>
<path d="M11205 5780 c3 -5 12 -7 20 -3 21 7 19 13 -6 13 -11 0 -18 -4 -14
-10z"/>
<path d="M10030 5750 c-12 -8 -11 -10 8 -10 12 0 22 5 22 10 0 13 -11 13 -30
0z"/>
<path d="M11080 5700 c0 -5 5 -10 10 -10 6 0 10 5 10 10 0 6 -4 10 -10 10 -5
0 -10 -4 -10 -10z"/>
<path d="M11150 5703 c0 -14 48 -31 62 -22 9 6 7 9 -9 9 -12 0 -25 5 -28 10
-7 12 -25 13 -25 3z"/>
<path d="M7960 5672 c0 -4 10 -8 23 -7 30 0 34 -19 5 -25 -14 -4 -23 -13 -23
-25 0 -16 7 -20 38 -20 35 -1 37 1 37 30 0 17 -5 36 -12 43 -13 13 -68 17 -68
4z m58 -54 c-7 -19 -38 -22 -38 -4 0 10 9 16 21 16 12 0 19 -5 17 -12z"/>
<path d="M10740 5660 c-12 -8 -10 -10 8 -10 13 0 20 4 17 10 -7 12 -6 12 -25
0z"/>
<path d="M11216 5651 c-4 -6 -5 -15 -1 -20 3 -5 -5 -17 -17 -25 -12 -9 -19
-18 -16 -21 10 -10 46 18 52 39 6 23 -8 44 -18 27z"/>
<path d="M9095 5450 c-2 -3 1 -12 6 -20 8 -13 10 -13 19 0 5 8 10 18 10 21 0
8 -30 7 -35 -1z"/>
<path d="M9200 5430 c0 -13 33 -21 42 -12 6 6 -1 11 -16 14 -14 3 -26 2 -26
-2z"/>
<path d="M9107 5403 c-15 -4 -31 -44 -29 -70 2 -10 92 -21 92 -11 0 7 -41 89
-44 87 0 -1 -9 -3 -19 -6z m13 -44 c0 -5 -4 -9 -10 -9 -5 0 -10 7 -10 16 0 8
5 12 10 9 6 -3 10 -10 10 -16z"/>
<path d="M9215 5390 c-3 -5 1 -10 9 -10 9 0 16 5 16 10 0 6 -4 10 -9 10 -6 0
-13 -4 -16 -10z"/>
<path d="M9225 5320 c-3 -5 -1 -10 4 -10 6 0 11 5 11 10 0 6 -2 10 -4 10 -3 0
-8 -4 -11 -10z"/>
<path d="M11390 5310 c0 -5 5 -10 10 -10 6 0 10 5 10 10 0 6 -4 10 -10 10 -5
0 -10 -4 -10 -10z"/>
<path d="M9325 5300 c-3 -5 -1 -10 4 -10 6 0 11 5 11 10 0 6 -2 10 -4 10 -3 0
-8 -4 -11 -10z"/>
<path d="M10895 5290 c-2 -3 -1 -11 3 -17 5 -7 18 -6 42 2 l35 12 -38 5 c-21
2 -40 1 -42 -2z"/>
<path d="M9130 5280 c8 -5 20 -10 25 -10 6 0 3 5 -5 10 -8 5 -19 10 -25 10 -5
0 -3 -5 5 -10z"/>
<path d="M10754 5255 c11 -8 38 -15 60 -14 l41 1 -40 13 c-22 8 -49 14 -60 14
-20 0 -20 0 -1 -14z"/>
<path d="M10390 5241 c0 -5 7 -15 17 -22 15 -13 15 -12 4 9 -12 23 -21 28 -21
13z"/>
<path d="M8555 5190 c3 -5 8 -10 11 -10 2 0 4 5 4 10 0 6 -5 10 -11 10 -5 0
-7 -4 -4 -10z"/>
<path d="M7815 5130 c-3 -5 1 -10 10 -10 9 0 13 5 10 10 -3 6 -8 10 -10 10 -2
0 -7 -4 -10 -10z"/>
<path d="M8535 5070 c3 -5 11 -10 16 -10 6 0 7 5 4 10 -3 6 -11 10 -16 10 -6
0 -7 -4 -4 -10z"/>
<path d="M8370 5061 c0 -5 5 -13 10 -16 6 -3 10 -2 10 4 0 5 -4 13 -10 16 -5
3 -10 2 -10 -4z"/>
<path d="M7851 5024 c0 -11 3 -14 6 -6 3 7 2 16 -1 19 -3 4 -6 -2 -5 -13z"/>
<path d="M9010 5029 c0 -5 5 -7 10 -4 6 3 10 8 10 11 0 2 -4 4 -10 4 -5 0 -10
-5 -10 -11z"/>
<path d="M7940 4910 c0 -5 5 -10 10 -10 6 0 10 5 10 10 0 6 -4 10 -10 10 -5 0
-10 -4 -10 -10z"/>
<path d="M11554 4490 c2 -46 8 -76 15 -78 9 -3 10 10 5 50 -12 93 -23 108 -20
28z"/>
<path d="M10391 4528 c0 -7 4 -22 9 -33 8 -18 9 -17 9 7 1 15 -3 30 -9 33 -5
3 -10 0 -9 -7z"/>
<path d="M9228 4454 c-8 -16 -8 -28 -2 -32 5 -4 10 -18 11 -32 2 -43 15 -84
34 -112 11 -14 19 -31 19 -37 0 -6 10 -11 23 -11 20 1 20 2 4 11 -22 13 -47
73 -47 115 0 18 -5 45 -12 61 -6 15 -10 36 -9 46 3 25 -8 21 -21 -9z"/>
<path d="M10430 4335 c0 -8 5 -15 10 -15 6 0 10 7 10 15 0 8 -4 15 -10 15 -5
0 -10 -7 -10 -15z"/>
<path d="M9395 3741 c-6 -11 9 -23 19 -14 9 9 7 23 -3 23 -6 0 -12 -4 -16 -9z"/>
<path d="M8978 3623 c12 -2 22 -10 21 -16 -3 -26 1 -48 9 -43 5 3 7 19 4 36
-4 25 -9 30 -31 29 -24 -2 -24 -2 -3 -6z"/>
<path d="M8867 3613 c-13 -13 -7 -51 9 -57 9 -4 19 -4 22 -1 3 3 1 5 -5 5 -17
0 -25 31 -12 46 11 14 -1 20 -14 7z"/>
<path d="M8910 3600 c6 -10 10 -23 9 -27 -4 -23 2 -36 11 -27 14 14 1 74 -17
74 -11 0 -11 -4 -3 -20z"/>
<path d="M8541 3595 c1 -11 5 -33 9 -50 l8 -30 1 35 c0 19 -4 42 -9 50 -8 12
-10 11 -9 -5z"/>
<path d="M8718 3599 c6 -7 12 -21 12 -30 0 -10 4 -20 8 -23 5 -3 6 8 4 24 -2
16 -11 31 -21 35 -13 5 -14 4 -3 -6z"/>
<path d="M8766 3594 c-7 -17 19 -54 37 -54 6 0 3 6 -8 14 -12 8 -16 20 -12 35
6 25 -8 29 -17 5z"/>
<path d="M8815 3600 c3 -5 8 -10 11 -10 2 0 4 5 4 10 0 6 -5 10 -11 10 -5 0
-7 -4 -4 -10z"/>
<path d="M8580 3596 c0 -4 7 -14 15 -22 8 -9 15 -11 15 -6 0 5 -7 15 -15 22
-8 7 -15 9 -15 6z"/>
<path d="M8640 3571 c0 -17 4 -32 8 -35 4 -2 6 11 4 30 -5 42 -12 45 -12 5z"/>
<path d="M8671 3583 c0 -10 4 -27 9 -38 7 -16 9 -13 9 18 1 20 -3 37 -9 37 -5
0 -10 -8 -9 -17z"/>
<path d="M8336 3574 c-3 -9 -2 -23 4 -32 7 -14 9 -10 10 16 0 35 -5 41 -14 16z"/>
<path d="M8960 3577 c0 -10 8 -17 18 -17 9 0 13 4 7 8 -5 4 -13 11 -17 16 -5
5 -8 2 -8 -7z"/>
<path d="M8420 3571 c0 -4 11 -6 25 -3 14 2 25 6 25 8 0 2 -11 4 -25 4 -14 0
-25 -4 -25 -9z"/>
<path d="M8829 3578 c-5 -16 -3 -58 3 -58 4 0 8 14 8 30 0 17 -2 30 -5 30 -3
0 -5 -1 -6 -2z"/>
<path d="M8294 3555 c-10 -8 -14 -15 -8 -15 6 0 17 7 24 15 16 19 9 19 -16 0z"/>
<path d="M8213 3553 c-7 -2 -13 -14 -12 -26 0 -22 0 -22 9 1 11 26 25 28 39 5
9 -16 10 -16 11 -2 0 13 -23 33 -33 28 -1 0 -8 -3 -14 -6z"/>
<path d="M8381 3544 c0 -11 3 -14 6 -6 3 7 2 16 -1 19 -3 4 -6 -2 -5 -13z"/>
<path d="M8467 3553 c-3 -5 -1 -17 4 -28 7 -17 8 -17 8 8 1 27 -4 34 -12 20z"/>
<path d="M7915 3539 c-7 -19 8 -72 22 -76 7 -3 8 9 3 37 -8 46 -17 60 -25 39z"/>
<path d="M8125 3540 c-8 -14 3 -30 21 -30 8 0 14 -4 14 -10 0 -5 5 -10 10 -10
21 0 9 20 -15 26 -31 8 -32 21 -2 27 22 4 22 4 0 6 -12 0 -25 -3 -28 -9z"/>
<path d="M10320 3540 c0 -5 7 -10 15 -10 8 0 15 5 15 10 0 6 -7 10 -15 10 -8
0 -15 -4 -15 -10z"/>
<path d="M8070 3530 c-9 -6 -10 -10 -3 -10 6 0 15 5 18 10 8 12 4 12 -15 0z"/>
<path d="M8420 3531 c0 -5 8 -15 18 -22 15 -12 16 -12 5 2 -7 9 -10 19 -6 22
3 4 1 7 -5 7 -7 0 -12 -4 -12 -9z"/>
<path d="M7973 3514 c-12 -33 35 -70 58 -47 6 6 1 9 -13 9 -19 -1 -23 4 -23
27 1 30 -12 36 -22 11z"/>
<path d="M8016 3516 c3 -9 11 -16 16 -16 13 0 5 23 -10 28 -7 2 -10 -2 -6 -12z"/>
<path d="M8286 3516 c3 -8 12 -17 20 -20 11 -4 12 -2 1 14 -14 23 -29 27 -21
6z"/>
<path d="M8888 3523 c7 -3 16 -2 19 1 4 3 -2 6 -13 5 -11 0 -14 -3 -6 -6z"/>
<path d="M7500 3497 c0 -19 -5 -27 -17 -28 -14 0 -13 -2 5 -9 12 -5 22 -16 22
-24 0 -8 4 -18 10 -21 6 -4 8 11 4 42 -7 54 -24 82 -24 40z"/>
<path d="M7796 3507 c-14 -10 -15 -18 -7 -40 10 -26 43 -38 55 -19 3 5 -5 8
-17 8 -13 -1 -23 6 -25 18 -6 27 13 42 33 26 8 -7 15 -8 15 -2 0 5 -7 13 -16
16 -20 8 -17 8 -38 -7z"/>
<path d="M8340 3510 c0 -5 5 -10 10 -10 6 0 10 5 10 10 0 6 -4 10 -10 10 -5 0
-10 -4 -10 -10z"/>
<path d="M7420 3505 c-4 -20 2 -70 11 -85 6 -11 8 -7 8 15 -1 32 -16 87 -19
70z"/>
<path d="M7733 3492 c10 -10 17 -26 17 -35 0 -9 5 -17 10 -17 13 0 13 12 0 44
-5 14 -17 26 -26 26 -16 0 -16 -1 -1 -18z"/>
<path d="M7640 3471 c0 -17 5 -33 10 -36 6 -4 10 8 10 29 0 20 -4 36 -10 36
-5 0 -10 -13 -10 -29z"/>
<path d="M7680 3490 c19 -13 30 -13 30 0 0 6 -10 10 -22 10 -19 0 -20 -2 -8
-10z"/>
<path d="M7551 3476 c-27 -32 21 -70 57 -47 17 10 12 53 -6 59 -11 3 -11 1 -1
-17 16 -24 0 -47 -25 -38 -19 8 -21 43 -3 50 7 4 8 6 1 6 -6 1 -17 -5 -23 -13z"/>
<path d="M8138 3473 c7 -3 16 -2 19 1 4 3 -2 6 -13 5 -11 0 -14 -3 -6 -6z"/>
<path d="M7380 3441 c0 -16 5 -33 10 -36 6 -4 10 6 10 24 0 16 -4 33 -10 36
-6 4 -10 -6 -10 -24z"/>
<path d="M7340 3416 c0 -9 5 -16 10 -16 6 0 10 4 10 9 0 6 -4 13 -10 16 -5 3
-10 -1 -10 -9z"/>
<path d="M8160 3318 c0 -43 17 -53 22 -14 3 25 0 36 -9 36 -7 0 -13 -10 -13
-22z"/>
<path d="M8226 3313 c9 -38 14 -42 14 -10 0 14 -5 29 -10 32 -7 4 -8 -3 -4
-22z"/>
<path d="M7993 3323 c-15 -5 -17 -23 -4 -23 5 0 11 7 15 15 3 8 4 15 3 14 -1
0 -8 -3 -14 -6z"/>
<path d="M8035 3298 c4 -18 8 -37 9 -42 0 -5 -10 -15 -24 -23 -15 -8 -19 -13
-9 -13 35 0 50 23 43 68 -4 23 -11 42 -16 42 -6 0 -7 -14 -3 -32z"/>
<path d="M7666 3278 c7 -44 24 -76 24 -45 0 16 2 16 25 1 14 -9 25 -12 25 -8
0 5 -9 15 -21 22 -20 13 -20 14 -2 27 10 8 13 15 6 15 -6 0 -15 -4 -18 -10
-11 -18 -25 -10 -25 15 0 14 -5 25 -10 25 -6 0 -8 -16 -4 -42z"/>
<path d="M7926 3313 c6 -4 14 -15 17 -23 5 -11 6 -9 4 4 -1 11 -9 21 -17 23
-10 3 -11 2 -4 -4z"/>
<path d="M8078 3314 c-3 -3 -4 -14 -1 -24 6 -22 41 -36 54 -23 6 6 1 9 -13 9
-15 -1 -23 5 -23 16 0 19 -9 31 -17 22z"/>
<path d="M8125 3310 c-3 -5 -1 -10 4 -10 6 0 11 5 11 10 0 6 -2 10 -4 10 -3 0
-8 -4 -11 -10z"/>
<path d="M7839 3293 c5 -10 12 -26 15 -35 3 -10 10 -18 15 -18 11 0 3 39 -12
58 -14 18 -29 15 -18 -5z"/>
<path d="M7890 3285 c0 -15 8 -29 23 -36 18 -9 20 -9 10 2 -7 7 -13 23 -13 36
0 13 -4 23 -10 23 -5 0 -10 -11 -10 -25z"/>
<path d="M7790 3288 c0 -24 12 -58 20 -58 5 0 8 16 7 35 -1 20 -7 35 -14 35
-7 0 -13 -6 -13 -12z"/>
<path d="M7980 3283 c0 -13 29 -38 35 -31 3 3 -4 13 -15 23 -11 10 -20 13 -20
8z"/>
<path d="M7500 3270 c-12 -7 -12 -12 -2 -22 9 -9 12 -8 12 6 0 13 5 16 21 11
15 -5 19 -4 15 4 -9 13 -26 14 -46 1z"/>
<path d="M7583 3273 c-15 -5 -17 -23 -4 -23 5 0 11 7 15 15 3 8 4 15 3 14 -1
0 -8 -3 -14 -6z"/>
<path d="M7628 3263 c7 -12 7 -25 2 -34 -8 -12 -13 -12 -31 -1 -18 11 -20 11
-17 0 6 -18 36 -22 54 -7 18 14 15 51 -4 57 -11 3 -12 0 -4 -15z"/>
<path d="M7407 3253 c-12 -11 -8 -40 8 -53 30 -25 79 16 54 46 -18 21 -31 17
-17 -6 10 -15 10 -22 1 -31 -19 -19 -46 -2 -41 26 6 27 5 29 -5 18z"/>
<path d="M7316 3236 c3 -9 11 -16 16 -16 13 0 5 23 -10 28 -7 2 -10 -2 -6 -12z"/>
<path d="M7361 3234 c0 -11 3 -14 6 -6 3 7 2 16 -1 19 -3 4 -6 -2 -5 -13z"/>
<path d="M7538 3227 c11 -13 10 -16 -13 -20 -24 -4 -24 -4 2 -3 30 1 39 26 13
34 -13 4 -13 3 -2 -11z"/>
<path d="M3207 6073 c-7 -39 -1 -40 11 -4 6 17 7 31 3 31 -5 0 -11 -12 -14
-27z"/>
<path d="M3370 6092 c0 -7 -11 -12 -24 -12 -22 0 -36 -16 -36 -41 0 -5 11 -9
24 -9 18 0 27 8 35 32 6 17 9 34 6 36 -3 3 -5 0 -5 -6z m-15 -32 c3 -6 -1 -13
-10 -16 -19 -8 -30 0 -20 15 8 14 22 14 30 1z"/>
<path d="M3540 6091 c0 -5 14 -16 30 -25 17 -8 30 -10 30 -5 0 4 -13 15 -30
24 -16 9 -30 11 -30 6z"/>
<path d="M3253 6082 c-14 -10 -24 -42 -13 -42 6 0 10 7 10 15 0 8 7 15 16 15
11 0 14 -6 9 -21 -5 -15 -4 -19 4 -15 6 4 11 15 11 26 0 19 -21 32 -37 22z"/>
<path d="M3430 6067 c0 -10 8 -17 18 -17 9 0 13 4 7 8 -5 4 -13 11 -17 16 -5
5 -8 2 -8 -7z"/>
<path d="M3387 6050 c-3 -11 -1 -20 4 -20 5 0 9 9 9 20 0 11 -2 20 -4 20 -2 0
-6 -9 -9 -20z"/>
<path d="M3540 6040 c0 -5 5 -10 10 -10 6 0 10 5 10 10 0 6 -4 10 -10 10 -5 0
-10 -4 -10 -10z"/>
<path d="M6702 5854 c-13 -9 -22 -25 -22 -42 0 -51 10 -55 142 -63 67 -5 146
-11 174 -14 41 -5 55 -2 76 14 33 27 40 56 19 82 -14 18 -33 22 -126 30 -171
13 -237 11 -263 -7z m118 -35 c0 -8 5 -8 15 1 12 10 15 10 15 -3 0 -19 -24
-29 -39 -14 -14 14 -14 27 -1 27 6 0 10 -5 10 -11z m154 -14 c3 -8 1 -15 -4
-15 -6 0 -10 7 -10 15 0 8 2 15 4 15 2 0 6 -7 10 -15z m-25 -11 c10 -9 -45 -3
-59 6 -11 7 -5 8 20 4 19 -4 37 -8 39 -10z"/>
<path d="M4120 5790 c0 -5 5 -10 10 -10 6 0 10 5 10 10 0 6 -4 10 -10 10 -5 0
-10 -4 -10 -10z"/>
<path d="M4455 5760 c-3 -6 1 -7 9 -4 18 7 21 14 7 14 -6 0 -13 -4 -16 -10z"/>
<path d="M3021 5249 c-14 -39 -14 -74 0 -40 l9 23 20 -23 c23 -29 26 -19 5 22
-9 16 -13 34 -10 39 3 6 2 10 -3 10 -6 0 -15 -14 -21 -31z"/>
<path d="M3064 5265 c-10 -8 -14 -14 -9 -14 6 0 19 6 29 14 11 8 15 15 10 15
-6 0 -19 -7 -30 -15z"/>
<path d="M3192 5253 c-14 -28 -23 -73 -14 -73 8 0 33 82 27 88 -2 2 -8 -5 -13
-15z"/>
<path d="M3100 5225 c-17 -21 -5 -45 22 -44 17 1 18 2 5 6 -12 3 -15 11 -11
29 7 27 2 31 -16 9z"/>
<path d="M3143 5225 c0 -8 4 -15 9 -15 4 0 8 7 8 15 0 8 -4 15 -8 15 -5 0 -9
-7 -9 -15z"/>
<path d="M3225 5224 c3 -13 -1 -28 -10 -38 -9 -9 -12 -16 -7 -16 5 0 16 8 25
18 15 17 15 20 1 38 -15 19 -15 18 -9 -2z"/>
<path d="M3350 5216 c-12 -33 -13 -56 -1 -56 9 0 24 71 16 78 -2 3 -9 -7 -15
-22z"/>
<path d="M3481 5201 c-7 -23 -10 -45 -8 -47 8 -8 29 54 25 73 -3 12 -9 3 -17
-26z"/>
<path d="M3265 5216 c-3 -9 -7 -23 -10 -31 -2 -8 0 -17 4 -20 5 -2 11 10 14
28 5 35 1 50 -8 23z"/>
<path d="M3302 5195 c-14 -31 -15 -35 -3 -35 5 0 14 14 20 30 12 36 -1 40 -17
5z"/>
<path d="M3397 5203 c-9 -9 -9 -53 1 -53 4 0 7 14 8 30 1 32 1 33 -9 23z"/>
<path d="M3437 5181 c-9 -17 -11 -31 -6 -31 10 0 32 50 25 57 -2 2 -11 -10
-19 -26z"/>
<path d="M3517 5198 c4 -7 6 -22 5 -33 -2 -19 -2 -19 9 -2 12 20 6 47 -11 47
-7 0 -8 -5 -3 -12z"/>
<path d="M3771 5193 c-5 -11 -11 -32 -13 -49 -3 -25 1 -29 24 -32 36 -4 70 30
66 66 -2 22 -9 28 -35 30 -23 2 -34 -2 -42 -15z m65 -7 c9 -24 -15 -56 -41
-56 -28 0 -30 8 -13 45 12 27 45 34 54 11z"/>
<path d="M3587 5194 c8 -4 9 -13 3 -29 -5 -14 -5 -27 -1 -30 10 -6 32 50 24
59 -4 3 -13 6 -22 5 -10 0 -11 -3 -4 -5z"/>
<path d="M3634 5165 c-4 -14 -4 -29 0 -32 3 -4 6 3 6 13 0 11 5 25 12 32 9 9
9 12 0 12 -6 0 -14 -11 -18 -25z"/>
<path d="M3677 5158 c-6 -43 0 -48 13 -13 7 17 7 32 2 37 -6 6 -12 -4 -15 -24z"/>
<path d="M3556 5165 c-9 -26 -7 -32 5 -12 6 10 9 21 6 23 -2 3 -7 -2 -11 -11z"/>
<path d="M3866 5148 c-10 -38 -6 -45 9 -18 17 29 18 40 6 40 -5 0 -11 -10 -15
-22z"/>
<path d="M3906 5149 c-8 -12 -12 -28 -9 -35 8 -21 22 -17 16 5 -2 10 3 25 12
35 9 9 12 16 6 16 -5 0 -17 -10 -25 -21z"/>
<path d="M4037 5163 c-12 -21 -18 -73 -8 -73 6 0 11 11 11 24 0 14 5 28 10 31
6 3 10 10 10 16 0 11 -17 12 -23 2z"/>
<path d="M4161 5129 c-13 -44 -7 -67 7 -28 19 51 23 69 14 69 -5 0 -14 -18
-21 -41z"/>
<path d="M5457 5140 c-51 -33 -72 -69 -63 -112 3 -15 1 -30 -4 -33 -6 -3 2
-17 17 -29 23 -20 29 -21 41 -10 7 8 22 14 32 14 10 0 20 5 22 12 3 7 26 11
69 9 65 -2 117 10 131 32 17 27 7 65 -24 96 -60 58 -147 67 -221 21z"/>
<path d="M3944 5123 c-6 -27 -16 -39 -34 -44 l-25 -7 28 -1 c23 -1 31 5 43 34
16 39 18 55 6 55 -5 0 -13 -17 -18 -37z"/>
<path d="M3991 5136 c-6 -16 -10 -34 -8 -40 3 -6 10 2 16 18 6 16 10 34 8 40
-3 6 -10 -2 -16 -18z"/>
<path d="M4103 5143 c20 -5 20 -4 7 -37 -6 -17 -6 -26 0 -26 13 0 32 48 24 61
-3 5 -15 8 -27 8 -17 -1 -18 -2 -4 -6z"/>
<path d="M2979 5121 c13 -8 12 -32 -5 -75 -3 -9 -2 -16 3 -16 6 0 15 18 22 40
7 25 18 40 28 40 25 0 12 6 -27 14 -22 4 -30 3 -21 -3z"/>
<path d="M4074 5109 c-3 -6 -2 -15 3 -20 5 -5 9 -1 9 11 0 23 -2 24 -12 9z"/>
<path d="M3171 5060 c-13 -45 -9 -60 18 -60 40 0 58 58 20 67 -12 3 -18 11
-15 19 3 8 2 14 -3 14 -4 0 -13 -18 -20 -40z m49 -13 c0 -14 -20 -37 -32 -37
-10 0 -11 34 -1 43 11 12 33 8 33 -6z"/>
<path d="M3040 5060 c-12 -22 -6 -40 13 -39 9 0 9 2 0 6 -24 9 -13 23 17 23
30 0 40 13 18 26 -7 4 -8 3 -4 -4 5 -8 -1 -12 -16 -12 -18 0 -20 2 -8 10 9 6
10 10 3 10 -7 0 -17 -9 -23 -20z"/>
<path d="M3372 5063 c-15 -29 -25 -81 -12 -63 9 13 12 12 26 -5 16 -20 16 -19
9 4 -5 15 -2 27 6 33 10 6 7 7 -9 3 -22 -6 -23 -5 -12 15 6 12 9 24 7 27 -3 2
-10 -4 -15 -14z"/>
<path d="M3114 5045 c-9 -37 0 -40 13 -5 6 17 7 30 2 30 -5 0 -11 -11 -15 -25z"/>
<path d="M3273 5053 c9 -2 17 -8 17 -12 0 -15 -29 -46 -36 -39 -4 4 -1 16 7
25 13 16 12 17 -4 4 -22 -17 -17 -36 9 -36 23 -1 34 13 34 43 0 17 -5 22 -22
21 -17 -1 -19 -2 -5 -6z"/>
<path d="M3320 5026 c-12 -33 -12 -36 -1 -36 10 0 25 50 17 58 -3 2 -10 -7
-16 -22z"/>
<path d="M3475 5028 c-9 -29 -9 -51 0 -54 6 -2 10 12 11 31 1 36 -3 44 -11 23z"/>
<path d="M3652 5028 c-17 -21 -19 -71 -3 -76 9 -3 11 0 6 7 -4 7 -1 26 5 42
14 32 9 47 -8 27z"/>
<path d="M3782 5008 c-6 -18 -13 -42 -18 -53 -7 -18 -6 -19 11 -5 14 11 19 12
22 3 3 -7 9 -13 14 -13 4 0 6 7 3 15 -4 8 0 23 7 33 11 14 11 15 -1 5 -23 -21
-32 -15 -25 17 9 40 -2 38 -13 -2z"/>
<path d="M3513 5000 c-6 -16 -8 -30 -3 -30 4 0 13 14 19 30 5 17 7 30 3 30 -4
0 -13 -13 -19 -30z"/>
<path d="M3551 4999 c-14 -41 -7 -49 11 -13 20 43 42 44 33 3 -5 -26 -4 -31 5
-23 19 18 8 59 -16 62 -17 2 -24 -5 -33 -29z"/>
<path d="M3900 4975 c-17 -25 -27 -45 -23 -45 10 1 49 30 40 30 -4 0 -3 9 3
20 14 27 32 25 30 -2 -4 -42 0 -64 8 -51 12 20 2 93 -14 93 -7 0 -27 -20 -44
-45z"/>
<path d="M3686 4988 c-3 -13 -1 -27 4 -32 7 -7 10 -4 10 6 0 9 3 23 6 32 3 9
2 16 -4 16 -5 0 -12 -10 -16 -22z"/>
<path d="M3735 4981 c-9 -18 -11 -31 -5 -31 11 0 34 50 26 57 -2 3 -12 -9 -21
-26z"/>
<path d="M4147 4985 c-4 -8 -18 -15 -31 -15 -15 0 -30 -8 -36 -19 -11 -22 -4
-51 13 -51 8 0 8 3 0 11 -16 16 -4 49 19 49 17 0 19 -5 13 -32 -9 -44 9 -25
25 25 12 37 9 64 -3 32z"/>
<path d="M3996 4964 c-3 -9 -6 -23 -5 -32 1 -10 4 -6 8 8 4 14 15 26 25 28 15
3 18 -1 14 -22 -6 -32 7 -35 16 -3 9 35 8 37 -23 37 -17 0 -31 -6 -35 -16z"/>
<path d="M5356 4954 c-9 -22 -8 -39 5 -71 9 -23 12 -25 19 -12 6 10 6 29 0 49
-5 18 -7 37 -4 41 3 5 1 9 -4 9 -6 0 -13 -7 -16 -16z"/>
<path d="M4197 4953 c22 -4 22 -6 7 -29 -14 -21 -14 -24 -1 -24 12 0 26 27 27
53 0 4 -12 6 -27 6 -24 -2 -25 -2 -6 -6z"/>
<path d="M2963 4927 c-6 -12 -14 -30 -17 -39 -6 -20 -36 -25 -36 -6 0 6 8 20
18 31 16 19 16 20 -5 8 -15 -7 -23 -21 -23 -36 0 -21 5 -25 29 -25 25 0 30 5
39 42 13 48 10 58 -5 25z"/>
<path d="M5543 4925 c34 -20 35 -29 2 -21 -14 4 -25 2 -25 -4 0 -11 36 -12 63
-1 16 6 17 9 5 18 -7 6 -27 14 -43 18 l-30 6 28 -16z"/>
<path d="M5640 4920 c-17 -13 -20 -20 -10 -20 8 0 21 9 28 20 15 25 13 25 -18
0z"/>
<path d="M3187 4885 c-9 -24 -12 -47 -7 -50 4 -2 11 5 14 18 l7 22 11 -22 c6
-13 15 -23 20 -23 12 0 10 14 -4 28 -9 9 -6 18 13 39 l24 27 -27 -17 c-35 -22
-37 -21 -31 3 10 38 -5 20 -20 -25z"/>
<path d="M4160 4910 c0 -11 4 -20 8 -20 4 0 8 9 8 20 0 11 -4 20 -8 20 -4 0
-8 -9 -8 -20z"/>
<path d="M3030 4902 c0 -6 -10 -12 -22 -14 -33 -4 -37 -38 -5 -38 18 0 27 7
31 26 4 15 5 29 1 32 -3 3 -5 0 -5 -6z m-10 -32 c0 -5 -7 -10 -15 -10 -8 0
-15 5 -15 10 0 6 7 10 15 10 8 0 15 -4 15 -10z"/>
<path d="M3061 4886 c-6 -16 -10 -31 -7 -33 7 -8 28 37 23 50 -3 7 -10 -1 -16
-17z"/>
<path d="M3097 4898 c4 -7 6 -24 5 -38 -2 -20 -1 -22 7 -10 16 23 13 60 -5 60
-10 0 -12 -5 -7 -12z"/>
<path d="M3351 4859 c-17 -57 -7 -60 12 -5 9 26 12 46 8 46 -4 0 -13 -18 -20
-41z"/>
<path d="M3272 4868 c-18 -18 -14 -36 11 -49 18 -9 20 -9 10 2 -19 19 -16 26
9 25 14 -1 24 6 26 17 2 9 -1 17 -7 17 -6 0 -10 -6 -8 -12 1 -7 -5 -13 -13
-13 -8 0 -14 6 -12 13 3 15 -1 15 -16 0z"/>
<path d="M3384 4846 c-7 -31 1 -46 27 -46 20 0 44 43 35 64 -2 6 -9 -4 -16
-21 -16 -43 -44 -45 -35 -3 8 36 -2 41 -11 6z"/>
<path d="M3493 4853 c22 -6 12 -23 -13 -23 -10 0 -20 -7 -24 -15 -3 -8 -4 -15
-2 -15 3 0 11 -3 19 -6 18 -7 47 21 47 47 0 13 -7 19 -22 18 -18 -1 -19 -2 -5
-6z m2 -43 c-3 -5 -10 -10 -16 -10 -5 0 -9 5 -9 10 0 6 7 10 16 10 8 0 12 -4
9 -10z"/>
<path d="M3539 4824 c-5 -15 -7 -29 -5 -32 3 -3 10 7 15 21 5 14 16 27 23 30
8 4 7 6 -5 6 -10 1 -22 -10 -28 -25z"/>
<path d="M3603 4838 c-21 -27 -22 -36 -8 -48 13 -11 14 -10 9 4 -4 10 1 25 11
36 10 11 13 20 8 20 -6 0 -15 -6 -20 -12z"/>
<path d="M5179 4835 c-37 -20 -74 -73 -129 -183 -64 -128 -130 -218 -175 -236
-31 -13 -34 -18 -29 -45 5 -23 2 -31 -17 -41 -20 -11 -20 -13 -5 -22 15 -8 13
-12 -11 -37 -16 -15 -36 -30 -45 -34 -15 -5 -18 0 -18 31 0 21 -5 43 -12 50
-8 8 -9 12 -1 12 6 0 13 -5 15 -12 3 -7 12 -9 23 -5 17 7 17 8 -1 22 -31 23
-54 19 -54 -11 0 -24 -3 -25 -32 -19 -18 4 -40 8 -48 11 -8 2 -21 0 -29 -5
-12 -8 -10 -15 11 -39 13 -16 30 -45 37 -63 7 -19 18 -44 23 -56 6 -12 8 -28
5 -36 -3 -8 0 -20 6 -27 9 -10 9 -11 -1 -5 -11 6 -13 -1 -10 -31 3 -37 1 -39
-27 -42 -23 -2 -34 -12 -47 -38 -10 -19 -18 -42 -18 -50 0 -8 -7 -26 -16 -39
l-16 -24 -32 33 c-17 19 -50 39 -74 46 -40 12 -41 14 -22 27 25 17 26 48 3 63
-15 9 -13 10 12 8 39 -4 78 28 69 56 -10 31 -26 37 -46 19 -10 -9 -18 -11 -18
-6 0 6 7 16 15 23 24 20 18 28 -25 35 -40 7 -45 14 -31 50 5 11 3 28 -3 38 -8
12 -8 22 1 36 7 11 8 21 3 23 -5 2 -11 14 -13 28 -10 51 -19 67 -53 85 -28 15
-37 16 -43 6 -10 -16 -3 -96 11 -133 8 -22 6 -32 -11 -57 -12 -16 -21 -34 -21
-40 0 -14 23 -14 37 0 7 7 13 7 17 1 3 -6 2 -13 -3 -17 -7 -4 -7 -15 0 -33 20
-51 -15 -285 -53 -355 -9 -17 -8 -19 7 -14 9 4 25 7 35 7 11 0 17 7 16 18 -1
14 6 16 34 14 40 -4 77 -21 47 -22 -10 0 -15 -4 -12 -10 9 -15 22 -12 29 7 9
23 -21 45 -48 37 -20 -6 -20 -5 -4 12 17 17 19 17 62 -3 24 -12 46 -19 49 -16
11 10 -23 35 -71 53 -25 10 -48 23 -50 29 -7 20 61 6 105 -22 24 -15 47 -27
53 -27 14 0 12 -12 -6 -38 -9 -13 -26 -22 -42 -22 -25 -1 -26 -1 -7 -12 11 -6
22 -14 25 -18 3 -3 55 -16 115 -29 61 -13 140 -34 177 -47 67 -22 143 -29 167
-15 10 6 10 17 2 47 -12 45 -5 82 17 88 30 8 85 15 162 21 42 4 82 7 90 8 21
2 153 -14 163 -20 4 -3 4 -10 -2 -16 -16 -21 -1 -67 23 -68 82 -3 159 2 175
11 34 17 67 11 119 -22 55 -36 63 -48 32 -48 -16 0 -20 -7 -20 -36 0 -20 -9
-48 -20 -64 l-19 -27 82 -6 c92 -7 102 -1 113 60 l6 33 78 0 77 0 6 -37 c8
-45 -1 -52 -63 -54 l-45 -1 60 -14 c33 -7 83 -13 110 -14 28 0 91 -8 140 -17
150 -27 169 -20 201 63 15 39 20 44 49 44 43 0 125 28 152 52 35 33 48 73 33
108 -18 43 -59 62 -126 58 l-56 -4 -22 -54 -22 -55 -59 3 c-33 2 -116 14 -185
27 -69 13 -168 29 -220 35 -135 16 -133 15 -125 57 3 19 9 41 11 48 12 29
-103 79 -156 68 -41 -8 -90 -59 -90 -94 0 -34 -16 -47 -25 -19 -4 11 -10 18
-15 15 -5 -3 -7 -12 -3 -20 3 -8 1 -15 -5 -15 -13 0 -23 27 -16 45 5 11 -1 15
-19 15 -22 0 -27 6 -36 43 -5 23 -17 67 -26 97 -8 30 -13 65 -10 78 4 18 1 22
-17 21 -13 0 -18 -3 -12 -5 7 -3 10 -13 8 -22 -3 -9 7 -62 20 -117 21 -80 31
-105 53 -122 15 -12 24 -26 19 -30 -4 -4 -12 0 -17 9 -7 12 -18 15 -43 11 -30
-5 -38 -1 -65 28 -49 54 -56 80 -37 135 11 32 16 82 16 150 l0 102 31 6 c65
13 66 11 44 -61 -5 -14 -3 -23 3 -23 17 0 44 110 46 187 1 87 -17 82 197 52
103 -14 154 -18 161 -11 14 14 20 112 7 112 -5 0 -37 18 -71 40 -33 21 -85 45
-114 51 -52 12 -55 11 -80 -12 -14 -13 -47 -52 -72 -86 -46 -63 -56 -71 -66
-54 -3 4 -27 14 -53 20 -27 7 -65 17 -85 22 -33 8 -43 6 -79 -16 -50 -32 -46
-40 11 -20 50 18 50 18 50 7 0 -5 -19 -17 -42 -27 -34 -14 -39 -19 -23 -22 30
-7 43 -23 18 -23 -24 0 -33 -18 -33 -63 0 -17 -6 -38 -14 -46 -8 -9 -35 -56
-60 -106 -67 -133 -155 -233 -194 -221 -10 4 -32 19 -48 35 -52 51 -68 201
-21 186 7 -2 24 -6 39 -9 15 -4 37 -16 48 -28 l21 -22 29 34 c17 19 51 66 77
103 l47 68 -17 67 c-22 84 -21 94 3 123 20 25 27 11 10 -21 -11 -21 -3 -50 14
-50 7 0 25 13 40 29 16 16 39 32 52 35 31 8 31 22 -1 30 -22 6 -55 50 -55 75
0 19 128 141 147 141 11 0 24 -5 31 -12 19 -19 28 1 11 30 -34 62 -163 94
-230 57z m-853 -442 c-11 -11 -19 6 -11 24 8 17 8 17 12 0 3 -10 2 -21 -1 -24z
m524 -133 c0 -5 -4 -10 -10 -10 -5 0 -10 5 -10 10 0 6 5 10 10 10 6 0 10 -4
10 -10z m-13 -80 c-1 -48 -4 -57 -13 -45 -6 8 -16 15 -23 15 -6 0 -11 5 -11
10 0 7 -6 7 -20 0 -21 -11 -23 -8 -14 28 4 12 12 22 19 22 7 0 15 7 19 15 3 8
14 15 25 15 17 0 19 -7 18 -60z m-4 -101 c5 -4 4 -10 -2 -13 -6 -4 -15 4 -21
19 -14 36 -11 56 3 25 6 -14 15 -28 20 -31z m-462 -32 c-8 -8 -11 -7 -11 4 0
20 13 34 18 19 3 -7 -1 -17 -7 -23z m109 13 c0 -5 -4 -10 -10 -10 -5 0 -10 5
-10 10 0 6 5 10 10 10 6 0 10 -4 10 -10z m360 -60 c0 -5 -4 -10 -10 -10 -5 0
-10 5 -10 10 0 6 5 10 10 10 6 0 10 -4 10 -10z m-20 -20 c72 -19 143 -70 96
-70 -7 0 -19 -14 -26 -30 -16 -39 -23 -42 -57 -29 -15 7 -55 17 -88 24 l-60
11 0 40 c0 33 5 42 30 56 17 9 37 15 45 13 8 -2 35 -9 60 -15z m-460 -109 c0
-6 -4 -13 -10 -16 -5 -3 -10 1 -10 9 0 9 5 16 10 16 6 0 10 -4 10 -9z m1150
-62 c0 -6 -4 -7 -10 -4 -5 3 -10 11 -10 16 0 6 5 7 10 4 6 -3 10 -11 10 -16z"/>
<path d="M4790 4193 c0 -4 5 -15 10 -23 8 -13 10 -13 10 2 0 9 -4 20 -10 23
-5 3 -10 3 -10 -2z"/>
<path d="M4744 3950 c-33 -13 -37 -28 -12 -43 33 -21 94 -30 118 -17 26 14 25
24 -2 50 -23 21 -67 25 -104 10z m88 -24 c11 -16 -1 -26 -31 -26 -35 0 -56 21
-39 38 13 13 59 5 70 -12z"/>
<path d="M3635 4801 c-5 -33 -11 -41 -33 -44 l-27 -4 27 -2 c29 -1 40 12 52
62 3 15 2 27 -3 27 -5 0 -12 -18 -16 -39z"/>
<path d="M3703 4833 c24 -6 21 -21 -5 -25 -31 -4 -30 -33 1 -33 18 0 26 7 32
27 8 31 3 38 -25 37 -17 -1 -18 -2 -3 -6z m7 -43 c0 -5 -7 -10 -15 -10 -8 0
-15 5 -15 10 0 6 7 10 15 10 8 0 15 -4 15 -10z"/>
<path d="M5520 4832 c0 -6 5 -14 10 -17 14 -9 50 4 50 17 0 6 -6 6 -15 -2 -12
-10 -18 -10 -30 0 -9 8 -15 9 -15 2z"/>
<path d="M6305 4716 c-49 -21 -68 -51 -73 -111 -2 -30 -1 -55 4 -55 4 0 18 12
30 27 17 21 29 27 58 26 52 -1 96 -22 107 -50 7 -19 13 -22 35 -17 24 6 26 5
19 -17 l-7 -24 27 26 c54 53 40 165 -23 191 -41 16 -143 19 -177 4z"/>
<path d="M5340 4660 c-9 -6 -10 -10 -3 -10 6 0 15 5 18 10 8 12 4 12 -15 0z"/>
<path d="M5400 4660 c0 -5 5 -10 10 -10 6 0 10 5 10 10 0 6 -4 10 -10 10 -5 0
-10 -4 -10 -10z"/>
<path d="M5320 4630 c-13 -8 -12 -10 3 -10 9 0 17 5 17 10 0 12 -1 12 -20 0z"/>
<path d="M4440 4510 c0 -5 4 -10 9 -10 6 0 13 5 16 10 3 6 -1 10 -9 10 -9 0
-16 -4 -16 -10z"/>
<path d="M6295 4510 c3 -5 11 -10 16 -10 6 0 7 5 4 10 -3 6 -11 10 -16 10 -6
0 -7 -4 -4 -10z"/>
<path d="M6397 4483 c6 -15 13 -16 31 -4 10 6 7 10 -11 13 -18 4 -24 1 -20 -9z"/>
<path d="M4410 4460 c-21 -30 -18 -45 8 -44 12 0 22 -5 22 -13 0 -8 5 -11 10
-8 6 3 10 24 10 46 0 31 -4 39 -18 39 -10 0 -24 -9 -32 -20z"/>
<path d="M5910 4442 c0 -4 9 -8 20 -9 11 -1 18 2 15 8 -7 11 -35 12 -35 1z"/>
<path d="M6265 4420 c10 -11 20 -18 23 -16 5 6 -23 36 -34 36 -4 0 1 -9 11
-20z"/>
<path d="M5893 4404 c-19 -20 -16 -34 7 -34 11 0 20 -5 20 -11 0 -8 5 -8 15 1
11 9 12 16 5 25 -5 6 -6 16 -2 20 4 5 1 5 -7 0 -7 -4 -16 -3 -20 3 -4 6 -11 5
-18 -4z"/>
<path d="M6340 4399 c0 -5 9 -9 19 -9 11 0 22 4 25 9 3 5 -6 9 -19 9 -14 0
-25 -4 -25 -9z"/>
<path d="M6336 4334 c-17 -12 -17 -14 -4 -14 9 0 20 5 23 11 11 17 2 18 -19 3z"/>
<path d="M5445 4140 c-3 -5 -1 -10 4 -10 6 0 11 5 11 10 0 6 -2 10 -4 10 -3 0
-8 -4 -11 -10z"/>
<path d="M2674 4114 c-52 -25 -71 -97 -36 -132 13 -13 52 -23 133 -35 63 -9
221 -32 352 -51 219 -33 241 -35 267 -21 67 34 76 124 17 150 -18 8 -117 26
-222 40 -104 14 -251 35 -326 45 -162 24 -146 23 -185 4z m271 -89 c214 -33
245 -39 245 -53 0 -12 -9 -13 -47 -8 -27 4 -63 7 -81 6 -18 0 -38 3 -45 7 -7
4 -21 9 -32 10 -64 6 -116 17 -121 24 -11 18 8 31 35 24 14 -4 35 -9 46 -10z"/>
<path d="M5773 4095 c16 -14 33 -23 38 -20 5 3 18 1 30 -5 11 -7 23 -9 26 -6
5 5 -102 56 -116 56 -3 0 7 -12 22 -25z"/>
<path d="M5920 4089 c0 -5 8 -9 18 -9 9 0 35 -3 57 -5 28 -4 34 -3 20 3 -32
14 -95 22 -95 11z"/>
<path d="M6063 4063 c9 -2 23 -2 30 0 6 3 -1 5 -18 5 -16 0 -22 -2 -12 -5z"/>
<path d="M4187 3700 c-28 -74 -39 -200 -17 -200 5 0 7 13 4 28 -3 16 2 56 11
89 9 33 15 69 13 79 -4 15 -6 16 -11 4z"/>
<path d="M5908 3543 c7 -3 16 -2 19 1 4 3 -2 6 -13 5 -11 0 -14 -3 -6 -6z"/>
<path d="M5166 3489 c-9 -29 -16 -60 -15 -68 0 -9 9 13 20 48 10 36 17 67 14
69 -2 2 -11 -20 -19 -49z"/>
<path d="M5136 3371 c-4 -7 -5 -15 -2 -18 9 -9 19 4 14 18 -4 11 -6 11 -12 0z"/>
<path d="M2391 3314 c0 -11 3 -14 6 -6 3 7 2 16 -1 19 -3 4 -6 -2 -5 -13z"/>
<path d="M6262 3300 c0 -14 2 -19 5 -12 2 6 2 18 0 25 -3 6 -5 1 -5 -13z"/>
<path d="M2415 3299 c-4 -6 -5 -12 -2 -15 2 -3 7 2 10 11 7 17 1 20 -8 4z"/>
<path d="M2440 3301 c0 -5 5 -13 10 -16 6 -3 10 -2 10 4 0 5 -4 13 -10 16 -5
3 -10 2 -10 -4z"/>
<path d="M2482 3288 c-7 -7 -11 -21 -11 -32 1 -21 1 -21 6 -1 3 11 10 26 15
33 13 15 6 16 -10 0z"/>
<path d="M2508 3265 c-3 -13 -2 -22 2 -20 11 7 20 45 10 45 -4 0 -10 -11 -12
-25z"/>
<path d="M2632 3270 c-7 -11 -12 -28 -12 -37 1 -10 7 -3 16 16 16 38 14 50 -4
21z"/>
<path d="M2567 3258 c-8 -29 -4 -32 11 -8 6 10 8 21 3 24 -5 3 -11 -4 -14 -16z"/>
<path d="M2660 3255 c-6 -8 -10 -20 -7 -27 4 -8 6 -7 6 4 1 9 9 22 19 27 9 6
12 11 6 11 -6 0 -17 -7 -24 -15z"/>
<path d="M2686 3235 c-9 -26 -7 -32 5 -12 6 10 9 21 6 23 -2 3 -7 -2 -11 -11z"/>
<path d="M2748 3225 c-3 -14 -1 -25 3 -25 5 0 9 4 9 9 0 5 3 16 6 25 3 9 2 16
-4 16 -5 0 -12 -11 -14 -25z"/>
<path d="M2785 3240 c3 -5 8 -10 11 -10 2 0 4 5 4 10 0 6 -5 10 -11 10 -5 0
-7 -4 -4 -10z"/>
<path d="M2844 3220 c0 -13 4 -16 10 -10 7 7 7 13 0 20 -6 6 -10 3 -10 -10z"/>
<path d="M2817 3223 c-4 -3 -7 -13 -7 -22 1 -13 3 -13 11 2 11 19 8 33 -4 20z"/>
<path d="M2910 3220 c0 -5 4 -10 9 -10 6 0 13 5 16 10 3 6 -1 10 -9 10 -9 0
-16 -4 -16 -10z"/>
<path d="M2953 3208 c-15 -25 -11 -35 13 -30 13 2 24 8 24 13 0 5 -7 6 -15 3
-8 -4 -15 -2 -15 4 0 6 6 13 13 15 9 4 9 6 0 6 -6 1 -15 -5 -20 -11z"/>
<path d="M6226 3204 c-4 -9 -4 -19 -2 -21 8 -8 26 8 26 23 0 19 -16 18 -24 -2z"/>
<path d="M3015 3200 c-3 -5 -1 -10 4 -10 6 0 11 5 11 10 0 6 -2 10 -4 10 -3 0
-8 -4 -11 -10z"/>
<path d="M2911 3184 c0 -11 3 -14 6 -6 3 7 2 16 -1 19 -3 4 -6 -2 -5 -13z"/>
<path d="M3057 3193 c-10 -10 -8 -23 4 -23 5 0 8 4 4 9 -3 5 3 12 12 14 14 4
15 5 2 6 -9 0 -19 -2 -22 -6z"/>
<path d="M3115 3179 c-4 -6 -5 -12 -2 -15 2 -3 7 2 10 11 7 17 1 20 -8 4z"/>
<path d="M3180 3169 c0 -5 5 -7 10 -4 6 3 10 8 10 11 0 2 -4 4 -10 4 -5 0 -10
-5 -10 -11z"/>
<path d="M3210 3155 c-6 -15 -8 -30 -6 -33 3 -3 10 8 16 23 6 15 8 30 6 33 -3
3 -10 -8 -16 -23z"/>
<path d="M3288 3153 c7 -3 16 -2 19 1 4 3 -2 6 -13 5 -11 0 -14 -3 -6 -6z"/>
<path d="M2330 3139 c0 -5 5 -7 10 -4 6 3 10 8 10 11 0 2 -4 4 -10 4 -5 0 -10
-5 -10 -11z"/>
<path d="M3290 3119 c0 -11 5 -17 10 -14 6 3 10 13 10 21 0 8 -4 14 -10 14 -5
0 -10 -9 -10 -21z"/>
<path d="M2366 3113 c-6 -14 -5 -15 5 -6 7 7 10 15 7 18 -3 3 -9 -2 -12 -12z"/>
<path d="M3465 3120 c-3 -5 -1 -10 4 -10 6 0 11 5 11 10 0 6 -2 10 -4 10 -3 0
-8 -4 -11 -10z"/>
<path d="M3496 3117 c3 -10 9 -15 12 -12 3 3 0 11 -7 18 -10 9 -11 8 -5 -6z"/>
<path d="M2320 3104 c0 -8 5 -12 10 -9 6 4 8 11 5 16 -9 14 -15 11 -15 -7z"/>
<path d="M2390 3106 c0 -8 4 -17 9 -20 5 -4 7 3 4 14 -6 23 -13 26 -13 6z"/>
<path d="M3571 3094 c0 -11 3 -14 6 -6 3 7 2 16 -1 19 -3 4 -6 -2 -5 -13z"/>
<path d="M2500 3084 c-24 -13 -24 -14 -4 -14 12 0 24 7 28 15 3 8 4 15 3 14
-1 -1 -13 -7 -27 -15z"/>
<path d="M3605 3090 c-3 -6 1 -7 9 -4 18 7 21 14 7 14 -6 0 -13 -4 -16 -10z"/>
<path d="M3636 3066 c-4 -19 -12 -37 -19 -39 -9 -4 -9 -6 1 -6 7 -1 20 15 28
34 16 40 17 45 5 45 -5 0 -12 -15 -15 -34z"/>
<path d="M4058 3083 c6 -2 18 -2 25 0 6 3 1 5 -13 5 -14 0 -19 -2 -12 -5z"/>
<path d="M2666 3071 c-4 -7 -5 -15 -2 -18 9 -9 19 4 14 18 -4 11 -6 11 -12 0z"/>
<path d="M3525 3070 c3 -5 8 -10 11 -10 2 0 4 5 4 10 0 6 -5 10 -11 10 -5 0
-7 -4 -4 -10z"/>
<path d="M2750 3059 c0 -5 5 -7 10 -4 6 3 10 8 10 11 0 2 -4 4 -10 4 -5 0 -10
-5 -10 -11z"/>
<path d="M3561 3054 c0 -11 3 -14 6 -6 3 7 2 16 -1 19 -3 4 -6 -2 -5 -13z"/>
<path d="M3700 3055 c0 -8 5 -15 10 -15 6 0 10 7 10 15 0 8 -4 15 -10 15 -5 0
-10 -7 -10 -15z"/>
<path d="M2605 3050 c3 -5 8 -10 11 -10 2 0 4 5 4 10 0 6 -5 10 -11 10 -5 0
-7 -4 -4 -10z"/>
<path d="M2814 3039 c-3 -6 1 -18 10 -27 10 -11 16 -12 16 -4 0 7 -5 12 -11
12 -6 0 -9 7 -5 15 6 17 0 20 -10 4z"/>
<path d="M2880 3035 c-11 -13 -11 -18 0 -28 10 -9 11 -9 6 1 -4 7 -2 19 4 27
7 8 10 15 7 15 -2 0 -10 -7 -17 -15z"/>
<path d="M2916 3024 c-4 -14 -5 -28 -3 -31 3 -2 8 8 11 23 4 14 5 28 3 31 -3
2 -8 -8 -11 -23z"/>
<path d="M3010 3010 c-6 -12 -9 -24 -7 -27 3 -2 11 5 17 17 6 12 9 24 7 27 -3
2 -11 -5 -17 -17z"/>
<path d="M2940 2996 c0 -2 7 -7 16 -10 8 -3 12 -2 9 4 -6 10 -25 14 -25 6z"/>
<path d="M4740 2700 c0 -5 5 -10 10 -10 6 0 10 5 10 10 0 6 -4 10 -10 10 -5 0
-10 -4 -10 -10z"/>
<path d="M4950 2485 c0 -32 3 -56 6 -52 3 3 6 26 6 52 0 26 -3 49 -6 53 -3 3
-6 -21 -6 -53z"/>
<path d="M5290 2481 c0 -5 10 -11 23 -15 38 -10 43 -7 13 9 -33 17 -36 18 -36
6z"/>
<path d="M5230 2380 c0 -5 5 -10 10 -10 6 0 10 5 10 10 0 6 -4 10 -10 10 -5 0
-10 -4 -10 -10z"/>
<path d="M5783 2253 c9 -2 25 -2 35 0 9 3 1 5 -18 5 -19 0 -27 -2 -17 -5z"/>
<path d="M12920 3050 c0 -5 6 -10 14 -10 8 0 18 5 21 10 3 6 -3 10 -14 10 -12
0 -21 -4 -21 -10z"/>
<path d="M13111 2961 c-7 -5 -22 -6 -32 -4 -10 3 -19 0 -19 -6 0 -12 41 -14
90 -5 22 5 28 9 18 15 -17 11 -39 11 -57 0z"/>
<path d="M12780 2910 c0 -5 14 -10 31 -10 17 0 28 4 24 10 -3 6 -17 10 -31 10
-13 0 -24 -4 -24 -10z"/>
<path d="M12950 2810 c0 -5 14 -10 30 -10 17 0 30 5 30 10 0 6 -13 10 -30 10
-16 0 -30 -4 -30 -10z"/>
<path d="M13620 2780 c0 -5 6 -10 14 -10 8 0 18 5 21 10 3 6 -3 10 -14 10 -12
0 -21 -4 -21 -10z"/>
<path d="M13548 2774 c-4 -3 -26 -7 -50 -9 -56 -4 -56 -4 -38 -15 14 -10 125
-3 144 8 5 3 1 9 -10 13 -24 10 -39 11 -46 3z"/>
<path d="M12625 2771 c-6 -11 42 -27 52 -17 8 8 3 12 -24 20 -12 4 -24 2 -28
-3z"/>
<path d="M13025 2690 c28 -12 67 -12 60 0 -3 6 -23 10 -43 9 -30 0 -33 -2 -17
-9z"/>
<path d="M12695 2640 c28 -12 75 -12 75 0 0 6 -21 10 -47 9 -36 0 -43 -3 -28
-9z"/>
<path d="M12790 2510 c8 -5 20 -10 25 -10 6 0 3 5 -5 10 -8 5 -19 10 -25 10
-5 0 -3 -5 5 -10z"/>
<path d="M7925 2330 c3 -5 10 -10 16 -10 5 0 9 5 9 10 0 6 -7 10 -16 10 -8 0
-12 -4 -9 -10z"/>
<path d="M8073 2273 c-9 -3 -10 -10 -4 -21 7 -14 1 -21 -30 -36 -26 -13 -36
-23 -30 -29 7 -7 15 -6 25 2 25 21 89 51 111 52 12 0 6 5 -15 11 -19 5 -37 13
-40 17 -3 5 -11 6 -17 4z"/>
<path d="M8838 2232 c-24 -5 -23 -19 3 -27 26 -8 91 3 84 14 -6 10 -61 18 -87
13z"/>
<path d="M9140 2230 c-8 -5 -11 -13 -6 -17 5 -4 11 -2 13 5 3 6 11 12 19 12 9
0 12 -4 9 -10 -3 -5 -2 -10 4 -10 17 0 21 18 5 24 -21 8 -26 7 -44 -4z"/>
<path d="M7650 2146 c0 -2 7 -7 16 -10 8 -3 12 -2 9 4 -6 10 -25 14 -25 6z"/>
<path d="M8355 2100 c28 -12 37 -12 30 0 -3 6 -16 10 -28 9 -21 0 -21 -1 -2
-9z"/>
<path d="M7860 2040 c0 -5 6 -10 13 -10 6 0 30 -3 52 -5 l40 -5 -45 15 c-54
18 -60 18 -60 5z"/>
<path d="M8105 1984 c60 -16 88 -17 80 -5 -3 5 2 11 11 13 10 2 -18 3 -62 4
l-79 1 50 -13z"/>
<path d="M7586 1958 c3 -5 10 -6 15 -3 13 9 11 12 -6 12 -8 0 -12 -4 -9 -9z"/>
<path d="M8193 1873 c-58 -29 -37 -49 72 -72 28 -6 90 -20 140 -31 51 -11 103
-17 122 -14 40 7 72 39 55 56 -12 12 -292 77 -332 77 -14 0 -40 -8 -57 -16z
m184 -45 c29 -7 53 -17 53 -21 0 -8 -18 -7 -109 7 -19 3 -27 26 -10 26 8 0 37
-6 66 -12z"/>
<path d="M7165 1740 c-3 -6 1 -7 9 -4 18 7 21 14 7 14 -6 0 -13 -4 -16 -10z"/>
<path d="M7939 1553 c-13 -16 -12 -17 4 -4 16 13 21 21 13 21 -2 0 -10 -8 -17
-17z"/>
<path d="M7980 1556 c0 -2 7 -9 15 -16 9 -7 15 -8 15 -2 0 5 -7 12 -15 16 -8
3 -15 4 -15 2z"/>
<path d="M7238 1283 c7 -3 16 -2 19 1 4 3 -2 6 -13 5 -11 0 -14 -3 -6 -6z"/>
<path d="M7724 1201 c4 -5 0 -12 -6 -14 -10 -4 -10 -6 0 -6 7 -1 20 6 28 14
14 13 13 15 -6 15 -12 0 -19 -4 -16 -9z"/>
<path d="M14868 2663 c7 -3 16 -2 19 1 4 3 -2 6 -13 5 -11 0 -14 -3 -6 -6z"/>
<path d="M14985 2630 c3 -5 11 -10 16 -10 6 0 7 5 4 10 -3 6 -11 10 -16 10 -6
0 -7 -4 -4 -10z"/>
<path d="M14456 2615 c-3 -8 -1 -15 4 -15 13 0 22 18 11 24 -5 3 -11 -1 -15
-9z"/>
<path d="M15035 2581 c-6 -11 13 -26 22 -17 4 3 1 6 -6 6 -7 0 -9 5 -6 10 3 6
4 10 1 10 -3 0 -7 -4 -11 -9z"/>
<path d="M15078 2573 c6 -2 18 -2 25 0 6 3 1 5 -13 5 -14 0 -19 -2 -12 -5z"/>
</g>
</svg>
