<?xml version="1.0" standalone="no"?>
<!DOCTYPE svg PUBLIC "-//W3C//DTD SVG 20010904//EN"
 "http://www.w3.org/TR/2001/REC-SVG-20010904/DTD/svg10.dtd">
<svg version="1.0" xmlns="http://www.w3.org/2000/svg"
 width="1024.000000pt" height="523.000000pt" viewBox="0 0 1024.000000 523.000000"
 preserveAspectRatio="xMidYMid meet">

<g transform="translate(0.000000,523.000000) scale(0.100000,-0.100000)"
fill="#000000" stroke="none">
<path d="M6685 5203 c-80 -19 -111 -62 -102 -139 6 -54 30 -83 78 -93 40 -8
52 -42 47 -129 l-3 -57 -35 2 c-274 19 -920 68 -1343 103 -89 8 -123 7 -140
-2 -19 -11 -20 -13 -4 -16 20 -4 23 -28 5 -35 -7 -2 -3 -2 10 0 12 2 22 1 22
-2 0 -3 -10 -10 -22 -15 -22 -8 -22 -9 5 -9 16 -1 26 -5 22 -11 -3 -6 -36 -8
-78 -4 -40 2 -229 16 -422 29 -192 14 -417 30 -498 36 -132 10 -170 9 -156 -5
2 -3 72 -9 154 -15 186 -13 471 -35 805 -61 283 -22 573 -43 905 -65 121 -8
245 -17 275 -20 30 -3 181 -14 335 -25 302 -22 635 -45 781 -56 l92 -7 6 -71
c4 -39 15 -208 26 -376 29 -448 41 -614 45 -620 2 -3 22 -4 45 -2 l42 4 -6 77
c-4 42 -13 175 -21 296 -16 254 -33 500 -44 664 -10 143 -12 146 -143 155 -51
3 -159 11 -240 18 l-148 11 0 61 c0 34 3 77 6 97 6 36 8 37 60 43 29 3 64 11
77 17 58 26 76 125 32 177 -18 22 -39 32 -81 41 -55 11 -348 14 -389 4z m414
-95 c-11 -20 -25 -23 -34 -8 -9 15 3 29 24 27 16 -1 17 -5 10 -19z m-436 -18
c3 -11 1 -20 -4 -20 -5 0 -9 9 -9 20 0 11 2 20 4 20 2 0 6 -9 9 -20z m432 -20
c-3 -5 -11 -10 -16 -10 -6 0 -7 5 -4 10 3 6 11 10 16 10 6 0 7 -4 4 -10z
m-1860 -190 c18 -8 17 -9 -7 -9 -16 -1 -28 4 -28 9 0 12 8 12 35 0z m38 -27
c-7 -2 -21 -2 -30 0 -10 3 -4 5 12 5 17 0 24 -2 18 -5z"/>
<path d="M3923 4965 l-34 -34 3 -396 c3 -345 1 -396 -12 -399 -8 -3 -51 -7
-95 -11 -44 -4 -147 -15 -230 -26 -180 -23 -208 -23 -248 -5 -33 15 -168 68
-297 116 -41 16 -97 38 -123 50 -27 12 -51 19 -54 16 -4 -3 -4 -7 -2 -9 4 -4
124 -50 252 -98 45 -17 105 -41 132 -54 28 -13 59 -26 70 -30 18 -7 17 -8 -10
-16 -16 -5 -81 -16 -145 -25 -117 -17 -142 -26 -134 -47 2 -7 5 -183 7 -393 2
-209 7 -386 11 -392 3 -6 1 -14 -5 -18 -6 -3 -15 0 -20 7 -6 10 -9 11 -9 2 0
-7 -9 -13 -19 -13 -15 0 -23 -13 -36 -57 -9 -32 -18 -62 -21 -68 -7 -15 4 47
11 68 4 10 3 17 -4 17 -6 0 -11 -6 -11 -12 0 -7 -5 -5 -11 5 -14 23 -46 22
-59 -3 -8 -16 -21 -20 -60 -20 -28 0 -50 -4 -50 -10 0 -5 -20 -10 -44 -10 -40
0 -44 -2 -49 -27 -8 -42 -36 -111 -37 -89 0 29 60 199 78 220 9 11 12 16 5 13
-6 -4 -14 -3 -18 3 -3 5 -14 10 -24 10 -18 0 -26 -20 -69 -169 -8 -28 -32 -40
-32 -17 0 9 7 16 15 16 8 0 15 9 15 20 0 25 -21 26 -37 1 -14 -22 -60 -17 -66
8 -3 11 -5 9 -6 -6 -1 -18 4 -23 24 -23 15 0 25 -6 25 -15 0 -11 -6 -12 -22
-6 -13 5 -33 5 -46 0 -14 -6 -30 -5 -40 1 -14 8 -12 9 10 10 23 0 27 5 34 43
5 23 8 49 9 57 0 8 5 22 10 30 6 8 15 37 20 64 11 53 31 74 61 61 11 -4 31 -7
45 -6 18 2 33 -6 47 -23 13 -17 30 -26 48 -26 49 0 73 -11 76 -34 2 -17 11
-22 46 -24 23 -2 42 -8 42 -14 0 -6 11 -8 25 -6 14 3 25 1 25 -3 0 -5 7 -9 16
-9 14 0 14 3 4 15 -10 12 -10 15 4 15 19 0 22 19 4 25 -7 2 -30 6 -50 10 l-38
6 0 213 c0 117 -3 355 -7 529 l-6 316 -71 25 c-82 28 -125 26 -127 -8 -1 -17
-2 -17 -6 -3 -2 9 -10 17 -16 17 -10 0 -127 -23 -262 -51 -100 -20 -203 -40
-360 -69 -261 -47 -368 -70 -389 -85 -17 -13 -19 -42 -23 -587 -2 -315 -6
-578 -8 -584 -5 -15 51 -24 65 -10 7 7 10 6 10 -2 0 -7 8 -12 18 -12 10 0 23
-5 29 -11 7 -7 13 -7 17 -1 3 6 33 2 77 -10 39 -10 77 -17 83 -15 6 2 16 -2
23 -9 7 -6 44 -15 83 -19 38 -4 73 -11 76 -16 3 -5 22 -7 41 -3 27 5 34 4 28
-6 -5 -8 -1 -11 11 -8 11 2 24 -2 29 -9 6 -7 37 -18 70 -23 33 -6 69 -15 80
-20 11 -5 27 -11 35 -13 10 -4 8 -6 -5 -6 -12 -1 -26 -6 -31 -11 -10 -10 -94
-2 -172 15 -26 6 -29 2 -71 -141 l-31 -100 -77 -33 c-112 -46 -151 -68 -133
-75 8 -2 48 -12 88 -21 64 -13 75 -14 88 -1 17 18 53 30 62 22 3 -4 -5 -14
-18 -23 l-24 -17 24 -7 c51 -14 60 -11 50 16 -11 28 0 32 45 15 19 -7 25 -16
23 -32 -3 -20 5 -24 102 -44 58 -12 184 -41 280 -63 96 -23 217 -51 269 -61
51 -11 105 -23 120 -26 63 -15 91 -16 91 -5 0 7 4 10 8 7 5 -3 12 -144 16
-313 4 -180 11 -312 17 -319 7 -8 7 -14 -1 -19 -11 -7 -14 -164 -2 -181 4 -6
45 -19 92 -29 109 -22 112 -23 105 -35 -4 -6 -15 -6 -32 1 -14 5 -47 11 -74
12 -27 2 -52 6 -55 10 -14 14 -25 7 -19 -12 3 -11 1 -22 -5 -26 -5 -3 -10 -10
-10 -15 0 -9 128 -40 169 -40 14 -1 40 -7 56 -15 29 -14 29 -14 -20 -8 -27 3
-88 16 -135 29 -47 12 -89 20 -94 17 -5 -4 -6 -1 -2 5 5 8 -7 14 -34 18 -22 4
-40 10 -40 14 0 4 -18 10 -40 14 -23 3 -49 10 -58 15 -9 5 -39 16 -67 24 -192
56 -175 48 -175 83 0 17 -6 36 -13 42 -11 10 -361 120 -652 206 -334 99 -403
119 -429 118 -16 0 -43 10 -61 24 -18 13 -35 24 -40 24 -4 0 4 -9 19 -21 21
-17 24 -24 15 -35 -11 -14 -10 -15 14 -18 6 0 13 -13 15 -28 5 -41 -66 -89
-186 -126 -175 -55 -243 -66 -417 -67 -189 0 -326 6 -340 16 -5 4 -23 9 -40
12 -25 3 -23 4 11 6 22 0 87 -6 145 -15 157 -24 416 -3 596 49 l78 22 -3 40
-2 40 20 -24 20 -23 22 52 c17 42 23 49 31 35 6 -11 5 -26 -2 -42 -13 -29 -14
-33 -2 -33 5 0 15 14 24 32 14 30 14 34 -6 70 -14 23 -40 47 -70 64 -56 30
-75 27 -24 -5 18 -11 42 -29 52 -41 15 -17 16 -20 3 -20 -9 0 -18 6 -21 14
-10 25 -91 74 -153 91 -63 18 -90 37 -80 54 11 18 24 13 29 -11 2 -13 4 36 4
107 0 90 -2 114 -7 80 l-7 -50 -1 65 c-2 55 2 71 23 103 14 20 31 37 37 37 6
0 5 -6 -3 -17 -7 -10 -1 -7 14 6 29 26 35 36 15 26 -7 -4 -4 1 6 9 11 9 18 17
15 19 -6 6 -126 34 -176 42 -26 4 -44 13 -47 23 -3 9 10 64 29 121 19 58 35
111 35 118 0 7 4 21 10 31 5 9 17 37 25 62 13 41 13 46 -2 58 -9 6 -23 12 -30
12 -19 0 -17 12 22 135 36 113 42 145 26 145 -4 0 -26 14 -47 31 -22 17 -46
28 -56 26 -10 -3 -16 -2 -13 2 13 22 -184 41 -215 21 -12 -8 -9 -10 13 -10 32
0 34 -13 7 -40 -21 -21 -27 -50 -10 -50 6 0 18 10 28 21 35 44 67 69 87 69 17
0 17 -2 5 -10 -12 -8 -11 -10 5 -8 47 3 65 -2 65 -20 0 -17 -54 -109 -71 -122
-16 -12 -64 -103 -129 -245 -21 -47 -80 -231 -80 -252 0 -34 -26 -93 -41 -93
-23 0 -64 92 -51 116 5 9 8 43 5 73 -3 31 -1 72 4 91 12 42 -2 95 -17 70 -9
-13 -10 -13 -10 0 0 8 4 31 10 49 14 50 5 49 -13 -1 -8 -24 -36 -101 -62 -173
-62 -175 -95 -305 -95 -375 0 -35 -8 -76 -19 -102 -15 -37 -26 -47 -63 -61
-51 -20 -110 -74 -119 -108 -14 -59 34 -145 76 -136 11 3 37 12 58 21 56 25
44 10 -15 -19 -57 -27 -104 -82 -114 -133 -4 -19 2 -45 16 -76 12 -27 19 -50
16 -53 -8 -8 -26 7 -37 30 -5 12 -16 33 -24 47 l-15 25 0 -32 c0 -37 -22 -45
-39 -16 -9 15 -12 15 -20 4 -7 -11 -9 -11 -14 0 -3 8 -6 2 -6 -13 -1 -16 8
-36 22 -49 l22 -21 -22 11 c-12 6 -25 16 -28 21 -12 19 -26 10 -20 -11 5 -15
4 -19 -4 -15 -6 4 -11 1 -11 -8 0 -8 8 -20 18 -26 14 -9 12 -10 -11 -5 -52 11
-84 -54 -41 -82 14 -9 23 -22 20 -30 -5 -12 114 -162 136 -171 4 -2 8 -12 8
-22 0 -22 36 -50 65 -50 11 0 40 -9 64 -20 24 -11 46 -19 48 -17 2 2 -3 17
-12 33 -16 31 -19 53 -9 79 5 12 9 13 14 4 10 -15 60 -22 60 -8 0 5 11 7 25 3
29 -7 35 15 10 36 -13 11 -14 10 -9 -5 7 -16 5 -16 -26 0 -18 9 -43 15 -55 13
-17 -4 -21 -1 -18 13 3 12 20 21 47 27 39 8 42 7 61 -22 10 -17 22 -33 25 -36
4 -3 17 -24 30 -48 21 -37 22 -45 10 -53 -13 -8 -13 -10 0 -18 12 -8 11 -13
-5 -31 -11 -12 -15 -24 -9 -29 21 -21 192 -61 307 -72 128 -12 345 -7 390 10
20 8 27 7 31 -5 8 -21 8 -26 -2 -20 -12 7 -52 -23 -52 -39 0 -9 -6 -12 -15 -9
-8 4 -15 1 -15 -5 0 -6 -7 -11 -16 -11 -8 0 -12 -5 -9 -10 3 -6 -2 -10 -12
-10 -11 0 -34 -11 -53 -25 -19 -14 -41 -25 -49 -25 -21 -1 -54 -47 -47 -66 3
-8 -1 -14 -11 -14 -9 0 -31 -11 -50 -26 -18 -14 -33 -22 -33 -19 0 3 -9 1 -21
-5 -12 -7 -18 -18 -15 -26 3 -8 1 -12 -4 -9 -5 3 -22 -1 -37 -9 -16 -8 -41
-12 -56 -9 -26 5 -77 -18 -77 -36 0 -4 8 -18 19 -29 20 -24 46 -29 56 -11 5 6
12 4 20 -7 11 -16 13 -15 20 15 5 24 3 36 -6 42 -26 16 18 21 48 6 15 -8 96
-41 178 -72 83 -31 177 -67 210 -80 33 -13 72 -27 88 -30 31 -8 32 -11 12 -31
-14 -14 -19 -11 -16 8 0 4 -38 19 -84 35 -79 25 -86 26 -101 11 -10 -10 -14
-24 -10 -33 6 -16 8 -16 32 0 23 15 28 15 69 0 24 -10 49 -14 56 -10 7 5 10 4
6 -2 -4 -6 0 -13 8 -17 8 -3 15 -15 15 -26 0 -11 6 -20 14 -20 8 0 16 -5 18
-12 5 -15 37 -3 45 17 10 28 -14 41 -37 20 -26 -23 -26 -11 0 25 l20 28 -33
15 c-17 8 -54 23 -82 33 -27 10 -43 20 -34 22 8 1 37 -6 63 -18 26 -11 56 -20
66 -20 21 0 44 -25 36 -38 -3 -6 4 -12 15 -15 15 -4 19 -2 15 9 -7 17 27 36
50 27 14 -5 16 -3 11 11 -5 12 -3 16 5 13 19 -6 92 34 136 75 27 25 43 33 53
27 25 -15 106 -10 154 11 53 23 59 24 50 10 -8 -13 8 -13 21 0 11 11 44 4 44
-9 0 -3 -16 -23 -36 -43 -24 -26 -30 -38 -20 -38 9 0 16 -4 16 -10 0 -14 28
-12 79 6 43 14 64 12 45 -5 -5 -5 -27 -14 -49 -21 -40 -13 -88 -50 -64 -50 7
0 20 -7 30 -16 16 -14 23 -13 89 10 39 14 75 26 81 26 5 0 9 -16 9 -35 0 -32
3 -35 28 -35 16 0 31 3 34 6 4 3 32 7 65 9 98 6 227 28 240 41 7 7 13 18 13
24 0 6 4 9 9 6 5 -3 12 6 15 20 11 41 30 54 80 54 42 0 46 -2 46 -23 0 -40 30
-57 98 -57 33 0 64 -4 67 -10 3 -5 35 -10 69 -10 44 0 67 -5 76 -15 9 -10 32
-15 74 -15 36 0 67 -5 74 -12 12 -12 73 -22 206 -34 l59 -6 48 54 c46 51 60
78 39 78 -5 0 -16 -13 -25 -30 -9 -17 -23 -30 -33 -29 -9 0 -12 3 -6 5 8 3 10
33 6 94 -2 50 -2 90 1 90 3 0 19 -5 34 -11 60 -24 69 -27 88 -32 62 -15 342
-120 360 -135 17 -15 83 -44 147 -65 9 -3 19 -1 22 6 2 7 5 4 5 -6 1 -13 7
-16 29 -12 15 3 21 2 13 -1 -19 -9 44 -35 64 -28 8 4 15 2 15 -4 0 -5 28 -19
63 -31 34 -12 110 -40 170 -63 59 -22 114 -37 122 -34 9 3 69 -14 134 -39 151
-56 216 -64 296 -37 88 29 159 58 262 108 51 24 95 44 99 44 9 0 190 76 294
124 128 58 265 116 277 116 18 0 17 8 -16 145 -54 226 -63 260 -71 276 -4 8
-13 42 -20 75 -7 32 -23 100 -37 149 -29 104 -39 149 -53 225 -6 30 -16 75
-24 100 l-14 45 0 -40 c1 -22 6 -43 11 -47 15 -9 -8 -59 -25 -56 -9 2 -12 -8
-10 -32 1 -19 3 -52 3 -72 2 -37 13 -50 22 -25 3 7 6 5 6 -5 1 -15 -8 -18 -44
-18 l-45 0 0 -80 0 -80 -74 0 c-66 0 -75 -2 -81 -20 -9 -28 -67 -27 -108 2
-18 12 -26 15 -20 7 7 -9 10 -19 6 -23 -4 -4 1 -4 11 0 14 5 17 4 12 -5 -5 -7
-1 -20 9 -31 12 -13 26 -17 58 -14 35 4 38 3 19 -6 -13 -5 -28 -8 -33 -4 -15
9 -10 -8 8 -28 21 -24 9 -36 -15 -15 -10 10 -22 17 -25 17 -4 0 -22 17 -42 37
-19 21 -35 32 -35 25 0 -7 7 -15 15 -18 8 -4 15 -12 15 -20 0 -15 -12 -19 -24
-7 -3 4 -14 8 -24 9 -9 2 -42 10 -72 18 -30 9 -116 32 -190 52 -263 72 -446
122 -550 152 -58 16 -118 33 -133 36 -15 4 -30 13 -33 20 -3 8 20 112 51 232
31 121 74 289 96 374 83 322 100 384 111 397 7 8 38 14 87 15 42 1 59 3 39 5
-21 2 -38 9 -38 15 0 11 71 2 80 -10 3 -4 55 -8 115 -8 85 -1 100 1 66 7 -59
11 -68 24 -11 14 25 -4 70 -10 100 -14 30 -3 66 -14 79 -23 17 -12 36 -15 76
-11 33 4 55 1 59 -6 4 -6 0 -11 -10 -11 -24 0 0 -27 29 -33 22 -4 22 -4 0 -6
-13 0 -23 -8 -23 -16 0 -11 11 -15 40 -15 22 0 40 -4 40 -10 0 -5 22 -10 49
-10 31 0 53 -5 61 -15 7 -8 19 -15 27 -15 8 0 36 -22 63 -50 29 -30 50 -45 53
-37 8 23 15 2 10 -30 -3 -20 -9 -30 -16 -26 -7 4 -8 0 -4 -11 4 -10 7 -22 7
-27 0 -5 5 -9 10 -9 6 0 10 12 10 26 0 14 4 23 8 20 5 -3 7 -18 5 -33 -2 -15
2 -37 11 -48 18 -25 32 -14 17 13 -29 54 -2 140 40 129 12 -3 19 0 19 9 0 8 7
14 16 14 12 0 15 -6 11 -21 -4 -17 -3 -19 6 -10 13 13 123 15 131 2 3 -4 29
-6 58 -4 34 3 48 1 40 -5 -8 -5 8 -7 43 -4 35 3 60 0 70 -8 9 -8 28 -10 55 -5
26 4 40 3 40 -4 0 -6 9 -11 20 -11 11 0 20 5 20 12 0 9 3 9 12 0 16 -16 58
-16 58 0 0 6 6 4 13 -6 10 -14 25 -16 77 -14 62 3 65 4 71 33 4 17 15 59 24
94 19 74 10 96 -36 86 -15 -3 -30 -2 -33 4 -4 5 -32 12 -64 15 -80 9 -180 24
-292 46 -52 10 -135 25 -185 34 -200 35 -319 60 -303 64 10 2 53 -3 95 -12 43
-8 96 -18 118 -21 64 -9 266 -46 323 -59 28 -7 52 -9 52 -5 0 5 2 58 4 118 l4
109 -53 4 c-29 1 -51 0 -48 -4 2 -5 -15 -8 -39 -8 l-43 0 27 25 c33 30 67 119
75 194 l6 58 67 16 c107 26 143 45 183 100 43 58 45 73 13 108 -19 20 -44 30
-115 44 -50 10 -91 23 -91 28 0 4 -7 1 -16 -7 -8 -9 -27 -16 -42 -16 -15 0
-38 -3 -51 -7 -15 -4 -22 -2 -18 4 4 6 25 13 48 17 65 10 39 18 -58 17 -57 0
-83 3 -73 9 12 8 12 10 -3 16 -9 3 -27 3 -40 -1 -12 -3 -74 -10 -137 -15 -115
-8 -236 -38 -252 -63 -4 -6 -8 -29 -8 -49 0 -30 8 -47 36 -78 20 -22 42 -40
49 -40 21 0 36 -25 23 -38 -11 -11 -29 -85 -64 -270 l-16 -82 -43 0 c-23 0
-70 -3 -104 -6 l-61 -7 0 27 c0 14 -6 35 -12 46 -10 16 -10 24 0 40 16 26 17
241 0 258 -8 8 -8 15 0 24 14 17 34 252 21 256 -11 5 -12 39 0 46 15 10 24
232 10 254 -10 16 -10 24 -1 34 7 9 13 69 17 151 l5 136 -28 19 c-34 24 -613
372 -695 419 -34 19 -82 38 -107 43 -41 8 -191 0 -326 -16 l-52 -6 -7 150 -7
150 -50 37 c-27 21 -53 46 -58 56 -6 10 -10 101 -10 203 0 167 -2 185 -17 189
-17 4 -17 5 0 6 9 0 17 5 17 10 0 5 7 17 16 25 9 10 11 16 4 16 -7 0 -28 -16
-47 -35z m17 -242 c0 -103 -2 -184 -4 -182 -9 9 -13 378 -5 373 5 -3 9 -89 9
-191z m10 -389 c0 -121 -3 -183 -10 -179 -6 4 -10 79 -10 191 0 121 3 183 10
179 6 -4 10 -79 10 -191z m-1713 -110 c-3 -3 -12 -4 -19 -1 -8 3 -5 6 6 6 11
1 17 -2 13 -5z m391 -66 l-1 -53 -7 45 -7 45 -1 -42 c-1 -23 3 -45 8 -48 6 -3
10 -50 10 -104 0 -109 -1 -111 -77 -111 -18 0 -33 -4 -33 -9 0 -4 -28 -11 -62
-14 -35 -3 -119 -13 -188 -22 -69 -9 -139 -13 -157 -10 -17 3 -33 1 -35 -4 -1
-5 -39 -12 -83 -15 -77 -5 -78 -5 -20 4 33 5 71 13 85 17 22 6 19 8 -20 13
l-45 6 47 4 c25 3 44 2 41 -2 -6 -11 9 -10 83 3 l63 11 3 41 3 42 85 1 c47 1
66 -1 43 -3 -24 -2 -43 -9 -43 -15 0 -7 32 -9 100 -6 59 3 100 1 100 -4 0 -6
-9 -12 -20 -15 -11 -3 -20 -9 -20 -14 0 -5 9 -9 20 -9 11 0 20 5 20 10 0 6 14
10 30 10 44 0 37 18 -12 30 -63 16 -68 20 -20 17 36 -2 42 0 42 18 0 35 12 65
25 65 19 0 23 18 18 72 -6 52 2 98 17 98 6 0 9 -24 8 -52z m-141 -80 c-3 -8
-6 -5 -6 6 -1 11 2 17 5 13 3 -3 4 -12 1 -19z m-717 -3 c0 -19 -37 -38 -80
-40 -19 -2 -48 -8 -63 -14 -37 -14 -37 -14 -37 8 0 25 19 39 50 37 14 -1 41 4
60 11 47 16 70 16 70 -2z m825 -217 c-174 -26 -350 -48 -373 -47 -26 1 32 10
272 43 66 9 121 18 124 21 3 2 10 1 16 -3 6 -3 -11 -10 -39 -14z m-412 -55
c-7 -2 -21 -2 -30 0 -10 3 -4 5 12 5 17 0 24 -2 18 -5z m-65 -10 c-10 -2 -26
-2 -35 0 -10 3 -2 5 17 5 19 0 27 -2 18 -5z m-75 -10 c-7 -2 -19 -2 -25 0 -7
3 -2 5 12 5 14 0 19 -2 13 -5z m-100 -10 c-7 -2 -19 -2 -25 0 -7 3 -2 5 12 5
14 0 19 -2 13 -5z m-56 -9 c-3 -3 -12 -4 -19 -1 -8 3 -5 6 6 6 11 1 17 -2 13
-5z m2543 -24 c9 -6 11 -10 3 -10 -7 0 -10 -7 -7 -15 5 -11 -2 -15 -27 -16
-19 0 -158 -8 -309 -18 -151 -10 -278 -16 -282 -14 -5 2 -8 13 -8 23 0 23 19
25 315 44 271 17 297 18 315 6z m115 -50 c4 -6 -8 -10 -29 -10 -20 0 -36 5
-36 10 0 6 13 10 29 10 17 0 33 -4 36 -10z m-2005 -45 l24 -25 -21 -28 c-26
-35 -57 -40 -76 -11 -16 23 -13 43 11 72 20 23 34 22 62 -8z m-208 -22 c23
-21 23 -34 -2 -61 -28 -29 -58 -28 -72 3 -25 55 29 98 74 58z m-200 -20 c22
-20 23 -41 1 -65 -31 -34 -73 -16 -73 32 0 47 37 65 72 33z m-189 -24 c19 -27
10 -58 -20 -72 -21 -9 -27 -8 -39 8 -18 25 -18 50 2 69 21 22 40 20 57 -5z
m104 -291 c-2 -35 -3 -7 -3 62 0 69 1 97 3 63 2 -35 2 -91 0 -125z m2370 15
c-4 -3 -2 -12 4 -19 16 -19 -20 -22 -319 -29 -144 -3 -268 -6 -275 -8 -6 -1
-13 10 -15 25 l-3 27 118 4 c251 6 496 7 490 0z m113 -39 c0 -11 -8 -14 -27
-12 -39 4 -42 28 -4 28 21 0 31 -5 31 -16z m-161 -286 l1 -68 -67 2 c-62 1
-64 2 -23 7 l45 6 7 55 c4 30 11 100 15 155 l7 100 7 -95 c4 -52 7 -125 8
-162z m-1372 150 c-3 -8 -6 -5 -6 6 -1 11 2 17 5 13 3 -3 4 -12 1 -19z m-950
-105 c-3 -10 -5 -2 -5 17 0 19 2 27 5 18 2 -10 2 -26 0 -35z m198 37 c-4 -6
11 -11 37 -11 24 -1 50 -2 60 -3 18 -1 37 -16 20 -16 -6 0 -19 -9 -29 -19 -12
-13 -35 -20 -71 -22 -28 -2 -52 -1 -52 2 0 10 38 18 73 15 18 -2 24 -1 15 1
-10 2 -18 8 -18 13 0 5 8 11 18 13 9 2 -3 2 -28 0 -25 -3 -48 -10 -52 -16 -6
-9 -8 -8 -8 1 0 20 19 52 31 52 6 0 7 -4 4 -10z m392 -52 c-3 -8 -6 -5 -6 6
-1 11 2 17 5 13 3 -3 4 -12 1 -19z m288 -24 c-18 -59 -30 -70 -20 -19 6 35 20
65 31 65 2 0 -3 -21 -11 -46z m-725 10 c0 -14 -4 -23 -9 -20 -5 3 -7 15 -4 26
7 28 13 25 13 -6z m190 16 c0 -5 -7 -10 -15 -10 -8 0 -15 5 -15 10 0 6 7 10
15 10 8 0 15 -4 15 -10z m-1257 -52 c-20 -39 -24 -32 -10 14 6 20 14 32 18 26
4 -5 0 -23 -8 -40z m1067 -2 c0 -3 -4 -8 -10 -11 -5 -3 -10 -1 -10 4 0 6 5 11
10 11 6 0 10 -2 10 -4z m3407 -42 c-3 -3 -12 -4 -19 -1 -8 3 -5 6 6 6 11 1 17
-2 13 -5z m488 -4 c-3 -5 -15 -10 -26 -10 -11 0 -17 5 -14 10 3 6 15 10 26 10
11 0 17 -4 14 -10z m-370 -15 l50 -13 -41 -1 c-23 0 -57 6 -75 14 -31 13 -31
14 -9 14 14 -1 48 -7 75 -14z m-1226 -23 c5 -8 12 -12 17 -10 5 1 10 -4 12
-13 2 -12 -6 -18 -30 -22 -18 -2 -34 -2 -35 2 -2 3 -146 5 -320 3 -174 -1
-322 -1 -329 2 -7 3 -9 16 -6 31 l5 27 339 -4 c269 -2 340 -6 347 -16z m-3439
-78 c-30 -82 -38 -91 -19 -20 14 50 39 109 45 104 2 -3 -9 -40 -26 -84z m4635
6 c13 -5 14 -9 5 -9 -8 0 -24 4 -35 9 -13 5 -14 9 -5 9 8 0 24 -4 35 -9z
m-1392 -7 c-13 -2 -33 -2 -45 0 -13 2 -3 4 22 4 25 0 35 -2 23 -4z m67 -148
l0 -155 -62 1 c-35 0 -72 4 -83 8 -13 6 1 8 40 7 l60 -1 5 85 c3 47 3 103 0
125 -8 58 -1 85 21 85 18 0 19 -10 19 -155z m-1950 93 c0 -4 -15 -5 -32 -1
-47 8 -49 14 -5 11 20 -1 37 -6 37 -10z m3579 -10 c-17 -31 -58 -66 -93 -78
l-30 -10 25 27 c50 57 73 75 107 82 1 1 -3 -9 -9 -21z m-3512 -38 c17 -11 16
-11 -2 -5 -11 4 -28 10 -37 12 -14 4 -16 9 -6 26 l11 21 8 -21 c4 -12 16 -27
26 -33z m3385 31 c31 17 33 3 4 -31 -14 -17 -26 -28 -27 -23 0 4 -2 22 -4 38
-1 17 -1 24 2 18 3 -10 10 -10 25 -2z m-4867 -86 c-18 -67 -121 -364 -127
-371 -3 -2 -2 13 2 36 4 22 4 59 -1 83 -11 55 -11 59 0 53 5 -3 11 4 14 15 3
12 10 18 16 14 7 -4 11 9 11 38 0 24 5 59 11 76 9 24 9 35 0 44 -17 17 -13 24
12 22 18 -2 22 -8 22 -34 0 -28 1 -30 12 -14 7 9 13 23 13 29 0 15 22 66 26
61 2 -2 -3 -25 -11 -52z m4849 -1 c3 -8 2 -12 -4 -9 -6 3 -10 10 -10 16 0 14
7 11 14 -7z m-104 -99 c13 -14 21 -25 18 -25 -2 0 -15 11 -28 25 -13 14 -21
25 -18 25 2 0 15 -11 28 -25z m-4750 -67 c0 -16 -3 -19 -11 -11 -6 6 -8 16 -5
22 11 17 16 13 16 -11z m3398 -4 c98 -6 103 -7 100 -28 -3 -21 -5 -21 -238
-20 -129 0 -283 4 -342 8 -104 8 -108 9 -108 31 0 13 4 25 10 27 12 4 435 -9
578 -18z m-631 -6 c-3 -8 -6 -5 -6 6 -1 11 2 17 5 13 3 -3 4 -12 1 -19z
m-2743 -43 c-4 -8 -8 -15 -10 -15 -2 0 -4 7 -4 15 0 8 4 15 10 15 5 0 7 -7 4
-15z m-164 -24 c0 -12 -20 -25 -27 -18 -7 7 6 27 18 27 5 0 9 -4 9 -9z m97
-13 c-3 -8 -6 -5 -6 6 -1 11 2 17 5 13 3 -3 4 -12 1 -19z m4346 5 c-7 -2 -21
-2 -30 0 -10 3 -4 5 12 5 17 0 24 -2 18 -5z m-943 -19 c0 -8 -4 -12 -10 -9 -5
3 -10 10 -10 16 0 5 5 9 10 9 6 0 10 -7 10 -16z m1100 -5 c14 -4 -1 -5 -35 -2
-33 3 -69 9 -80 14 -25 9 81 -1 115 -12z m-3200 -10 c15 -5 6 -6 -25 -2 -27 3
-57 9 -65 14 -17 9 51 0 90 -12z m2281 -2 c-10 -9 -11 -8 -5 6 3 10 9 15 12
12 3 -3 0 -11 -7 -18z m-3594 -9 c-3 -8 -6 -5 -6 6 -1 11 2 17 5 13 3 -3 4
-12 1 -19z m1444 -18 c97 -22 189 -40 196 -40 2 0 1 -5 -3 -11 -4 -8 4 -9 27
-5 30 5 31 5 9 -4 -18 -8 -33 -7 -60 3 -19 8 -78 24 -131 36 -85 18 -154 39
-138 40 3 1 48 -8 100 -19z m2369 -4 c58 -19 30 -20 -35 -2 -27 8 -41 15 -30
15 11 0 40 -6 65 -13z m67 -32 c-3 -3 -12 -4 -19 -1 -8 3 -5 6 6 6 11 1 17 -2
13 -5z m-3797 -24 c0 -5 -2 -10 -4 -10 -3 0 -8 5 -11 10 -3 6 -1 10 4 10 6 0
11 -4 11 -10z m1745 -26 c77 -20 82 -23 38 -19 -29 3 -71 12 -95 21 -24 8 -51
13 -61 10 -9 -2 -15 0 -11 5 8 13 29 10 129 -17z m-1633 -9 c-5 -30 -13 -37
-31 -26 -10 7 -9 13 5 30 24 28 32 27 26 -4z m4138 -15 c0 -5 -7 -10 -15 -10
-8 0 -15 5 -15 10 0 6 7 10 15 10 8 0 15 -4 15 -10z m-2321 -16 c12 -11 -9
-10 -44 2 l-40 13 40 -6 c22 -3 42 -7 44 -9z m2401 6 c-20 -13 -60 -13 -60 0
0 6 17 10 38 10 27 0 33 -3 22 -10z m-2360 -14 c0 -11 -19 -15 -25 -6 -3 5 1
10 9 10 9 0 16 -2 16 -4z m-2004 -38 c-3 -22 -22 -29 -20 -8 3 25 5 30 14 30
5 0 8 -10 6 -22z m112 -23 c-1 -14 -9 -25 -16 -25 -9 0 -12 6 -8 16 3 9 6 20
6 25 0 5 4 9 10 9 5 0 9 -11 8 -25z m-138 -55 c0 -5 -5 -10 -11 -10 -5 0 -7 5
-4 10 3 6 8 10 11 10 2 0 4 -4 4 -10z m-5 -31 c10 -14 1 -21 -19 -13 -9 3 -13
10 -10 15 7 12 21 11 29 -2z m115 2 c0 -21 -13 -41 -26 -41 -17 0 -17 5 -4 31
11 20 30 26 30 10z m77 -53 c-3 -8 -6 -5 -6 6 -1 11 2 17 5 13 3 -3 4 -12 1
-19z m2453 8 c0 -1 -5 -17 -11 -35 -9 -26 -8 -37 10 -67 18 -30 19 -35 6 -30
-9 3 -25 6 -36 6 -17 0 -19 7 -19 58 0 32 3 62 7 65 6 7 43 10 43 3z m58 -68
c17 3 15 -13 -3 -28 -19 -16 -19 -30 0 -30 33 0 46 71 18 102 -15 17 -15 18
11 18 30 0 46 -29 46 -83 0 -48 -9 -56 -55 -48 -36 6 -40 10 -41 36 -1 50 -3
57 -16 49 -8 -5 -9 -2 -5 10 4 10 7 23 8 29 0 7 6 -4 13 -23 6 -19 17 -34 24
-32z m-3205 23 c5 -5 -9 -28 -31 -51 -34 -38 -41 -41 -60 -31 -30 16 -28 47 5
77 27 25 64 27 86 5z m477 9 c0 -5 -7 -10 -15 -10 -8 0 -15 5 -15 10 0 6 7 10
15 10 8 0 15 -4 15 -10z m104 -25 c-6 -16 -24 -21 -24 -7 0 11 11 22 21 22 5
0 6 -7 3 -15z m2643 9 c-3 -3 -12 -4 -19 -1 -8 3 -5 6 6 6 11 1 17 -2 13 -5z
m-3072 -31 c62 -15 101 -18 173 -14 50 3 92 3 92 -1 0 -5 -12 -8 -27 -8 -103
-1 -263 -25 -355 -52 -33 -10 -41 -9 -58 7 -20 18 -19 18 13 56 36 43 32 43
162 12z m3025 7 c0 -5 -7 -10 -15 -10 -8 0 -15 5 -15 10 0 6 7 10 15 10 8 0
15 -4 15 -10z m-2683 -26 c-3 -3 -12 -4 -19 -1 -8 3 -5 6 6 6 11 1 17 -2 13
-5z m-124 -61 c-7 -2 -19 -2 -25 0 -7 3 -2 5 12 5 14 0 19 -2 13 -5z m-113
-13 c-70 -15 -103 -20 -97 -14 8 9 73 22 107 22 18 0 15 -2 -10 -8z m171 -21
c-164 -13 -260 -36 -314 -75 -53 -39 -71 -73 -63 -122 4 -30 3 -32 -19 -28
-26 5 -71 35 -79 52 -9 22 24 74 63 98 61 39 67 31 16 -17 -48 -46 -56 -74
-27 -100 16 -15 17 -13 17 25 0 39 4 44 64 92 63 49 65 50 180 67 64 9 148 17
186 16 67 0 66 0 -24 -8z m-416 -44 c-64 -45 -97 -114 -75 -155 l12 -23 -43
24 c-55 31 -67 50 -50 83 12 22 55 47 88 52 6 1 22 9 35 18 12 9 29 16 38 16
11 -1 10 -4 -5 -15z m367 0 c-40 -7 -86 -18 -104 -24 -17 -6 -33 -9 -35 -7 -5
5 80 33 117 39 14 2 41 4 60 5 19 0 2 -6 -38 -13z m684 -28 c5 0 25 -10 44
-21 19 -12 41 -20 48 -18 6 2 17 -7 22 -20 11 -25 26 -51 52 -86 13 -18 14
-30 7 -55 -16 -56 -15 -57 51 -50 l61 6 122 -83 c67 -46 142 -99 167 -117 25
-18 78 -54 119 -80 40 -27 93 -62 117 -80 l42 -32 100 50 c55 27 113 49 129
49 19 0 40 11 61 31 l32 32 25 -27 c14 -15 29 -25 34 -22 5 3 12 -1 15 -10 5
-14 8 -14 23 2 17 17 18 17 21 0 5 -23 -16 -46 -34 -39 -8 3 -21 0 -30 -7 -25
-22 5 -31 45 -14 48 20 71 42 63 62 -5 15 -3 15 11 4 9 -8 21 -11 27 -7 5 3
10 -1 10 -9 0 -22 22 -20 50 4 29 25 32 25 48 0 7 -11 19 -20 27 -20 8 0 18
-7 23 -16 11 -20 36 -9 28 12 -4 10 3 14 22 14 42 -1 104 -17 112 -30 5 -9 9
-9 14 -1 15 23 33 11 28 -19 -4 -25 -9 -30 -32 -30 -17 0 -30 -7 -34 -16 -5
-14 -1 -16 33 -11 35 4 42 2 56 -20 9 -13 24 -33 33 -43 22 -24 36 -42 45 -57
16 -25 -28 0 -59 33 -24 27 -39 34 -67 34 -30 0 -37 -4 -37 -20 0 -11 -4 -20
-10 -20 -5 0 -10 7 -10 15 0 10 -10 15 -29 15 -16 0 -31 6 -35 15 -9 24 -49
13 -65 -18 -14 -28 -14 -28 -32 -8 -11 11 -19 27 -19 34 0 18 -26 26 -68 19
-23 -3 -32 -10 -32 -23 0 -11 -4 -19 -8 -19 -13 0 -39 32 -47 58 -5 19 -11 22
-28 17 -12 -4 -32 -7 -44 -7 -13 0 -23 -6 -23 -14 0 -8 -4 -14 -10 -14 -5 0
-10 4 -10 8 0 5 -6 9 -13 9 -7 0 -25 3 -41 7 -18 4 -25 3 -21 -4 3 -5 -1 -10
-9 -10 -9 0 -16 5 -16 12 0 6 -7 3 -15 -8 -12 -15 -16 -16 -23 -6 -13 19 -22
-8 -22 -64 l0 -44 -47 18 c-27 10 -47 24 -46 30 2 7 -4 12 -13 12 -10 0 -13
-6 -10 -18 8 -23 8 -22 -209 -102 -93 -35 -183 -68 -200 -75 -120 -49 -285
-105 -309 -105 -32 0 -23 -7 -316 270 -96 91 -204 194 -241 229 -41 38 -65 69
-62 77 4 11 -5 13 -43 9 l-49 -4 55 10 c138 26 522 129 562 150 20 11 42 48
34 57 -3 3 -16 -3 -29 -14 -45 -40 -61 -47 -24 -11 38 38 63 84 51 96 -3 3
-11 -2 -18 -12 -16 -21 -27 -22 -20 -2 4 8 4 15 1 15 -3 0 -57 -25 -120 -55
-63 -30 -148 -65 -188 -79 -100 -33 -304 -73 -409 -80 -84 -5 -84 -5 -20 5
225 32 464 95 569 149 49 25 89 69 101 110 10 36 -4 68 -16 37 -3 -9 -11 -17
-18 -17 -13 0 -266 -129 -254 -130 4 0 37 7 75 14 86 19 155 43 165 59 6 9 8
9 8 -1 0 -20 -69 -45 -250 -90 -228 -58 -322 -72 -490 -77 -141 -3 -142 -3
-35 4 205 15 383 53 514 110 185 82 247 130 237 185 -4 19 -3 26 3 18 4 -8 12
-14 17 -15z m-226 -17 c8 -5 11 -10 5 -10 -5 0 -17 5 -25 10 -8 5 -10 10 -5
10 6 0 17 -5 25 -10z m-640 -4 c0 -2 -7 -7 -16 -10 -8 -3 -12 -2 -9 4 6 10 25
14 25 6z m-74 -57 c-14 -17 -29 -41 -32 -55 -6 -24 -24 -34 -24 -14 0 21 30
69 52 84 32 23 33 20 4 -15z m-213 -96 c-7 -2 -19 -2 -25 0 -7 3 -2 5 12 5 14
0 19 -2 13 -5z m1557 -33 c8 -5 11 -10 5 -10 -5 0 -17 5 -25 10 -8 5 -10 10
-5 10 6 0 17 -5 25 -10z m-1567 -75 c20 -35 37 -68 37 -74 0 -26 -17 -6 -50
56 -43 83 -44 83 -33 83 4 0 25 -29 46 -65z m1710 28 c-7 -2 -21 -2 -30 0 -10
3 -4 5 12 5 17 0 24 -2 18 -5z m-1470 -70 c-24 -2 -62 -2 -85 0 -24 2 -5 4 42
4 47 0 66 -2 43 -4z m5092 -75 c-15 -23 -15 -22 -9 12 9 55 17 69 22 38 2 -15
-4 -38 -13 -50z m-1990 17 c0 -23 11 -21 -227 -28 -134 -4 -168 -3 -168 8 0
27 29 33 155 34 71 1 131 3 132 5 2 2 27 3 56 2 45 -1 52 -4 52 -21z m-2892 8
c-7 -2 -21 -2 -30 0 -10 3 -4 5 12 5 17 0 24 -2 18 -5z m3232 -71 c-44 -26
-91 -55 -105 -64 -14 -9 -36 -19 -50 -23 -26 -7 18 21 120 78 30 16 64 36 75
44 11 7 24 13 30 13 5 0 -26 -22 -70 -48z m1674 -4 c-1 -48 -2 -50 -10 -23 -9
28 -5 75 6 75 3 0 5 -24 4 -52z m-3124 24 c-3 -3 -11 0 -18 7 -9 10 -8 11 6 5
10 -3 15 -9 12 -12z m682 -24 c-3 -8 -6 -5 -6 6 -1 11 2 17 5 13 3 -3 4 -12 1
-19z m444 6 c11 -14 9 -19 -11 -35 -14 -10 -29 -19 -35 -19 -5 0 -23 -7 -40
-16 -16 -9 -70 -37 -120 -63 -49 -26 -100 -54 -112 -61 -20 -13 -25 -12 -47
10 -25 23 -26 23 -46 5 -20 -18 -20 -18 -20 14 l0 32 46 -7 c34 -5 45 -4 40 5
-4 7 0 11 11 11 10 0 81 31 158 70 77 38 145 70 151 70 6 0 18 -7 25 -16z
m-3053 -21 c-10 -2 -28 -2 -40 0 -13 2 -5 4 17 4 22 1 32 -1 23 -4z m3262 -8
c0 -2 -10 -9 -22 -15 -22 -11 -22 -10 -4 4 21 17 26 19 26 11z m-3545 -35 c3
-5 1 -10 -4 -10 -6 0 -11 5 -11 10 0 6 2 10 4 10 3 0 8 -4 11 -10z m3775 1 c0
-8 -90 -3 -99 5 -2 2 19 4 47 4 29 0 52 -4 52 -9z m-133 -7 c-3 -3 -12 -4 -19
-1 -8 3 -5 6 6 6 11 1 17 -2 13 -5z m-690 -20 c-3 -3 -12 -4 -19 -1 -8 3 -5 6
6 6 11 1 17 -2 13 -5z m473 -8 c0 -2 -7 -7 -16 -10 -8 -3 -12 -2 -9 4 6 10 25
14 25 6z m166 -26 c71 -11 136 -20 144 -20 12 -1 11 -3 -3 -11 -12 -7 -56 -4
-152 11 -125 20 -137 21 -160 6 -13 -9 -30 -16 -37 -16 -12 0 58 47 73 49 3 1
64 -8 135 -19z m-623 3 c-7 -2 -21 -2 -30 0 -10 3 -4 5 12 5 17 0 24 -2 18 -5z
m-943 -33 c0 -5 -5 -10 -11 -10 -5 0 -7 5 -4 10 3 6 8 10 11 10 2 0 4 -4 4
-10z m1350 -25 c0 -7 8 -16 18 -18 9 -2 2 -3 -15 -1 -57 5 -45 -13 17 -25 33
-7 62 -16 65 -22 4 -5 3 -9 -2 -8 -24 4 -53 -3 -66 -16 -8 -8 -16 -12 -18 -10
-5 4 -71 -14 -224 -59 -84 -25 -115 -27 -115 -8 0 14 79 54 92 46 6 -4 8 -3 5
3 -4 6 11 20 33 32 45 23 69 28 30 6 -14 -8 -19 -14 -12 -15 8 0 26 13 40 28
34 36 69 55 84 46 7 -4 8 -3 4 4 -5 8 1 12 14 12 12 0 19 4 16 9 -7 10 14 21
27 14 4 -2 7 -10 7 -18z m360 -5 c0 -5 -5 -10 -11 -10 -5 0 -7 5 -4 10 3 6 8
10 11 10 2 0 4 -4 4 -10z m1652 -32 c-8 -8 -9 -4 -5 13 4 13 8 18 11 10 2 -7
-1 -18 -6 -23z m-2447 -6 c-3 -3 -11 0 -18 7 -9 10 -8 11 6 5 10 -3 15 -9 12
-12z m528 11 c-7 -2 -21 -2 -30 0 -10 3 -4 5 12 5 17 0 24 -2 18 -5z m274 1
c-3 -3 -12 -4 -19 -1 -8 3 -5 6 6 6 11 1 17 -2 13 -5z m-224 -11 c-7 -2 -19
-2 -25 0 -7 3 -2 5 12 5 14 0 19 -2 13 -5z m84 -8 c0 -8 -6 -15 -12 -15 -6 0
-12 7 -12 15 0 8 6 15 12 15 6 0 12 -7 12 -15z m-594 -75 c-5 -5 -63 56 -63
67 0 4 15 -8 34 -27 18 -19 32 -37 29 -40z m457 10 c18 -12 2 -12 -25 0 -13 6
-15 9 -5 9 8 0 22 -4 30 -9z m180 -4 c0 -3 -4 -8 -10 -11 -5 -3 -10 -1 -10 4
0 6 5 11 10 11 6 0 10 -2 10 -4z m177 -2 c-3 -3 -12 -4 -19 -1 -8 3 -5 6 6 6
11 1 17 -2 13 -5z m-270 -10 c-3 -3 -12 -4 -19 -1 -8 3 -5 6 6 6 11 1 17 -2
13 -5z m1073 -15 c27 -15 29 -19 10 -14 -14 4 -35 9 -47 12 -24 6 -32 23 -10
23 6 -1 28 -10 47 -21z m-1235 1 c7 -12 -2 -12 -30 0 -19 8 -19 9 2 9 12 1 25
-3 28 -9z m245 -10 c0 -5 -4 -10 -10 -10 -5 0 -10 5 -10 10 0 6 5 10 10 10 6
0 10 -4 10 -10z m-1484 -25 c26 -11 34 -19 30 -32 -6 -24 -20 -146 -17 -157 1
-4 -6 -14 -16 -21 -17 -13 -17 -14 0 -20 14 -6 10 -11 -20 -26 -21 -10 -44
-19 -51 -19 -8 0 -40 -11 -71 -24 -87 -36 -157 -55 -172 -45 -8 5 -46 7 -86 3
-68 -6 -73 -5 -96 20 -26 27 -48 37 -27 11 19 -23 5 -29 -24 -10 -29 19 -26
35 6 35 12 0 45 12 74 26 55 27 74 26 74 -5 0 -10 3 -20 6 -24 8 -7 54 13 54
25 0 17 18 7 23 -14 4 -12 9 -19 12 -16 12 11 -15 48 -34 48 -22 0 -22 27 0
41 33 21 49 11 49 -31 0 -23 5 -40 11 -40 7 0 9 11 6 30 -4 16 -3 31 1 33 14
9 50 -12 57 -32 10 -33 27 -25 20 9 -4 17 -2 30 3 30 14 0 33 -26 30 -41 -2
-8 3 -14 10 -13 6 1 19 2 28 3 11 1 15 9 13 29 -4 39 -15 50 -47 45 -23 -4
-24 -3 -9 7 22 14 62 9 62 -7 0 -7 6 -18 13 -24 6 -7 12 -19 12 -26 0 -18 39
-16 47 3 3 8 1 26 -6 40 -6 13 -16 35 -23 49 -11 25 -28 34 -28 15 0 -6 7 -13
15 -16 8 -4 15 -12 15 -19 0 -10 -8 -11 -41 -1 -39 12 -52 27 -30 34 6 2 11
-1 11 -7 0 -6 5 -11 11 -11 6 0 9 6 6 14 -3 7 5 23 19 35 19 16 24 31 24 66 0
50 4 52 56 30z m1168 -7 c-3 -5 -12 -4 -20 3 -19 16 -18 18 6 12 11 -3 17 -9
14 -15z m1425 6 c12 -12 -8 -10 -34 2 l-30 14 30 -6 c16 -3 32 -8 34 -10z
m-1022 0 c-3 -3 -12 -4 -19 -1 -8 3 -5 6 6 6 11 1 17 -2 13 -5z m-547 -14 c0
-5 -2 -10 -4 -10 -3 0 -8 5 -11 10 -3 6 -1 10 4 10 6 0 11 -4 11 -10z m875 0
c-3 -5 -10 -10 -16 -10 -5 0 -9 5 -9 10 0 6 7 10 16 10 8 0 12 -4 9 -10z
m-250 -10 c-3 -5 -11 -10 -16 -10 -6 0 -7 5 -4 10 3 6 11 10 16 10 6 0 7 -4 4
-10z m-145 -10 c0 -5 -7 -10 -16 -10 -8 0 -12 5 -9 10 3 6 10 10 16 10 5 0 9
-4 9 -10z m-603 -17 c6 -17 -49 -26 -82 -13 -24 9 -26 13 -15 21 20 12 92 7
97 -8z m1070 11 c-3 -3 -12 -4 -19 -1 -8 3 -5 6 6 6 11 1 17 -2 13 -5z m-767
-24 c0 -5 -9 -10 -20 -10 -11 0 -20 5 -20 10 0 6 9 10 20 10 11 0 20 -4 20
-10z m-216 -6 c9 -3 16 -10 16 -14 0 -14 -83 -22 -110 -12 l-25 10 25 10 c29
12 71 15 94 6z m291 -24 c8 -13 -5 -13 -25 0 -13 8 -13 10 2 10 9 0 20 -4 23
-10z m-2685 -10 c0 -5 -7 -10 -15 -10 -8 0 -15 5 -15 10 0 6 7 10 15 10 8 0
15 -4 15 -10z m320 -10 c0 -5 -6 -10 -14 -10 -8 0 -17 -7 -20 -16 -3 -8 -10
-12 -16 -9 -6 4 -1 14 12 25 26 22 38 25 38 10z m2850 0 c0 -5 -4 -10 -10 -10
-5 0 -10 5 -10 10 0 6 5 10 10 10 6 0 10 -4 10 -10z m-3220 -10 c0 -5 -7 -10
-16 -10 -8 0 -12 5 -9 10 3 6 10 10 16 10 5 0 9 -4 9 -10z m95 0 c-3 -5 -10
-10 -16 -10 -5 0 -9 5 -9 10 0 6 7 10 16 10 8 0 12 -4 9 -10z m3655 0 c0 -5
-2 -10 -4 -10 -3 0 -8 5 -11 10 -3 6 -1 10 4 10 6 0 11 -4 11 -10z m-670 -10
c0 -5 -2 -10 -4 -10 -3 0 -8 5 -11 10 -3 6 -1 10 4 10 6 0 11 -4 11 -10z
m-3030 -10 c0 -5 -4 -10 -10 -10 -5 0 -10 5 -10 10 0 6 5 10 10 10 6 0 10 -4
10 -10z m1250 0 c0 -5 -4 -10 -10 -10 -5 0 -10 5 -10 10 0 6 5 10 10 10 6 0
10 -4 10 -10z m-45 -20 c-11 -5 -27 -9 -35 -9 -9 0 -8 4 5 9 11 5 27 9 35 9 9
0 8 -4 -5 -9z m1922 4 c-3 -3 -12 -4 -19 -1 -8 3 -5 6 6 6 11 1 17 -2 13 -5z
m737 -13 c8 -12 -20 -22 -40 -14 -13 5 -13 7 -2 14 17 11 35 11 42 0z m-829
-21 c3 -5 1 -10 -4 -10 -6 0 -11 5 -11 10 0 6 2 10 4 10 3 0 8 -4 11 -10z
m185 6 c0 -11 -19 -15 -25 -6 -3 5 1 10 9 10 9 0 16 -2 16 -4z m735 -6 c7 -11
-42 -26 -53 -16 -7 8 17 26 35 26 6 0 15 -4 18 -10z m-992 -7 c-7 -2 -19 -2
-25 0 -7 3 -2 5 12 5 14 0 19 -2 13 -5z m44 -9 c-3 -3 -12 -4 -19 -1 -8 3 -5
6 6 6 11 1 17 -2 13 -5z m-2338 -8 c-2 -2 -15 -9 -29 -15 -24 -11 -24 -11 -6
3 16 13 49 24 35 12z m2471 -6 c13 -8 13 -10 -2 -10 -9 0 -20 5 -23 10 -8 13
5 13 25 0z m-50 -10 c0 -12 -17 -12 -45 0 -17 7 -15 9 13 9 17 1 32 -3 32 -9z
m-3166 -12 c-3 -4 -11 -5 -19 -1 -21 7 -19 12 4 10 11 0 18 -5 15 -9z m4233
-4 c-3 -3 -12 -4 -19 -1 -8 3 -5 6 6 6 11 1 17 -2 13 -5z m-957 -14 c0 -13
-11 -13 -30 0 -12 8 -11 10 8 10 12 0 22 -4 22 -10z m799 -6 c2 -2 2 -7 -1
-10 -4 -3 -19 2 -35 11 l-28 16 30 -6 c16 -4 32 -9 34 -11z m250 -10 c3 -3 -1
-5 -9 -3 -8 1 -23 -1 -32 -5 -10 -5 -25 -5 -34 -2 -12 5 -13 8 -2 20 12 13 61
7 77 -10z m412 -2 c-13 -2 -27 0 -32 5 -6 6 3 7 23 4 28 -4 29 -6 9 -9z
m-4784 -4 c18 -7 33 -18 33 -26 0 -11 -3 -10 -15 2 -18 17 -54 30 -62 22 -3
-3 6 -10 21 -15 14 -6 26 -15 26 -21 0 -14 -9 -13 -26 4 -7 8 -19 16 -26 18
-6 2 -8 10 -4 16 9 15 12 15 53 0z m3418 3 c8 -14 -13 -24 -33 -16 -14 5 -14
7 -2 15 19 12 27 12 35 1z m-3335 -21 c-8 -5 -17 -7 -19 -4 -3 3 1 9 9 14 8 5
17 7 19 4 3 -3 -1 -9 -9 -14z m1465 -27 c-2 -27 -4 -52 -4 -56 -2 -17 -46 -25
-62 -11 -20 18 -33 3 -38 -41 -4 -42 -11 -45 -11 -4 0 23 -3 30 -9 20 -5 -7
-6 -22 -4 -32 3 -10 0 -19 -6 -19 -6 0 -11 15 -11 33 0 45 -8 50 -38 26 -17
-13 -29 -16 -36 -9 -15 15 -36 12 -36 -5 0 -9 -6 -12 -15 -9 -11 5 -15 -1 -15
-25 0 -17 -5 -31 -11 -31 -7 0 -9 10 -5 25 4 14 2 33 -3 43 -8 15 -1 21 52 40
137 51 199 76 215 89 31 23 40 15 37 -34z m2891 32 c16 -8 25 -15 19 -16 -5 0
-22 -3 -37 -5 -30 -5 -31 -4 -22 20 7 19 5 19 40 1z m-194 -17 c-6 -6 -16 -7
-22 -3 -9 6 -9 9 1 16 17 10 34 0 21 -13z m-748 6 c9 -3 13 -10 10 -15 -8 -14
-21 -11 -28 6 -6 17 -4 18 18 9z m-1854 -29 c0 -20 -5 -25 -25 -25 -20 0 -25
5 -25 25 0 20 5 25 25 25 20 0 25 -5 25 -25z m2299 9 c2 -2 1 -7 -2 -10 -4 -4
-21 1 -39 10 l-33 17 35 -7 c19 -3 37 -8 39 -10z m621 -3 l25 -7 -28 -7 c-15
-4 -32 -5 -37 -2 -6 4 -10 1 -10 -5 0 -6 -4 -9 -10 -5 -14 9 0 35 19 34 9 -1
27 -4 41 -8z m-4474 -15 c9 -9 10 -17 4 -21 -14 -8 -30 3 -30 21 0 18 8 18 26
0z m1681 8 c-3 -3 -12 -4 -19 -1 -8 3 -5 6 6 6 11 1 17 -2 13 -5z m2053 -15
c0 -10 -16 -11 -47 -3 -13 4 -21 10 -18 13 6 10 65 1 65 -10z m-221 -5 c2 -2
2 -6 -1 -9 -8 -8 -68 7 -68 17 0 9 58 2 69 -8z m546 6 c-3 -5 -13 -10 -21 -10
-8 0 -14 5 -14 10 0 6 9 10 21 10 11 0 17 -4 14 -10z m508 -7 c33 -7 36 -17 5
-19 -13 -1 -34 -5 -48 -10 -23 -7 -24 -6 -11 10 13 15 13 19 0 28 -11 8 -9 8
6 3 11 -3 32 -9 48 -12z m-2747 -3 c8 0 14 -11 14 -26 0 -23 -3 -25 -42 -22
-39 3 -43 6 -46 32 -3 28 -2 29 28 22 18 -3 39 -6 46 -6z m-159 -6 c-3 -3 -12
-4 -19 -1 -8 3 -5 6 6 6 11 1 17 -2 13 -5z m1518 -13 c0 -8 -17 -20 -37 -27
-31 -11 -39 -10 -49 2 -13 16 -14 16 21 32 32 14 65 11 65 -7z m453 13 c23 -7
31 -24 10 -24 -7 1 -26 7 -43 15 -23 10 -26 14 -10 14 11 0 30 -2 43 -5z m535
-15 c-7 -7 -19 -8 -30 -4 -16 7 -15 9 7 15 30 8 38 4 23 -11z m-4103 -4 c7 -8
9 -15 6 -15 -4 0 -14 7 -22 15 -9 8 -11 15 -6 15 5 0 15 -7 22 -15z m1915 -5
c3 -5 -4 -10 -16 -10 -18 0 -19 -2 -9 -15 10 -12 9 -15 -6 -15 -39 0 -64 13
-64 31 0 16 8 19 44 19 25 0 48 -4 51 -10z m1610 0 c8 -13 -15 -13 -35 0 -12
8 -11 10 7 10 12 0 25 -4 28 -10z m678 -27 c-4 -9 -10 -10 -24 -2 -24 13 -24
14 5 14 14 0 22 -5 19 -12z m-2833 -7 c0 -16 -28 -42 -36 -33 -7 6 18 47 28
47 5 0 8 -6 8 -14z m675 -16 c4 -6 -5 -10 -19 -10 -14 0 -26 5 -26 10 0 6 9
10 19 10 11 0 23 -4 26 -10z m872 -16 c16 -25 16 -27 -2 -40 -27 -20 -40 -17
-55 11 -18 34 -3 46 21 16 11 -13 22 -21 25 -18 4 3 -1 13 -10 22 -9 9 -16 21
-16 26 0 18 20 9 37 -17z m803 17 c0 -8 -55 -21 -92 -21 -37 0 -16 19 25 23
23 2 48 4 55 5 6 1 12 -2 12 -7z m-2660 -11 c0 -5 -7 -10 -15 -10 -21 0 -19
-20 3 -21 14 0 14 -2 -3 -9 -30 -13 -35 -12 -35 10 0 10 8 24 18 29 22 13 32
14 32 1z m130 -10 c0 -5 -5 -10 -11 -10 -5 0 -7 5 -4 10 3 6 8 10 11 10 2 0 4
-4 4 -10z m2090 0 c0 -5 -2 -10 -4 -10 -3 0 -8 5 -11 10 -3 6 -1 10 4 10 6 0
11 -4 11 -10z m910 -90 c0 -57 -1 -60 -25 -60 -14 0 -25 4 -25 9 0 5 -17 7
-37 5 -156 -16 -219 -27 -228 -38 -7 -8 -85 -22 -220 -39 l-210 -26 -22 21
c-28 26 -49 76 -37 88 5 5 93 19 194 31 102 12 268 31 370 44 266 32 240 36
240 -35z m-1114 -6 c18 -14 18 -14 -6 -3 -31 14 -36 19 -24 19 6 0 19 -7 30
-16z m61 -20 c-3 -3 -12 -4 -19 -1 -8 3 -5 6 6 6 11 1 17 -2 13 -5z m160 -56
c11 -6 27 -7 34 -3 7 5 10 4 6 -2 -4 -6 3 -13 15 -16 12 -4 20 -8 17 -11 -5
-6 -203 65 -215 76 -8 9 109 -28 143 -44z m738 7 c-49 -7 -106 -13 -125 -13
-19 0 3 6 50 13 47 7 103 12 125 12 22 0 0 -5 -50 -12z m-318 -71 c-3 -3 -12
-4 -19 -1 -8 3 -5 6 6 6 11 1 17 -2 13 -5z m80 -10 c-3 -3 -12 -4 -19 -1 -8 3
-5 6 6 6 11 1 17 -2 13 -5z m-217 -25 c30 -12 74 -24 98 -26 23 -3 42 -10 42
-15 0 -6 -16 -8 -37 -5 -51 6 -215 67 -183 67 14 0 50 -10 80 -21z"/>
<path d="M2611 4048 c0 -10 -8 -18 -16 -18 -11 0 -15 -11 -13 -42 1 -38 2 -39
5 -10 2 18 9 30 14 27 12 -8 22 19 16 42 -4 17 -5 17 -6 1z"/>
<path d="M2601 3934 c0 -11 3 -14 6 -6 3 7 2 16 -1 19 -3 4 -6 -2 -5 -13z"/>
<path d="M2215 3859 c-20 -5 -9 -6 30 -2 33 3 62 7 64 9 8 7 -63 2 -94 -7z"/>
<path d="M2489 3634 c-11 -14 -11 -16 0 -10 8 5 16 3 22 -5 4 -7 11 -10 15 -6
4 4 1 14 -7 23 -14 13 -17 13 -30 -2z"/>
<path d="M2482 3594 c14 -14 21 -15 30 -6 8 8 9 12 1 12 -6 0 -20 3 -30 6 -17
7 -17 6 -1 -12z"/>
<path d="M2274 3605 c-8 -21 3 -45 20 -45 16 0 31 34 21 50 -9 15 -35 12 -41
-5z m36 -9 c0 -8 -4 -17 -9 -21 -12 -7 -24 12 -16 25 9 15 25 12 25 -4z"/>
<path d="M2085 3590 c-4 -6 1 -7 10 -3 13 4 16 1 13 -13 -2 -10 -11 -18 -19
-16 -12 3 -12 1 -1 -10 11 -11 16 -10 28 6 10 14 11 23 3 33 -14 15 -26 17
-34 3z"/>
<path d="M1895 3570 c-9 -15 5 -52 18 -47 15 5 16 49 0 54 -6 2 -14 -1 -18 -7z
m25 -15 c0 -8 -4 -15 -10 -15 -5 0 -10 7 -10 15 0 8 5 15 10 15 6 0 10 -7 10
-15z"/>
<path d="M896 2415 c-3 -9 -6 -26 -5 -38 1 -16 4 -12 10 12 10 34 6 55 -5 26z"/>
<path d="M374 1712 c-36 -28 -47 -58 -28 -76 20 -20 28 -20 20 -1 -6 16 12 65
29 77 5 4 7 9 5 12 -3 2 -15 -3 -26 -12z"/>
<path d="M1600 1642 c0 -16 -9 -37 -20 -47 -11 -10 -20 -23 -20 -28 0 -5 14 4
30 21 30 32 39 65 20 77 -6 4 -10 -6 -10 -23z"/>
<path d="M1620 1303 c-55 -10 -35 -18 35 -15 57 3 81 0 100 -12 28 -19 39 -21
30 -5 -15 23 -110 42 -165 32z"/>
<path d="M2040 1265 c1 -26 2 -28 11 -12 8 14 8 22 0 30 -8 8 -11 3 -11 -18z"/>
<path d="M1527 1253 c-4 -3 -7 -13 -7 -22 1 -13 3 -13 11 2 11 19 8 33 -4 20z"/>
<path d="M1294 1139 c13 -21 76 -76 76 -66 0 1 -21 23 -46 47 -29 28 -40 35
-30 19z"/>
<path d="M3116 1144 c-10 -25 -7 -34 9 -28 8 4 15 15 15 25 0 23 -16 25 -24 3z"/>
<path d="M2905 1120 c4 -6 11 -8 16 -5 14 9 11 15 -7 15 -8 0 -12 -5 -9 -10z"/>
<path d="M3050 1105 c-11 -13 -9 -15 15 -15 16 0 25 5 23 12 -7 19 -24 20 -38
3z"/>
<path d="M1403 1063 c9 -2 25 -2 35 0 9 3 1 5 -18 5 -19 0 -27 -2 -17 -5z"/>
<path d="M1470 1046 c0 -2 7 -7 16 -10 8 -3 12 -2 9 4 -6 10 -25 14 -25 6z"/>
<path d="M2310 1041 c0 -5 5 -13 10 -16 6 -3 10 -2 10 4 0 5 -4 13 -10 16 -5
3 -10 2 -10 -4z"/>
<path d="M2409 1003 c-13 -15 -12 -15 9 -4 23 12 28 21 13 21 -5 0 -15 -7 -22
-17z"/>
<path d="M2368 983 c7 -3 16 -2 19 1 4 3 -2 6 -13 5 -11 0 -14 -3 -6 -6z"/>
<path d="M1547 899 c40 -40 75 -70 78 -67 6 6 -106 117 -133 132 -10 4 15 -25
55 -65z"/>
<path d="M2098 963 c7 -3 16 -2 19 1 4 3 -2 6 -13 5 -11 0 -14 -3 -6 -6z"/>
<path d="M2036 951 c-13 -5 -16 -10 -9 -14 7 -4 14 -3 18 2 3 6 12 8 20 4 8
-3 15 0 15 6 0 12 -16 13 -44 2z"/>
<path d="M1965 920 c-3 -5 3 -10 14 -10 12 0 21 5 21 10 0 6 -6 10 -14 10 -8
0 -18 -4 -21 -10z"/>
<path d="M1920 900 c0 -5 5 -10 10 -10 6 0 10 5 10 10 0 6 -4 10 -10 10 -5 0
-10 -4 -10 -10z"/>
<path d="M2006 845 c-92 -36 -174 -65 -181 -65 -6 0 -25 11 -41 25 -25 21 -38
25 -89 23 l-60 -2 57 -3 c47 -3 64 -9 90 -33 18 -17 37 -30 42 -30 20 0 326
117 363 139 46 27 -24 5 -181 -54z"/>
<path d="M1885 890 c-3 -5 1 -10 9 -10 9 0 16 5 16 10 0 6 -4 10 -9 10 -6 0
-13 -4 -16 -10z"/>
<path d="M1848 873 c7 -3 16 -2 19 1 4 3 -2 6 -13 5 -11 0 -14 -3 -6 -6z"/>
<path d="M3640 1060 c-9 -6 -10 -10 -3 -10 6 0 15 5 18 10 8 12 4 12 -15 0z"/>
<path d="M3445 950 c-8 -13 5 -13 25 0 13 8 13 10 -2 10 -9 0 -20 -4 -23 -10z"/>
<path d="M2185 620 c-3 -5 3 -10 15 -10 12 0 18 5 15 10 -3 6 -10 10 -15 10
-5 0 -12 -4 -15 -10z"/>
<path d="M5165 378 c-106 -13 -110 -32 -5 -23 47 4 87 9 89 11 14 14 -23 19
-84 12z"/>
<path d="M4800 341 c-143 -18 -160 -23 -160 -48 0 -13 8 -15 48 -9 26 4 101
14 166 21 66 8 121 17 124 19 2 3 2 12 -1 21 -7 17 0 17 -177 -4z"/>
<path d="M4803 278 c-46 -6 -83 -14 -83 -20 0 -6 16 -7 38 -4 20 3 63 8 95 12
31 3 57 10 57 15 0 5 -6 8 -12 8 -7 -1 -50 -6 -95 -11z"/>
<path d="M8850 4944 c-6 -14 -10 -36 -10 -49 0 -13 -9 -95 -20 -181 l-20 -157
20 -19 c11 -10 20 -23 20 -28 0 -18 -19 -57 -35 -73 -21 -22 -11 -37 25 -37
35 0 37 6 46 140 3 58 12 172 18 254 10 124 10 151 -2 162 -20 20 -31 17 -42
-12z"/>
<path d="M8475 4828 c-11 -33 -31 -209 -24 -214 4 -2 19 1 32 7 22 10 25 20
35 107 9 74 9 98 -1 104 -18 12 -37 10 -42 -4z"/>
<path d="M8160 4707 c-11 -28 -33 -177 -27 -183 2 -3 15 0 29 5 20 8 26 19 32
57 11 81 7 131 -9 138 -10 4 -19 -2 -25 -17z"/>
<path d="M8772 4615 c0 -16 2 -22 5 -12 2 9 2 23 0 30 -3 6 -5 -1 -5 -18z"/>
<path d="M8628 4550 c-2 -6 -32 -15 -68 -21 -36 -5 -78 -14 -95 -19 -16 -5
-64 -16 -105 -24 -41 -8 -120 -26 -174 -40 -55 -14 -103 -23 -108 -20 -5 3
-15 1 -22 -5 -16 -13 -159 -44 -207 -45 -63 0 -72 -26 -114 -306 -19 -135 -45
-305 -57 -378 -12 -73 -18 -135 -14 -139 3 -4 140 2 304 13 384 25 424 25 452
-1 11 -10 42 -59 67 -107 25 -48 48 -88 53 -88 4 0 10 30 14 68 3 37 17 162
31 277 87 735 97 851 78 832 -3 -4 -12 -2 -19 4 -8 7 -13 7 -16 -1z m-146
-417 c5 -24 -27 -263 -38 -288 -8 -17 -10 -16 -15 15 -6 31 -7 32 -14 13 -4
-13 -12 -20 -22 -16 -9 4 -16 -2 -20 -16 -3 -12 -11 -20 -17 -17 -56 24 -65
32 -60 51 l6 20 -16 -20 c-16 -19 -17 -18 -12 20 3 22 8 78 11 125 3 47 11 90
18 97 14 14 87 30 139 32 27 1 37 -3 40 -16z m-333 -114 c30 -11 39 -39 10
-30 -50 15 -76 11 -111 -16 -20 -15 -41 -37 -47 -48 -8 -17 -10 -17 -10 -3 -2
30 58 82 125 108 1 0 15 -5 33 -11z m-170 -151 c-6 -18 -13 -39 -15 -47 -3 -8
-7 -11 -10 -8 -7 7 17 87 27 87 4 0 3 -15 -2 -32z"/>
<path d="M8348 4067 c-21 -17 -33 -63 -19 -71 6 -4 11 -16 11 -27 0 -10 5 -19
10 -19 6 0 10 9 10 20 0 11 4 20 9 20 13 0 19 -48 8 -59 -8 -8 -4 -11 11 -11
13 0 22 6 22 15 0 21 18 19 23 -2 3 -12 5 -8 6 9 1 21 -3 25 -19 21 -14 -4
-20 0 -20 10 0 21 20 33 30 17 5 -8 9 -7 14 6 4 9 2 22 -4 28 -7 7 -10 6 -10
-3 0 -7 -4 -10 -9 -7 -4 3 -6 17 -3 31 5 30 -17 35 -25 5 -3 -11 -14 -20 -24
-20 -12 0 -16 5 -13 15 4 8 10 15 15 15 5 0 9 5 9 10 0 13 -11 12 -32 -3z"/>
<path d="M8320 3870 c0 -12 37 -12 65 0 15 7 10 9 -22 9 -24 1 -43 -3 -43 -9z"/>
<path d="M8760 4530 c0 -13 -34 -307 -55 -475 -8 -66 -19 -165 -25 -220 -6
-55 -17 -152 -25 -215 -8 -63 -15 -136 -15 -163 0 -26 -6 -65 -12 -87 -11 -36
-18 -42 -62 -56 -27 -9 -65 -26 -84 -37 l-34 -20 6 -113 c5 -75 4 -114 -3
-119 -6 -3 -11 0 -11 8 0 8 -21 19 -50 27 -27 7 -51 18 -53 24 -3 8 -54 11
-153 10 -133 -1 -154 -4 -192 -23 -36 -18 -41 -25 -32 -37 13 -15 9 -17 -27
-14 -12 0 -35 -6 -52 -14 -16 -9 -53 -16 -81 -16 -27 0 -50 -2 -50 -5 0 -4 21
-50 58 -125 12 -24 24 -34 37 -33 11 1 94 5 185 8 129 5 341 24 435 38 5 1 9
-7 10 -17 0 -18 -13 -22 -115 -36 -63 -10 -119 -15 -125 -13 -5 3 2 -5 18 -17
15 -12 27 -26 27 -31 0 -6 17 -33 38 -62 99 -136 224 -364 247 -452 10 -39 15
-104 16 -189 l0 -128 47 -57 c54 -64 63 -79 92 -141 l21 -44 18 29 c21 35 55
67 46 44 -4 -11 11 -14 77 -14 70 0 96 -5 165 -32 46 -18 92 -33 103 -33 11 0
48 -14 82 -31 43 -22 68 -29 86 -24 14 3 57 6 94 6 76 0 154 -28 242 -88 46
-32 76 -42 76 -25 0 4 12 8 26 8 14 1 33 9 44 19 10 9 24 15 32 14 33 -4 48 2
48 21 0 11 -4 20 -10 20 -5 0 -14 9 -20 21 -9 16 -8 25 6 40 16 18 16 19 0 19
-10 0 -20 -9 -23 -20 -4 -16 -8 -18 -20 -9 -8 7 -12 18 -9 26 4 10 -2 13 -21
11 -14 -2 -28 3 -30 10 -3 8 1 10 14 5 17 -6 17 -6 1 10 -20 20 -29 22 -26 4
2 -6 -4 -12 -12 -12 -8 0 -19 -3 -25 -6 -5 -3 -36 -7 -68 -8 -31 -1 -71 -6
-87 -11 -18 -5 -32 -5 -35 1 -4 5 -21 9 -40 9 -19 0 -36 4 -39 8 -3 5 16 5 42
1 69 -11 101 -11 82 1 -13 8 -12 10 4 10 15 0 16 2 6 15 -10 12 -24 14 -57 9
-28 -4 -48 -2 -58 6 -11 9 -26 7 -73 -9 -32 -12 -68 -21 -80 -21 -27 0 -73
-21 -67 -30 2 -4 -8 -5 -23 -1 -25 5 -25 6 -4 9 12 2 22 7 22 11 0 5 15 11 33
15 40 7 205 55 232 67 21 9 237 74 295 89 19 5 50 7 69 3 24 -4 32 -2 27 6 -7
10 6 12 94 14 14 0 35 -5 48 -12 22 -12 23 -11 13 8 -14 25 -42 41 -73 41 -22
1 -21 2 10 31 34 31 35 54 1 44 -12 -4 -31 0 -45 10 -15 9 -51 31 -83 48 -31
16 -59 35 -63 40 -4 7 -18 4 -40 -6 -18 -8 -46 -19 -63 -23 -16 -4 -34 -13
-40 -19 -11 -13 -312 -91 -320 -83 -5 4 213 63 278 75 30 6 35 24 12 43 -13
11 -41 11 -85 -1 -13 -3 -16 31 -21 246 -4 195 5 890 14 1035 2 25 1 25 -66
23 -38 -1 -118 -12 -179 -23 -110 -21 -370 -101 -394 -121 -8 -6 -30 -12 -49
-14 -31 -3 -35 -2 -24 11 10 13 10 17 -1 24 -8 5 -21 5 -29 0 -27 -13 -154 -6
-159 10 -3 8 1 11 11 7 11 -4 13 0 9 16 -5 19 -3 20 10 9 11 -9 17 -9 20 -2 2
6 14 12 28 14 14 2 32 6 40 9 8 3 51 11 95 17 44 7 89 17 100 24 33 21 83 28
230 32 77 3 172 8 210 13 57 7 33 8 -120 9 -104 0 -215 -3 -245 -8 -124 -18
-189 -32 -273 -57 -48 -14 -89 -24 -91 -22 -2 2 0 33 4 69 16 128 51 445 75
680 24 233 37 324 46 335 12 13 11 115 -1 115 -5 0 -10 -5 -10 -10z m-150
-1254 c0 -11 -19 -15 -25 -6 -3 5 1 10 9 10 9 0 16 -2 16 -4z m-359 -219 c31
6 79 -3 79 -15 0 -4 -26 -8 -57 -10 -32 -1 -62 -7 -67 -12 -10 -10 -46 5 -46
19 0 5 9 11 20 14 11 3 20 9 19 14 -4 22 4 26 13 6 8 -17 16 -21 39 -16z
m-188 -12 c1 -5 -6 -11 -15 -13 -11 -2 -18 3 -18 13 0 17 30 18 33 0z m32 5
c3 -5 1 -10 -4 -10 -6 0 -11 5 -11 10 0 6 2 10 4 10 3 0 8 -4 11 -10z m285 0
c0 -5 -2 -10 -4 -10 -3 0 -8 5 -11 10 -3 6 -1 10 4 10 6 0 11 -4 11 -10z m40
-20 c8 -5 11 -10 5 -10 -5 -1 0 -5 13 -10 20 -9 32 -48 15 -51 -41 -7 -53 -5
-53 10 0 13 -8 16 -41 13 -29 -3 -40 -1 -35 7 5 7 -3 11 -21 12 l-28 1 30 10
c28 9 84 25 95 27 3 0 12 -4 20 -9z m-510 -64 c0 -3 -4 -8 -10 -11 -5 -3 -10
-1 -10 4 0 6 5 11 10 11 6 0 10 -2 10 -4z m73 -3 c-13 -2 -33 -2 -45 0 -13 2
-3 4 22 4 25 0 35 -2 23 -4z m480 -180 c-7 -2 -19 -2 -25 0 -7 3 -2 5 12 5 14
0 19 -2 13 -5z m22 -195 c4 -73 11 -141 16 -150 6 -10 8 -18 5 -18 -2 0 -23
35 -46 78 -23 42 -59 104 -81 136 -22 32 -38 60 -37 61 4 3 100 22 119 24 14
1 17 -18 24 -131z m835 -8 c0 -5 -4 -10 -10 -10 -5 0 -10 5 -10 10 0 6 5 10
10 10 6 0 10 -4 10 -10z m-10 -44 c0 -3 -4 -8 -10 -11 -5 -3 -10 -1 -10 4 0 6
5 11 10 11 6 0 10 -2 10 -4z m-30 -22 c0 -2 -7 -4 -15 -4 -8 0 -15 4 -15 10 0
5 7 7 15 4 8 -4 15 -8 15 -10z m-133 -10 c-3 -3 -12 -4 -19 -1 -8 3 -5 6 6 6
11 1 17 -2 13 -5z m36 -9 c-3 -9 -8 -14 -10 -11 -3 3 -2 9 2 15 9 16 15 13 8
-4z m-24 -32 c2 -1 -6 -1 -18 0 -11 1 -21 8 -21 15 0 12 3 12 18 1 9 -7 19
-14 21 -16z m-570 -85 c-1 -55 -5 -50 -11 15 -2 20 0 37 4 37 4 0 7 -24 7 -52z
m-29 -48 c0 -6 4 -10 9 -10 6 0 9 -8 9 -17 0 -10 2 -31 6 -48 6 -23 5 -26 -3
-15 -6 8 -11 22 -11 31 0 10 -13 43 -30 74 -37 69 -38 80 -5 31 14 -20 25 -41
25 -46z m1273 -281 c21 -5 35 -14 32 -19 -3 -6 0 -7 8 -4 8 3 18 0 22 -6 4 -6
18 -15 31 -20 24 -9 33 -30 14 -30 -5 0 -10 4 -10 9 0 11 -35 22 -77 25 -17 2
-39 10 -48 19 -16 17 -51 24 -41 9 2 -4 -12 -6 -32 -3 -36 5 -36 6 -7 9 17 2
34 8 40 13 12 12 21 11 68 -2z m-163 -29 c0 -5 -7 -10 -16 -10 -8 0 -12 5 -9
10 3 6 10 10 16 10 5 0 9 -4 9 -10z m-80 -20 c0 -5 -8 -10 -17 -10 -15 0 -16
2 -3 10 19 12 20 12 20 0z m-93 -26 c-3 -3 -12 -4 -19 -1 -8 3 -5 6 6 6 11 1
17 -2 13 -5z m-197 -14 c-8 -5 -22 -10 -30 -10 -13 0 -13 1 0 10 8 5 22 10 30
10 13 0 13 -1 0 -10z m-65 -19 c-11 -5 -36 -11 -55 -15 l-35 -6 35 14 c19 8
44 15 55 15 l20 0 -20 -8z m-139 -37 c-22 -8 -45 -13 -50 -10 -6 2 5 8 24 14
52 15 71 13 26 -4z m-1 -134 c10 -11 13 -20 7 -20 -6 0 -16 9 -22 20 -6 11 -9
20 -7 20 2 0 12 -9 22 -20z m418 -57 c-7 -2 -21 -2 -30 0 -10 3 -4 5 12 5 17
0 24 -2 18 -5z m-23 -47 c0 -2 -11 -6 -25 -8 -14 -3 -25 -1 -25 3 0 5 11 9 25
9 14 0 25 -2 25 -4z"/>
<path d="M8365 3011 c-27 -6 -28 -8 -9 -14 23 -8 54 0 54 14 0 10 -1 10 -45 0z"/>
<path d="M6141 4065 c-1 -17 10 -47 24 -68 14 -20 22 -37 16 -37 -5 0 -12 7
-15 16 -4 9 -9 15 -11 12 -14 -14 9 -37 36 -36 28 1 29 2 14 22 -9 12 -27 44
-40 71 -22 47 -24 48 -24 20z"/>
<path d="M6910 4053 c0 -5 18 -27 40 -48 23 -23 40 -33 40 -25 0 8 -18 30 -40
48 -22 18 -40 29 -40 25z"/>
<path d="M7014 3943 c19 -23 11 -32 -12 -13 -7 5 -4 1 5 -9 30 -33 135 -91
164 -91 17 0 32 9 43 25 15 23 15 25 -1 25 -10 1 -42 9 -70 19 -54 18 -68 12
-40 -19 14 -17 -23 11 -73 55 -20 17 -27 21 -16 8z m176 -93 c-20 -13 -43 -13
-35 0 3 6 16 10 28 10 18 0 19 -2 7 -10z"/>
<path d="M5550 3918 c0 -35 11 -68 22 -68 5 0 28 -13 51 -29 70 -48 139 -86
200 -111 57 -22 59 -24 55 -56 -4 -32 -3 -33 44 -43 113 -25 128 -25 128 -4 0
20 2 20 68 5 144 -32 215 -55 220 -74 5 -22 39 -24 87 -4 38 16 64 50 67 89 3
33 1 33 119 -37 138 -84 187 -105 265 -114 66 -8 73 -7 93 14 l21 22 -28 6
c-15 4 -57 13 -94 21 -119 25 -204 60 -316 131 -62 40 -69 41 -68 12 1 -17 -9
-28 -34 -41 -29 -15 -50 -17 -125 -12 -208 14 -332 39 -479 97 -141 55 -276
148 -276 191 0 9 -4 19 -10 22 -6 3 -10 -4 -10 -17z"/>
<path d="M6315 3873 c24 -23 156 -115 160 -111 3 2 -17 20 -43 39 -50 37 -134
89 -117 72z"/>
<path d="M6301 3844 c22 -27 160 -137 165 -131 9 9 -49 69 -107 108 -62 42
-80 49 -58 23z"/>
<path d="M5701 3676 c17 -16 81 -44 114 -50 54 -10 42 -2 -38 29 -64 24 -85
30 -76 21z"/>
<path d="M5868 3593 c6 -2 18 -2 25 0 6 3 1 5 -13 5 -14 0 -19 -2 -12 -5z"/>
<path d="M7111 3575 c-19 -13 -47 -27 -63 -30 -37 -8 -37 -35 0 -35 32 1 49
13 81 58 27 38 26 38 -18 7z"/>
<path d="M5938 3583 c7 -3 16 -2 19 1 4 3 -2 6 -13 5 -11 0 -14 -3 -6 -6z"/>
<path d="M5998 3573 c7 -3 16 -2 19 1 4 3 -2 6 -13 5 -11 0 -14 -3 -6 -6z"/>
<path d="M8245 3544 c-11 -2 -270 -20 -575 -40 -305 -20 -557 -38 -559 -40 -5
-4 57 -164 69 -179 4 -5 12 -26 18 -45 15 -50 169 -431 179 -440 8 -8 381 15
390 24 5 5 -99 252 -177 421 -59 129 -94 215 -87 221 3 3 164 16 359 30 358
25 462 33 456 38 -7 7 -54 13 -73 10z m-990 -114 c4 -6 -17 -10 -52 -9 -37 1
-49 3 -35 7 39 11 81 12 87 2z m150 -40 c4 -6 -12 -10 -42 -10 -26 0 -73 -3
-103 -6 -30 -4 -52 -3 -48 1 4 4 45 11 90 15 46 4 86 8 90 9 4 0 10 -3 13 -9z
m-25 -44 c0 -3 -4 -8 -10 -11 -5 -3 -10 -1 -10 4 0 6 5 11 10 11 6 0 10 -2 10
-4z m43 -3 c-7 -2 -19 -2 -25 0 -7 3 -2 5 12 5 14 0 19 -2 13 -5z m-84 -7
c-10 -9 -99 -14 -104 -5 -4 5 18 9 51 9 32 0 55 -2 53 -4z m211 -37 c0 -13
-76 -23 -272 -34 -60 -3 -78 -1 -78 9 0 9 23 15 75 20 42 4 79 5 84 2 4 -3 37
-2 72 3 73 9 119 9 119 0z m-282 -70 c-12 -7 -24 -7 -35 0 -15 9 -12 10 17 10
29 0 32 -1 18 -10z m119 -35 c-3 -3 -12 -4 -19 -1 -8 3 -5 6 6 6 11 1 17 -2
13 -5z m-127 -14 c0 -5 -4 -10 -10 -10 -5 0 -10 5 -10 10 0 6 5 10 10 10 6 0
10 -4 10 -10z m73 3 c-7 -2 -19 -2 -25 0 -7 3 -2 5 12 5 14 0 19 -2 13 -5z
m176 -27 c-2 -2 -20 -6 -39 -10 -25 -4 -31 -3 -20 4 14 9 69 15 59 6z m-101
-13 c-10 -2 -26 -2 -35 0 -10 3 -2 5 17 5 19 0 27 -2 18 -5z m-65 -10 c-7 -2
-19 -2 -25 0 -7 3 -2 5 12 5 14 0 19 -2 13 -5z m126 -37 c-2 -2 -35 -6 -74 -9
-44 -4 -63 -3 -50 3 19 8 133 14 124 6z m-169 -16 c0 -5 -2 -10 -4 -10 -3 0
-8 5 -11 10 -3 6 -1 10 4 10 6 0 11 -4 11 -10z m139 -34 c-10 -8 -89 -13 -83
-5 3 5 24 9 46 9 23 0 39 -2 37 -4z m141 -40 c0 -2 -13 -6 -30 -8 -16 -3 -30
-1 -30 4 0 4 14 8 30 8 17 0 30 -2 30 -4z m-165 -16 c-3 -5 -16 -10 -28 -10
-18 0 -19 2 -7 10 20 13 43 13 35 0z m83 3 c-10 -2 -28 -2 -40 0 -13 2 -5 4
17 4 22 1 32 -1 23 -4z m22 -42 c0 -11 -80 -20 -86 -9 -2 3 10 9 28 11 18 2
39 5 46 5 6 1 12 -2 12 -7z m73 2 c-7 -2 -21 -2 -30 0 -10 3 -4 5 12 5 17 0
24 -2 18 -5z m-233 -23 c0 -5 -4 -10 -10 -10 -5 0 -10 5 -10 10 0 6 5 10 10
10 6 0 10 -4 10 -10z m57 4 c-3 -3 -12 -4 -19 -1 -8 3 -5 6 6 6 11 1 17 -2 13
-5z m78 -44 c-16 -4 -43 -8 -60 -8 -25 -1 -27 1 -10 8 11 5 38 8 60 8 38 0 39
-1 10 -8z m-58 -62 c-28 -7 -42 -7 -50 1 -8 8 2 11 39 10 l49 -1 -38 -10z"/>
<path d="M6940 3426 c0 -15 9 -45 19 -65 28 -52 51 -107 51 -119 0 -6 4 -13 9
-17 10 -6 -20 86 -58 180 -17 43 -20 46 -21 21z"/>
<path d="M7903 3383 c9 -2 23 -2 30 0 6 3 -1 5 -18 5 -16 0 -22 -2 -12 -5z"/>
<path d="M7678 3363 c7 -3 16 -2 19 1 4 3 -2 6 -13 5 -11 0 -14 -3 -6 -6z"/>
<path d="M7660 3320 l-25 -8 28 -1 c15 -1 27 4 27 9 0 6 -1 10 -2 9 -2 -1 -14
-5 -28 -9z"/>
<path d="M7860 3210 c-173 -17 -199 -21 -194 -35 4 -10 14 -11 40 -3 19 5 43
6 54 3 10 -3 21 -1 25 5 3 5 41 10 86 10 43 0 79 4 79 9 0 5 12 12 28 14 47 7
-34 5 -118 -3z"/>
<path d="M2716 3195 c4 -8 8 -15 10 -15 2 0 4 7 4 15 0 8 -4 15 -10 15 -5 0
-7 -7 -4 -15z"/>
<path d="M7030 3204 c0 -14 40 -121 69 -184 37 -80 22 -28 -24 85 -24 61 -45
105 -45 99z"/>
<path d="M2665 3170 c-3 -5 -1 -10 4 -10 6 0 11 5 11 10 0 6 -2 10 -4 10 -3 0
-8 -4 -11 -10z"/>
<path d="M6085 3159 c-11 -7 -23 -17 -27 -23 -12 -17 -10 -88 2 -81 6 3 10 15
10 25 0 25 45 70 70 70 10 0 25 -7 33 -15 8 -8 17 -12 20 -9 3 3 13 1 24 -5
35 -19 370 -121 475 -145 148 -34 273 -49 357 -44 57 3 70 1 66 -10 -2 -7 -1
-10 5 -7 5 3 16 -8 25 -24 14 -28 14 -31 -2 -39 -48 -25 -126 -43 -151 -36
-15 4 -31 8 -37 9 -87 21 -159 41 -195 55 -25 10 -69 23 -97 30 -29 6 -53 17
-53 22 0 6 -7 8 -15 4 -8 -3 -14 0 -12 7 3 15 -232 110 -337 136 -43 11 -85
26 -94 34 -33 27 -68 -1 -57 -46 5 -20 11 -22 56 -18 35 2 70 -4 111 -19 32
-12 67 -19 75 -16 9 4 53 -5 97 -20 81 -26 115 -44 85 -44 -9 0 -19 3 -23 7
-9 9 -89 33 -94 29 -4 -4 164 -66 178 -66 6 0 56 -15 112 -34 170 -57 282 -86
388 -99 30 -4 38 -3 25 3 -16 7 -11 9 22 9 23 1 43 -4 45 -10 2 -7 9 -10 15
-8 6 2 -3 39 -24 95 l-35 92 -36 -9 c-136 -31 -344 8 -722 137 -203 69 -255
81 -285 63z m482 -215 c-3 -3 -12 -4 -19 -1 -8 3 -5 6 6 6 11 1 17 -2 13 -5z
m500 -140 c-3 -3 -12 -4 -19 -1 -8 3 -5 6 6 6 11 1 17 -2 13 -5z"/>
<path d="M7190 3030 c0 -5 5 -10 11 -10 5 0 7 5 4 10 -3 6 -8 10 -11 10 -2 0
-4 -4 -4 -10z"/>
<path d="M6368 2993 c7 -3 16 -2 19 1 4 3 -2 6 -13 5 -11 0 -14 -3 -6 -6z"/>
<path d="M1293 2914 c-8 -21 -3 -23 50 -28 37 -4 47 -1 47 10 0 16 -7 19 -58
28 -24 4 -34 2 -39 -10z"/>
<path d="M6888 2903 c7 -3 16 -2 19 1 4 3 -2 6 -13 5 -11 0 -14 -3 -6 -6z"/>
<path d="M6938 2893 c7 -3 16 -2 19 1 4 3 -2 6 -13 5 -11 0 -14 -3 -6 -6z"/>
<path d="M1269 2843 c-19 -50 -120 -369 -123 -387 0 -5 10 -10 24 -11 14 -1
58 -10 97 -18 113 -26 134 -28 165 -21 28 6 31 15 5 20 -7 2 -57 12 -111 24
-55 12 -111 18 -127 15 -18 -4 -29 -2 -29 4 0 6 7 8 15 5 8 -4 15 -1 15 5 0 6
-4 11 -10 11 -5 0 -10 8 -10 18 0 13 2 14 9 4 4 -8 10 -13 12 -12 2 1 15 -3
29 -8 40 -15 130 -24 130 -13 0 5 -15 12 -32 16 -29 6 -127 36 -137 42 -2 1
18 70 45 153 l48 151 31 -7 c42 -9 48 -14 34 -30 -15 -18 -23 -16 241 -69 124
-25 232 -47 241 -49 10 -3 20 7 28 31 7 19 11 36 9 38 -6 6 -560 115 -584 115
-3 0 -9 -12 -15 -27z m128 -39 c-3 -3 -12 -4 -19 -1 -8 3 -5 6 6 6 11 1 17 -2
13 -5z m388 -74 c19 -8 19 -9 -2 -9 -12 -1 -25 4 -28 9 -7 12 2 12 30 0z
m-485 -290 c0 -5 -7 -10 -16 -10 -8 0 -12 5 -9 10 3 6 10 10 16 10 5 0 9 -4 9
-10z"/>
<path d="M7928 2793 c17 -2 47 -2 65 0 17 2 3 4 -33 4 -36 0 -50 -2 -32 -4z"/>
<path d="M8093 2785 c43 -16 57 -29 74 -67 7 -16 17 -28 23 -28 5 0 10 -5 10
-11 0 -10 57 -95 82 -124 12 -14 -2 23 -23 60 -9 17 -20 41 -24 54 -6 21 -5
22 8 10 8 -8 12 -20 9 -28 -3 -9 -1 -12 6 -7 13 8 51 -48 120 -175 35 -64 41
-81 33 -102 -14 -36 -24 -37 -316 -52 -66 -3 -135 -8 -152 -12 -26 -4 -33 -2
-33 11 0 12 -9 16 -35 16 -23 0 -35 5 -35 14 0 14 66 23 230 29 46 2 64 7 62
16 -5 26 -106 228 -129 259 -25 34 -25 35 22 33 17 -1 55 5 85 13 l55 15 -87
-2 c-50 -1 -88 -6 -88 -12 0 -5 -7 -1 -16 10 -13 17 -27 20 -92 20 -79 0 -310
-12 -394 -20 -40 -4 -48 -2 -53 15 -7 20 -43 46 -52 36 -3 -2 6 -16 20 -30 24
-24 24 -26 7 -26 -11 0 -20 6 -20 13 0 14 -31 47 -43 47 -13 0 -7 -23 10 -42
13 -14 13 -18 2 -19 -147 -10 -167 -9 -173 13 -7 30 0 34 14 9 10 -20 40 -30
40 -13 -1 21 -29 37 -66 38 -40 0 -42 0 -31 -23 5 -13 14 -23 19 -23 4 0 8 -4
8 -10 0 -17 -27 0 -38 24 -13 29 -61 41 -82 20 -13 -14 -12 -17 9 -35 17 -14
19 -19 7 -19 -18 0 -40 36 -31 50 3 6 -5 10 -19 10 -30 0 -32 -7 -10 -38 14
-20 14 -22 0 -22 -9 0 -16 6 -16 13 -1 21 -25 46 -38 38 -9 -6 -8 -14 7 -33
l20 -25 -69 -2 -68 -2 -7 31 c-7 33 -22 39 -32 14 -4 -11 1 -22 12 -30 18 -13
18 -14 -3 -14 -21 0 -26 10 -25 47 0 8 -17 11 -56 8 -31 -2 -58 -4 -61 -5 -3
-1 -35 -1 -72 0 -63 1 -66 0 -61 -19 5 -21 25 -29 74 -29 22 0 26 4 22 22 -5
18 -4 19 8 6 8 -8 20 -20 27 -26 10 -9 2 -12 -34 -12 -27 -1 -61 -4 -76 -7
-20 -5 -28 -3 -28 7 0 10 -3 9 -10 -2 -9 -13 -11 -13 -20 0 -8 13 -10 13 -10
-2 0 -9 6 -18 13 -21 25 -9 0 -15 -63 -17 -92 -2 -102 -1 -95 9 3 5 1 13 -5
16 -8 5 -7 11 1 21 9 11 9 14 -1 14 -7 0 -19 8 -26 17 -19 26 -29 8 -10 -19
24 -35 19 -42 -11 -14 -35 33 -47 24 -26 -22 9 -20 43 -117 77 -215 77 -225
71 -220 241 -228 66 -3 98 -6 72 -7 -40 -2 -48 -5 -45 -19 3 -15 17 -19 76
-23 l72 -5 0 31 0 31 113 9 c159 12 149 14 165 -28 13 -33 12 -38 -5 -55 -45
-47 -82 -96 -77 -104 6 -10 154 0 169 11 17 13 83 19 250 25 260 9 312 23 456
122 76 52 118 89 88 78 -8 -3 -79 -7 -159 -9 -168 -5 -588 -32 -642 -42 -21
-4 -38 -11 -38 -15 0 -5 -4 -9 -10 -9 -5 0 -10 7 -10 15 0 8 -4 15 -9 15 -5 0
-11 14 -15 31 -6 29 -8 31 -46 27 -27 -2 -40 0 -40 9 0 13 37 18 270 33 91 6
194 13 230 16 160 13 327 20 343 14 45 -15 -18 -29 -188 -40 -131 -9 -180 -9
-183 -1 -5 16 -22 14 -22 -2 0 -11 -36 -15 -162 -21 -149 -6 -204 -15 -182
-29 5 -3 59 -2 119 2 133 9 243 7 269 -4 14 -6 17 -5 12 3 -10 17 -1 18 173
31 127 10 157 10 175 -2 18 -11 61 -10 291 7 369 29 376 33 288 195 -50 92
-133 219 -172 263 -26 30 -76 48 -126 47 -30 0 -30 0 8 -14z m91 -31 c9 -24 7
-28 -9 -14 -17 14 -20 30 -6 30 5 0 12 -7 15 -16z m-1075 -68 c-11 -12 -14 -8
-24 24 l-7 25 20 -20 c11 -12 16 -24 11 -29z m-364 25 c-3 -5 1 -16 9 -24 19
-18 11 -27 -25 -27 -26 0 -59 34 -46 47 3 2 10 -5 17 -16 16 -31 42 -28 34 4
-4 16 -2 25 6 25 6 0 9 -4 5 -9z m-158 -23 c-3 -8 -6 -5 -6 6 -1 11 2 17 5 13
3 -3 4 -12 1 -19z m-272 -78 c3 -11 11 -20 16 -20 5 0 9 -6 9 -13 0 -7 9 -30
20 -52 12 -23 17 -48 14 -64 -4 -19 -3 -22 5 -12 8 12 11 10 17 -13 4 -19 10
-24 17 -17 7 7 7 17 -1 33 -11 21 -43 131 -39 134 1 1 37 3 80 5 l77 4 36 -85
c58 -138 81 -194 87 -211 4 -13 16 -16 54 -14 170 10 206 10 210 -3 3 -6 -6
-16 -19 -21 -21 -9 -21 -10 -3 -12 31 -3 -74 -17 -125 -17 -40 0 -42 1 -15 8
21 5 9 8 -45 7 -62 0 -67 -1 -30 -6 43 -6 41 -7 -34 -14 -210 -19 -207 -22
-286 228 -23 72 -48 140 -56 153 -8 12 -10 22 -5 22 5 0 13 -9 16 -20z m550
-270 c3 -5 -3 -10 -15 -10 -12 0 -18 5 -15 10 3 6 10 10 15 10 5 0 12 -4 15
-10z m-125 -140 c0 -5 -4 -10 -10 -10 -5 0 -10 5 -10 10 0 6 5 10 10 10 6 0
10 -4 10 -10z m430 -10 c0 -5 -5 -10 -11 -10 -5 0 -7 5 -4 10 3 6 8 10 11 10
2 0 4 -4 4 -10z m423 -7 c-7 -2 -19 -2 -25 0 -7 3 -2 5 12 5 14 0 19 -2 13 -5z"/>
<path d="M6512 2565 c0 -16 2 -22 5 -12 2 9 2 23 0 30 -3 6 -5 -1 -5 -18z"/>
<path d="M6478 2248 c5 -5 16 -8 23 -6 8 3 3 7 -10 11 -17 4 -21 3 -13 -5z"/>
<path d="M6553 2233 c15 -2 37 -2 50 0 12 2 0 4 -28 4 -27 0 -38 -2 -22 -4z"/>
<path d="M1281 2727 c-26 -78 -26 -79 1 -75 17 2 24 14 35 61 12 57 11 77 -6
77 -5 0 -18 -28 -30 -63z"/>
<path d="M7798 2783 c-23 -6 -23 -20 1 -33 28 -15 33 -13 21 10 -8 14 -8 20 0
20 6 0 13 -7 16 -15 4 -8 15 -15 27 -15 19 0 20 1 2 20 -18 20 -32 22 -67 13z"/>
<path d="M7637 2766 c-6 -15 29 -54 39 -44 3 3 2 17 -2 32 -7 28 -28 35 -37
12z"/>
<path d="M7690 2771 c0 -21 13 -41 26 -41 17 0 17 5 4 31 -11 20 -30 26 -30
10z"/>
<path d="M7736 2772 c-6 -10 30 -43 38 -35 6 6 -16 43 -26 43 -4 0 -9 -4 -12
-8z"/>
<path d="M7450 2759 c0 -5 -5 -7 -11 -3 -8 5 -8 1 0 -14 23 -43 57 -40 38 3
-12 25 -27 33 -27 14z"/>
<path d="M7490 2750 c0 -11 7 -23 15 -27 21 -7 25 -2 18 25 -7 28 -33 29 -33
2z"/>
<path d="M7530 2763 c1 -17 28 -43 44 -43 16 0 16 2 -1 25 -17 23 -43 34 -43
18z"/>
<path d="M7580 2762 c0 -16 39 -44 50 -37 8 5 6 13 -6 26 -17 19 -44 26 -44
11z"/>
<path d="M7240 2744 c0 -16 23 -44 35 -44 18 0 19 10 1 33 -12 16 -36 24 -36
11z"/>
<path d="M7290 2742 c0 -13 39 -46 46 -39 9 9 -16 47 -31 47 -8 0 -15 -4 -15
-8z"/>
<path d="M6097 2716 c-17 -13 -17 -17 -4 -43 8 -15 20 -46 27 -68 7 -22 18
-53 25 -70 24 -56 34 -96 29 -113 -4 -12 -3 -13 3 -4 7 9 15 -8 27 -55 10 -37
18 -78 18 -90 0 -13 4 -23 9 -23 5 0 9 -7 9 -15 0 -8 5 -15 10 -15 13 0 15
-12 -24 126 -41 144 -77 253 -104 315 -15 34 -17 50 -9 58 15 15 6 13 -16 -3z"/>
<path d="M6840 2724 c0 -16 23 -44 35 -44 17 0 20 16 5 25 -6 4 -8 11 -5 16 4
5 -3 9 -14 9 -12 0 -21 -3 -21 -6z"/>
<path d="M6890 2723 c0 -5 7 -16 14 -25 17 -22 40 -24 32 -2 -3 9 -6 20 -6 25
0 5 -9 9 -20 9 -11 0 -20 -3 -20 -7z"/>
<path d="M1606 2712 c-3 -6 -3 -17 0 -26 5 -12 10 -14 19 -6 9 8 14 8 17 0 5
-15 38 -1 38 16 0 8 -9 14 -19 14 -11 0 -26 3 -34 6 -8 3 -18 1 -21 -4z"/>
<path d="M6423 2711 c-34 -3 -65 -9 -69 -14 -4 -4 25 -4 65 -1 57 6 75 4 83
-7 7 -11 8 -10 6 5 -4 24 -7 24 -85 17z"/>
<path d="M1425 2690 c-16 -7 -17 -9 -3 -9 9 -1 20 4 23 9 7 11 7 11 -20 0z"/>
<path d="M1750 2677 c14 -8 32 -11 40 -8 11 4 8 7 -10 12 -42 12 -56 9 -30 -4z"/>
<path d="M1463 2673 c9 -2 25 -2 35 0 9 3 1 5 -18 5 -19 0 -27 -2 -17 -5z"/>
<path d="M1810 2664 c0 -8 5 -12 10 -9 6 4 8 11 5 16 -9 14 -15 11 -15 -7z"/>
<path d="M6380 2671 c-22 -7 -19 -9 21 -15 26 -5 55 -6 65 -3 11 3 -1 6 -26 7
l-45 3 45 7 45 7 -40 1 c-22 0 -51 -3 -65 -7z"/>
<path d="M6413 2633 c15 -2 37 -2 50 0 12 2 0 4 -28 4 -27 0 -38 -2 -22 -4z"/>
<path d="M1577 2623 c-19 -18 -2 -31 53 -40 33 -5 60 -7 60 -3 0 7 -82 50 -97
50 -5 0 -13 -3 -16 -7z"/>
<path d="M1865 2529 c-11 -17 1 -21 15 -4 8 9 8 15 2 15 -6 0 -14 -5 -17 -11z"/>
<path d="M1573 2453 c9 -2 23 -2 30 0 6 3 -1 5 -18 5 -16 0 -22 -2 -12 -5z"/>
<path d="M1640 2450 c0 -5 5 -10 10 -10 6 0 10 5 10 10 0 6 -4 10 -10 10 -5 0
-10 -4 -10 -10z"/>
<path d="M1478 2423 c7 -3 16 -2 19 1 4 3 -2 6 -13 5 -11 0 -14 -3 -6 -6z"/>
<path d="M1170 2386 c0 -17 49 -31 63 -17 7 7 1 14 -17 21 -36 13 -46 13 -46
-4z"/>
<path d="M1307 2364 c-14 -14 -7 -24 17 -24 14 0 28 5 31 10 3 6 2 10 -4 10
-5 0 -16 2 -23 5 -8 3 -17 2 -21 -1z"/>
<path d="M8138 2333 c12 -2 30 -2 40 0 9 3 -1 5 -23 4 -22 0 -30 -2 -17 -4z"/>
<path d="M7953 2323 c20 -2 54 -2 75 0 20 2 3 4 -38 4 -41 0 -58 -2 -37 -4z"/>
<path d="M2210 2292 c0 -8 81 -34 158 -51 24 -5 46 -11 48 -14 7 -6 -97 4
-135 14 -38 9 -54 3 -31 -11 10 -6 2 -7 -22 -4 -46 8 -410 -15 -423 -26 -6 -5
-24 -8 -41 -8 -16 1 -40 -5 -53 -12 -17 -9 -25 -9 -31 -1 -5 8 -14 8 -35 -3
-16 -8 -32 -13 -37 -10 -4 3 -11 -2 -14 -10 -3 -9 -10 -16 -16 -16 -5 0 1 15
13 33 l23 32 -29 -25 c-36 -31 -64 -63 -65 -72 0 -5 9 -8 20 -8 20 0 88 -19
215 -60 33 -11 80 -24 105 -30 25 -5 77 -19 115 -29 85 -24 312 -87 490 -136
168 -46 165 -45 165 -54 0 -8 -50 4 -420 100 -343 90 -495 129 -504 129 -6 0
-1 -7 10 -15 18 -13 17 -14 -11 -6 -45 11 -88 8 -93 -8 -4 -11 3 -13 28 -7 25
4 86 -9 234 -50 111 -31 257 -71 326 -89 218 -57 248 -67 253 -84 2 -11 29
-22 78 -34 41 -10 81 -20 89 -23 12 -3 15 7 16 40 2 54 23 92 105 191 63 75
130 143 166 168 18 12 33 25 33 28 0 9 -43 19 -355 89 -148 33 -286 64 -306
70 -44 12 -69 13 -69 2z"/>
<path d="M4978 2263 c12 -2 32 -2 45 0 12 2 2 4 -23 4 -25 0 -35 -2 -22 -4z"/>
<path d="M4995 2240 c-3 -5 -1 -10 4 -10 6 0 11 5 11 10 0 6 -2 10 -4 10 -3 0
-8 -4 -11 -10z"/>
<path d="M5120 2230 c0 -5 5 -10 11 -10 5 0 7 5 4 10 -3 6 -8 10 -11 10 -2 0
-4 -4 -4 -10z"/>
<path d="M5133 2193 c9 -2 23 -2 30 0 6 3 -1 5 -18 5 -16 0 -22 -2 -12 -5z"/>
<path d="M8190 2144 c-8 -1 -59 -6 -112 -9 l-98 -7 0 -35 0 -35 73 6 c39 3
116 8 170 12 80 5 97 9 93 21 -3 8 -6 23 -6 34 0 16 -7 19 -52 18 -29 -1 -60
-3 -68 -5z m76 -41 c-2 -2 -18 0 -37 4 l-34 7 30 6 c25 5 52 -7 41 -17z m-206
-3 c0 -5 -7 -10 -15 -10 -8 0 -15 5 -15 10 0 6 7 10 15 10 8 0 15 -4 15 -10z
m90 0 c-8 -5 -28 -9 -45 -9 -26 0 -27 2 -10 9 11 5 31 9 45 9 20 1 22 -1 10
-9z"/>
<path d="M5480 2022 c0 -12 19 -26 26 -19 2 2 -2 10 -11 17 -9 8 -15 8 -15 2z"/>
<path d="M5728 2013 c6 -2 18 -2 25 0 6 3 1 5 -13 5 -14 0 -19 -2 -12 -5z"/>
<path d="M5968 1993 c6 -2 18 -2 25 0 6 3 1 5 -13 5 -14 0 -19 -2 -12 -5z"/>
<path d="M6498 1953 c12 -2 32 -2 45 0 12 2 2 4 -23 4 -25 0 -35 -2 -22 -4z"/>
<path d="M6638 1943 c18 -2 45 -2 60 0 15 2 0 4 -33 4 -33 0 -45 -2 -27 -4z"/>
<path d="M6898 1923 c12 -2 32 -2 45 0 12 2 2 4 -23 4 -25 0 -35 -2 -22 -4z"/>
<path d="M7033 1913 c15 -2 37 -2 50 0 12 2 0 4 -28 4 -27 0 -38 -2 -22 -4z"/>
<path d="M8345 1893 c-49 -13 -98 -29 -108 -34 -10 -5 -41 -12 -70 -15 -29 -3
-68 -13 -87 -23 -19 -10 -69 -28 -110 -40 -253 -74 -256 -77 -188 -147 92 -93
157 -266 174 -466 4 -54 9 -66 22 -65 25 1 173 -34 204 -50 15 -7 37 -13 50
-13 21 1 20 2 -7 15 -16 7 -25 14 -18 14 6 1 19 8 28 18 19 18 76 20 120 3 60
-23 65 -17 65 68 0 91 6 118 28 127 25 10 30 -12 25 -119 l-6 -102 27 -12 c15
-7 37 -12 49 -11 19 0 19 2 -5 11 -37 13 -35 20 10 40 55 26 93 33 90 18 -3
-12 69 -36 79 -27 2 2 11 44 20 93 31 172 15 529 -22 478 -6 -9 -29 -23 -51
-31 -136 -49 -181 -64 -199 -67 -11 -2 -33 -11 -50 -19 -16 -9 -74 -27 -129
-42 -54 -14 -106 -30 -115 -34 -9 -5 -43 -16 -76 -24 -33 -9 -73 -21 -90 -28
-56 -23 -65 -21 -81 16 -20 49 -19 51 31 65 25 7 48 17 51 22 4 6 53 7 123 3
90 -5 125 -3 156 8 l40 15 -61 -5 c-65 -6 -207 14 -199 27 3 4 39 16 81 25 41
9 137 39 212 67 75 27 148 52 162 55 24 6 24 5 -10 -33 -43 -48 -110 -100
-153 -119 -22 -10 -26 -14 -13 -15 36 0 128 55 185 111 57 56 102 82 145 82
22 0 24 2 15 24 -5 14 -28 49 -51 79 -70 89 -132 101 -293 57z"/>
<path d="M7138 1903 c12 -2 32 -2 45 0 12 2 2 4 -23 4 -25 0 -35 -2 -22 -4z"/>
<path d="M6515 1880 c3 -5 8 -10 11 -10 2 0 4 5 4 10 0 6 -5 10 -11 10 -5 0
-7 -4 -4 -10z"/>
<path d="M9918 1873 c-21 -8 -38 -18 -38 -22 0 -13 49 -31 66 -24 14 5 13 9
-7 24 l-24 19 23 0 c12 0 22 5 22 10 0 12 4 13 -42 -7z"/>
<path d="M5605 1805 c3 -27 6 -61 5 -74 0 -14 3 -21 7 -17 9 8 32 -85 33 -130
0 -19 6 -34 15 -38 17 -6 21 19 5 29 -5 3 -10 16 -10 28 0 12 -14 74 -30 137
-19 72 -28 96 -25 65z"/>
<path d="M5740 1844 c0 -4 23 -100 50 -213 158 -650 194 -800 226 -936 20 -82
39 -153 42 -156 4 -3 61 -1 128 5 91 8 125 15 138 28 9 10 14 23 11 28 -4 6
-1 17 5 25 6 8 9 18 6 23 -3 6 6 12 20 15 19 3 28 -1 34 -17 9 -21 9 -21 9 2
1 36 39 29 56 -11 7 -17 16 -35 20 -38 12 -12 46 3 44 20 -4 51 33 82 47 39
l8 -23 6 25 c8 31 36 38 45 10 3 -11 11 -18 16 -14 5 3 7 9 4 14 -9 15 15 22
30 10 12 -10 18 -10 31 1 14 12 20 9 47 -21 18 -21 27 -27 22 -15 -17 46 -17
55 -2 55 9 0 21 -8 27 -18 8 -12 13 -13 16 -4 8 17 41 15 48 -3 3 -8 10 -15
16 -15 7 0 7 6 0 21 -13 24 -8 34 15 26 8 -4 15 -16 15 -27 0 -15 7 -20 29
-20 16 0 38 -3 48 -6 10 -3 5 2 -10 11 -35 20 -29 29 18 27 25 -1 35 3 35 13
0 20 39 19 46 0 8 -19 34 -19 34 0 0 17 35 21 45 5 11 -18 23 -10 18 13 -4 18
2 14 32 -18 34 -38 36 -39 50 -21 14 18 15 18 27 -9 l12 -28 105 7 c58 4 106
8 107 9 1 1 -22 92 -52 202 -73 271 -85 313 -158 590 -35 132 -69 258 -75 281
l-11 40 -227 12 c-126 7 -295 17 -378 22 -82 5 -215 12 -295 15 -80 3 -217 10
-305 15 -188 11 -275 13 -275 4z m557 -251 c-3 -10 -5 -4 -5 12 0 17 2 24 5
18 2 -7 2 -21 0 -30z m-49 -154 c-2 -31 0 -55 5 -52 4 2 7 19 7 37 0 17 4 36
9 42 5 5 12 27 14 49 3 22 4 -7 3 -63 -2 -80 0 -105 10 -109 19 -7 17 -23 -2
-23 -12 0 -15 -6 -10 -22 3 -13 6 -31 6 -40 0 -10 7 -18 15 -18 8 0 15 4 15 9
0 5 9 7 19 4 10 -3 28 0 40 6 25 14 28 3 4 -15 -17 -13 -17 -13 0 -14 9 0 17
-4 17 -10 0 -16 46 -11 61 7 13 15 11 16 -13 9 -17 -4 -28 -2 -28 4 0 5 5 10
10 10 18 0 10 39 -10 50 -11 6 -18 15 -15 20 4 6 -1 20 -9 32 -37 52 4 82 48
36 16 -17 32 -23 66 -23 25 0 48 -4 52 -10 8 -11 50 24 43 36 -7 10 57 59 78
59 9 0 18 4 21 9 8 13 69 21 189 27 87 4 110 2 122 -10 14 -13 13 -16 -2 -26
-15 -8 -13 -9 8 -4 15 3 30 1 34 -6 4 -6 15 -8 26 -5 17 6 19 1 19 -33 0 -31
-4 -41 -19 -45 -12 -3 -21 -15 -23 -33 -3 -29 -5 -30 -50 -17 -13 4 -18 0 -18
-16 0 -11 -6 -21 -13 -21 -7 0 -21 -16 -31 -35 -11 -19 -26 -35 -35 -35 -12 0
-12 -3 -3 -12 18 -18 14 -31 -8 -25 -11 3 -20 2 -20 -3 0 -4 -8 -7 -17 -6 -12
1 -17 -5 -15 -16 2 -14 -4 -18 -32 -18 -19 0 -37 -4 -40 -9 -3 -5 -35 -14 -71
-21 -36 -7 -65 -17 -65 -22 0 -5 -5 -6 -10 -3 -6 4 -18 1 -26 -6 -11 -9 -18
-9 -22 -2 -9 14 -174 4 -166 -9 9 -15 -16 -28 -53 -28 -20 0 -36 6 -42 17 -8
15 -25 18 -93 19 -114 1 -118 2 -118 19 0 8 -8 19 -19 24 -14 8 -22 6 -35 -8
-9 -10 -14 -20 -10 -23 3 -3 -7 -16 -23 -28 -20 -16 -29 -18 -32 -8 -2 7 -8
15 -12 18 -10 7 0 50 12 50 5 0 9 6 9 13 0 7 9 19 20 27 11 8 20 20 20 27 0 7
9 17 20 23 11 6 20 17 20 25 0 8 5 15 10 15 6 0 20 20 32 45 12 24 25 42 30
39 4 -3 8 13 8 35 0 39 2 41 29 41 17 0 33 5 37 12 4 7 3 8 -4 4 -7 -4 -12 -2
-12 3 0 6 6 11 13 12 8 0 8 2 -2 6 -10 4 -11 7 -1 13 7 4 15 32 19 61 7 68 14
22 9 -62z m897 -79 c3 -5 3 -21 -1 -35 -4 -18 -13 -25 -30 -25 -19 0 -24 -5
-24 -26 0 -19 -4 -25 -15 -20 -9 3 -18 -1 -21 -9 -7 -17 -34 -21 -34 -5 0 6 5
10 10 10 6 0 10 7 10 16 0 8 4 13 9 9 5 -3 17 13 27 35 20 45 31 50 37 18 3
-17 5 -14 6 10 1 31 14 42 26 22z m-1225 -25 c0 -8 -4 -15 -10 -15 -5 0 -10 7
-10 15 0 8 5 15 10 15 6 0 10 -7 10 -15z m414 -34 c3 -5 -1 -14 -8 -20 -12
-10 -13 -8 -9 8 6 23 9 25 17 12z m633 -118 c3 -7 -4 -9 -16 -6 -12 3 -18 9
-15 15 7 11 26 6 31 -9z m-40 -39 c-3 -3 -12 -4 -19 -1 -8 3 -5 6 6 6 11 1 17
-2 13 -5z m-31 -82 c-4 -3 -11 0 -16 8 -15 24 -11 33 6 15 9 -9 13 -19 10 -23z
m-92 12 c3 -8 2 -12 -4 -9 -6 3 -10 10 -10 16 0 14 7 11 14 -7z m-56 -12 c15
4 18 1 15 -13 -6 -21 -33 -25 -50 -8 -8 8 -17 7 -34 -5 -27 -18 -69 -21 -69
-5 0 6 5 9 12 7 7 -3 30 6 52 18 27 16 43 20 47 12 4 -6 16 -9 27 -6z m-488
-32 c-20 -13 -100 -13 -100 0 0 6 26 10 58 10 40 0 53 -3 42 -10z m333 4 c11
-12 -4 -26 -16 -15 -7 5 -28 11 -47 14 -31 3 -30 4 11 5 25 1 49 -1 52 -4z
m-613 -35 c0 8 2 12 5 9 3 -3 3 -13 -1 -22 -7 -19 -24 -11 -24 12 0 15 2 15
10 2 8 -12 10 -12 10 -1z m7 -81 c-3 -7 -5 -2 -5 12 0 14 2 19 5 13 2 -7 2
-19 0 -25z m93 16 c0 -14 -3 -14 -15 -4 -8 7 -15 14 -15 16 0 2 7 4 15 4 8 0
15 -7 15 -16z m43 -4 c4 -15 0 -20 -14 -20 -21 0 -26 25 -6 33 6 3 13 6 13 6
1 1 4 -8 7 -19z m277 -10 c0 -5 -5 -10 -11 -10 -5 0 -7 5 -4 10 3 6 8 10 11
10 2 0 4 -4 4 -10z m-320 -100 c0 -5 -7 -10 -15 -10 -8 0 -15 5 -15 10 0 6 7
10 15 10 8 0 15 -4 15 -10z m1180 -115 c0 -8 -4 -15 -10 -15 -5 0 -10 7 -10
15 0 8 5 15 10 15 6 0 10 -7 10 -15z m-740 -39 c0 -2 -11 -6 -25 -8 -14 -3
-25 -1 -25 3 0 5 11 9 25 9 14 0 25 -2 25 -4z m-13 -42 c-9 -9 -28 6 -21 18 4
6 10 6 17 -1 6 -6 8 -13 4 -17z"/>
<path d="M6835 1460 c-3 -5 -1 -10 4 -10 6 0 11 5 11 10 0 6 -2 10 -4 10 -3 0
-8 -4 -11 -10z"/>
<path d="M6930 1315 c0 -25 4 -35 16 -35 11 0 14 5 10 16 -3 9 -6 24 -6 35 0
10 -4 19 -10 19 -5 0 -10 -16 -10 -35z"/>
<path d="M6530 1299 c0 -5 5 -7 10 -4 6 3 10 8 10 11 0 2 -4 4 -10 4 -5 0 -10
-5 -10 -11z"/>
<path d="M6491 1277 c-6 -6 -11 -18 -11 -26 0 -13 2 -13 9 -2 7 11 11 10 20
-5 6 -11 11 -14 11 -7 0 6 3 18 6 26 7 18 -20 29 -35 14z"/>
<path d="M6237 1223 c-4 -3 -7 -14 -7 -24 0 -10 -8 -22 -17 -28 -10 -5 -15
-13 -11 -17 11 -11 35 14 43 43 6 27 3 38 -8 26z"/>
<path d="M6370 1185 c0 -19 4 -35 10 -35 12 0 24 45 15 59 -13 22 -25 10 -25
-24z"/>
<path d="M6800 1199 c0 -5 5 -7 10 -4 6 3 10 8 10 11 0 2 -4 4 -10 4 -5 0 -10
-5 -10 -11z"/>
<path d="M6321 1153 c-30 -6 -71 -32 -71 -45 0 -18 57 0 85 27 16 14 24 24 19
24 -5 -1 -20 -4 -33 -6z"/>
<path d="M6065 1140 c3 -5 8 -10 11 -10 2 0 4 5 4 10 0 6 -5 10 -11 10 -5 0
-7 -4 -4 -10z"/>
<path d="M6565 1120 c-3 -5 1 -10 9 -10 8 0 18 5 21 10 3 6 -1 10 -9 10 -8 0
-18 -4 -21 -10z"/>
<path d="M6000 1076 c0 -9 5 -16 10 -16 6 0 10 4 10 9 0 6 -4 13 -10 16 -5 3
-10 -1 -10 -9z"/>
<path d="M6343 1033 c9 -2 23 -2 30 0 6 3 -1 5 -18 5 -16 0 -22 -2 -12 -5z"/>
<path d="M7465 1840 c3 -5 8 -10 11 -10 2 0 4 5 4 10 0 6 -5 10 -11 10 -5 0
-7 -4 -4 -10z"/>
<path d="M7435 1829 c-4 -6 -5 -12 -2 -15 2 -3 7 2 10 11 7 17 1 20 -8 4z"/>
<path d="M9670 1790 c-13 -9 -12 -12 4 -25 36 -27 72 -10 42 20 -17 18 -26 18
-46 5z"/>
<path d="M9488 1753 c6 -2 18 -2 25 0 6 3 1 5 -13 5 -14 0 -19 -2 -12 -5z"/>
<path d="M10101 1729 c-24 -22 -27 -30 -9 -26 6 1 18 -10 25 -25 8 -16 21 -28
30 -28 12 0 14 7 10 35 -3 21 -2 33 4 30 20 -13 7 4 -15 18 -22 15 -25 14 -45
-4z"/>
<path d="M5431 1724 c0 -11 3 -14 6 -6 3 7 2 16 -1 19 -3 4 -6 -2 -5 -13z"/>
<path d="M9654 1733 c3 -4 17 -8 29 -10 17 -2 19 -1 7 7 -17 11 -47 14 -36 3z"/>
<path d="M5235 1709 c-4 -6 -5 -12 -2 -15 2 -3 7 2 10 11 7 17 1 20 -8 4z"/>
<path d="M9610 1710 c-12 -8 -10 -10 8 -10 13 0 20 4 17 10 -7 12 -6 12 -25 0z"/>
<path d="M5425 1690 c3 -5 8 -10 11 -10 2 0 4 5 4 10 0 6 -5 10 -11 10 -5 0
-7 -4 -4 -10z"/>
<path d="M5613 1640 c0 -52 1 -61 10 -43 6 15 7 37 0 65 l-10 43 0 -65z"/>
<path d="M8815 1673 c-7 -7 -14 -10 -16 -8 -3 2 -15 -4 -28 -14 -21 -16 -22
-20 -11 -62 7 -24 13 -82 14 -129 l2 -85 52 -54 c43 -44 52 -59 50 -85 -2 -17
1 -70 5 -118 l9 -88 50 0 c27 0 58 5 69 10 15 9 19 7 19 -7 1 -27 16 3 25 47
21 109 18 104 110 140 107 42 121 56 63 65 -130 22 -400 100 -365 106 4 1 12
3 17 4 6 1 12 3 15 4 3 0 -4 10 -14 20 -12 12 -17 27 -14 40 4 16 1 21 -16 21
-27 0 -27 6 4 35 17 15 22 26 15 30 -7 4 -24 -5 -40 -20 -33 -32 -62 -25 -33
8 10 11 13 17 6 14 -7 -5 -9 0 -6 13 3 11 9 17 15 14 5 -3 14 -2 21 4 7 5 46
19 87 31 121 36 119 35 90 51 -36 19 -180 29 -195 13z m201 -380 c-4 -4 -11
-1 -16 7 -16 25 -11 35 7 17 9 -9 13 -20 9 -24z"/>
<path d="M7510 1663 c-96 -8 -176 -16 -178 -18 -2 -2 2 -28 9 -58 12 -52 14
-54 36 -46 13 5 89 8 168 7 83 -2 149 2 154 7 5 6 11 35 13 65 2 43 0 55 -12
56 -8 1 -94 -5 -190 -13z"/>
<path d="M9882 1657 c-32 -19 -32 -20 -13 -33 11 -8 21 -24 23 -37 2 -14 10
-22 23 -22 26 0 35 52 11 61 -9 3 -16 14 -16 23 0 13 2 13 9 2 6 -10 13 -11
27 -3 18 10 18 11 -1 18 -11 4 -22 8 -25 9 -3 1 -20 -7 -38 -18z"/>
<path d="M5024 1643 c-16 -16 -74 -120 -74 -135 0 -3 23 -6 52 -6 42 0 55 -4
66 -21 17 -24 29 -27 29 -6 0 14 -53 45 -77 45 -7 0 -10 7 -6 15 3 8 1 15 -4
15 -11 0 29 83 42 88 11 5 10 22 0 22 -5 0 -18 -8 -28 -17z"/>
<path d="M200 1616 c0 -8 5 -18 10 -21 6 -3 10 3 10 14 0 12 -4 21 -10 21 -5
0 -10 -6 -10 -14z"/>
<path d="M8993 1623 c-18 -2 -33 -8 -33 -13 0 -4 -18 -11 -40 -15 -22 -4 -40
-11 -40 -16 0 -12 37 -12 45 1 9 14 101 12 125 -2 16 -10 24 -10 40 -1 10 7
26 10 35 7 8 -3 15 -1 15 5 0 10 -14 15 -34 12 -5 -1 -12 3 -16 8 -8 13 -55
20 -97 14z"/>
<path d="M9450 1574 c-76 -13 -76 -13 -40 -39 51 -37 110 -95 110 -107 0 -6
10 -3 25 6 13 9 30 16 38 16 7 0 21 6 31 13 17 13 17 15 0 53 -9 21 -16 43
-15 47 1 5 -3 6 -9 2 -5 -3 -10 -3 -10 2 0 9 -89 13 -130 7z"/>
<path d="M9220 1561 c0 -6 -15 -11 -32 -12 l-33 -1 30 -9 c34 -10 77 -1 72 15
-5 15 -37 21 -37 7z"/>
<path d="M5305 1540 l-30 -8 27 -1 c15 0 30 4 33 9 3 6 5 9 3 9 -2 -1 -16 -5
-33 -9z"/>
<path d="M8975 1540 c3 -5 13 -10 21 -10 16 0 18 -18 5 -39 -8 -12 -13 -12
-24 -3 -8 7 -23 9 -33 6 -16 -6 -17 -5 -6 7 6 7 12 17 12 21 0 19 -26 6 -37
-19 -17 -35 -16 -58 1 -72 8 -7 63 -23 123 -36 59 -13 133 -30 163 -38 64 -18
190 -32 175 -20 -23 19 -13 32 29 38 67 10 75 19 43 49 -16 14 -32 26 -36 26
-5 0 -15 8 -22 17 -12 14 -12 16 0 8 10 -5 12 -4 7 3 -4 7 -16 12 -27 12 -10
0 -19 4 -19 10 0 5 -11 12 -25 16 -14 3 -23 10 -20 14 2 4 -17 3 -43 -2 -71
-15 -171 -10 -209 10 -27 15 -87 16 -78 2z m145 -55 c0 -9 -6 -12 -15 -9 -8 4
-12 10 -9 15 8 14 24 10 24 -6z m-26 -16 c56 -3 59 -14 9 -28 -39 -11 -79 -14
-55 -4 6 2 12 9 12 14 0 6 -6 9 -12 8 -7 -1 -20 -1 -28 0 -13 1 -13 3 0 10 8
6 17 8 21 5 4 -2 27 -5 53 -5z m212 -76 c-8 -9 -36 17 -36 33 0 10 7 7 21 -7
11 -11 18 -23 15 -26z"/>
<path d="M10025 1530 c-3 -5 -1 -10 4 -10 6 0 11 5 11 10 0 6 -2 10 -4 10 -3
0 -8 -4 -11 -10z"/>
<path d="M10055 1484 c-60 -29 -113 -54 -117 -54 -4 0 -9 9 -13 20 -7 21 -9
20 -58 -25 -12 -11 -29 -18 -38 -17 -22 4 -35 -16 -21 -30 11 -11 52 1 137 38
17 7 75 32 131 56 90 39 120 59 97 65 -4 1 -57 -23 -118 -53z"/>
<path d="M9988 1513 c7 -3 16 -2 19 1 4 3 -2 6 -13 5 -11 0 -14 -3 -6 -6z"/>
<path d="M7595 1505 c-5 -2 -57 -8 -114 -14 -57 -5 -105 -12 -107 -14 -2 -2 2
-18 9 -36 7 -17 17 -28 20 -24 4 4 26 8 50 9 207 13 237 17 237 27 0 7 3 22 6
35 6 21 3 22 -42 21 -27 0 -53 -2 -59 -4z"/>
<path d="M9731 1433 c-1 -7 6 -21 13 -30 8 -10 24 -29 35 -43 16 -19 19 -20
14 -6 -3 11 -14 27 -22 36 -9 9 -21 25 -28 36 -6 10 -12 13 -12 7z"/>
<path d="M8912 1395 c11 -11 88 -24 88 -14 0 5 -13 9 -29 9 -16 0 -38 3 -48 7
-10 3 -15 3 -11 -2z"/>
<path d="M9020 1370 c8 -5 22 -9 30 -9 10 0 8 3 -5 9 -27 12 -43 12 -25 0z"/>
<path d="M9078 1353 c7 -3 16 -2 19 1 4 3 -2 6 -13 5 -11 0 -14 -3 -6 -6z"/>
<path d="M9630 1334 c-30 -13 -63 -27 -72 -30 -10 -3 -18 -10 -18 -15 0 -6
-10 -14 -22 -19 -19 -7 -20 -9 -5 -9 22 -1 208 58 221 70 5 5 16 1 23 -9 13
-15 13 -15 4 4 -20 41 -52 43 -131 8z"/>
<path d="M9130 1340 c34 -11 60 -11 35 0 -11 5 -29 8 -40 8 -16 0 -15 -2 5 -8z"/>
<path d="M9217 1320 c10 -9 133 -33 139 -27 3 2 -30 11 -71 19 -42 9 -73 12
-68 8z"/>
<path d="M9655 1250 c-19 -5 -6 -6 35 -3 36 3 67 7 69 9 8 7 -73 2 -104 -6z"/>
<path d="M8763 1175 c-6 -44 -16 -81 -22 -83 -22 -7 -10 -22 17 -22 15 0 32
-4 38 -9 5 -5 27 -12 49 -16 l40 -6 -28 18 c-16 10 -31 30 -34 46 -3 15 -10
30 -14 33 -5 3 -10 17 -10 32 l-2 27 -6 -25 c-4 -18 -7 -10 -11 30 l-5 55 -12
-80z"/>
<path d="M9558 1213 c7 -3 16 -2 19 1 4 3 -2 6 -13 5 -11 0 -14 -3 -6 -6z"/>
<path d="M511 1181 c-7 -4 -28 -7 -47 -5 -28 2 -35 -1 -32 -14 3 -13 14 -17
46 -16 24 0 47 5 52 10 13 13 -3 35 -19 25z"/>
<path d="M7543 1116 c-28 -6 -54 -14 -57 -17 -7 -7 10 -102 24 -134 4 -11 14
-41 20 -67 11 -42 16 -48 39 -48 70 1 73 4 70 102 -3 84 -5 91 -26 99 -13 5
-23 10 -23 13 0 2 16 14 35 26 61 38 26 49 -82 26z"/>
<path d="M518 1113 c7 -3 16 -2 19 1 4 3 -2 6 -13 5 -11 0 -14 -3 -6 -6z"/>
<path d="M9080 1084 c-6 -14 -10 -31 -10 -38 0 -6 -5 -17 -12 -24 -8 -8 -5
-14 16 -22 15 -5 32 -10 37 -10 5 0 9 -4 9 -9 0 -5 6 -11 13 -14 8 -3 13 10
14 44 2 27 -1 49 -6 49 -5 0 -12 9 -16 19 -10 31 -34 34 -45 5z m39 -23 c15
-10 8 -61 -9 -61 -14 0 -32 39 -26 56 6 16 15 17 35 5z"/>
<path d="M5178 1063 c7 -3 16 -2 19 1 4 3 -2 6 -13 5 -11 0 -14 -3 -6 -6z"/>
<path d="M9588 1051 c-20 -10 -47 -21 -61 -25 -22 -5 -42 -38 -30 -49 2 -3 38
9 79 26 53 22 74 36 74 49 0 22 -15 22 -62 -1z"/>
<path d="M9410 979 c-65 -33 -73 -34 -105 -13 -23 15 -25 15 -31 -2 -3 -11
-10 -30 -14 -44 -5 -14 -14 -49 -20 -77 -12 -55 -23 -65 -38 -36 -6 10 -16 14
-26 10 -13 -5 -16 0 -16 28 0 18 -4 37 -10 40 -5 3 -10 17 -10 31 0 30 -13 31
-39 3 -16 -18 -27 -21 -57 -16 -26 4 -48 0 -75 -14 -45 -23 -47 -28 -16 -57
18 -17 23 -34 25 -89 2 -37 6 -71 8 -75 3 -4 9 -60 15 -124 9 -99 14 -122 35
-149 13 -17 24 -37 24 -42 0 -6 6 -13 13 -15 13 -5 148 8 207 20 l35 7 -4 146
c-4 159 0 184 29 192 19 5 20 -1 20 -163 l0 -168 28 -7 c15 -4 67 -11 115 -15
l88 -9 48 47 49 47 7 165 c3 91 9 176 12 189 3 13 2 21 -3 18 -5 -3 -31 0 -57
7 -46 12 -47 13 -24 23 16 8 26 22 29 42 3 17 1 31 -3 31 -5 0 -51 -19 -104
-42 -97 -44 -128 -75 -60 -62 23 4 35 2 35 -5 0 -6 -7 -11 -16 -11 -8 0 -12
-4 -9 -10 4 -6 -14 -10 -47 -9 -45 0 -50 2 -30 11 20 10 32 38 15 38 -3 0 -31
-12 -60 -26 -30 -14 -56 -24 -58 -22 -10 12 -14 47 -5 53 15 9 12 45 -5 45 -8
0 -19 9 -25 20 -9 16 -8 22 6 27 10 4 20 0 26 -11 6 -11 14 -14 21 -8 7 5 41
21 77 35 54 21 66 30 68 51 4 31 1 31 -68 -5z m-380 -129 c8 -5 11 -12 8 -16
-10 -9 -58 4 -58 16 0 13 30 13 50 0z m255 -20 c3 -5 1 -10 -4 -10 -6 0 -11 5
-11 10 0 6 2 10 4 10 3 0 8 -4 11 -10z m295 0 c0 -5 -7 -10 -16 -10 -8 0 -12
5 -9 10 3 6 10 10 16 10 5 0 9 -4 9 -10z m55 -29 l40 -7 -32 -17 c-18 -9 -45
-17 -60 -17 -23 0 -28 5 -29 25 -2 28 9 30 81 16z m-77 -127 c9 -2 12 -34 12
-114 l0 -110 -37 0 c-21 0 -62 3 -90 6 l-53 7 0 107 c0 59 3 110 7 113 6 7
134 0 161 -9z m-280 -106 l-3 -113 -84 -8 c-45 -5 -84 -7 -86 -5 -2 2 -6 53
-10 115 l-7 112 43 4 c24 2 68 4 97 5 l53 2 -3 -112z"/>
<path d="M9410 662 c0 -6 6 -13 13 -15 9 -4 8 -8 -3 -16 -17 -12 -24 -125 -10
-151 7 -10 9 0 10 33 0 31 4 46 10 42 6 -4 8 -23 5 -47 -5 -29 -3 -38 5 -33 8
5 11 37 8 98 -2 78 -6 92 -20 95 -10 2 -18 -1 -18 -6z"/>
<path d="M9480 650 c20 -13 40 -13 40 0 0 6 -12 10 -27 10 -22 0 -25 -2 -13
-10z"/>
<path d="M9170 650 c0 -5 7 -10 16 -10 8 0 12 5 9 10 -3 6 -10 10 -16 10 -5 0
-9 -4 -9 -10z"/>
<path d="M9116 642 c-2 -4 4 -8 14 -9 11 -1 22 2 25 8 4 5 -3 9 -14 9 -11 0
-22 -4 -25 -8z"/>
<path d="M9114 603 c3 -8 6 -44 6 -79 0 -62 1 -64 25 -64 28 0 29 3 19 97 -6
56 -9 61 -31 61 -17 0 -23 -5 -19 -15z m36 -94 c0 -24 -4 -38 -10 -34 -5 3
-10 22 -10 41 0 19 5 34 10 34 6 0 10 -18 10 -41z"/>
<path d="M8483 910 c-18 -14 -31 -16 -57 -10 -37 8 -94 -12 -103 -37 -3 -8 12
-30 36 -52 l41 -38 0 -91 0 -91 37 -7 c31 -6 39 -3 55 16 19 24 24 50 9 50 -5
0 -12 -6 -14 -12 -3 -7 -6 -3 -6 9 -1 12 5 23 12 25 8 3 14 42 17 127 3 68 3
124 0 126 -3 2 -15 -5 -27 -15z m-73 -60 c13 -9 13 -11 1 -19 -16 -10 -53 8
-45 21 7 11 26 10 44 -2z"/>
<path d="M8173 906 c-7 -12 -17 -13 -51 -5 -43 9 -55 5 -111 -38 -2 -1 15 -20
38 -42 l41 -39 6 -93 c3 -55 10 -97 17 -101 21 -13 53 -9 70 10 21 23 22 43 2
36 -11 -4 -15 0 -15 16 0 18 3 20 14 11 12 -10 14 7 15 109 1 66 4 127 7 135
8 20 -22 20 -33 1z m-75 -42 c33 -9 28 -34 -7 -34 -31 0 -47 13 -36 30 7 12
12 12 43 4z"/>
<path d="M8672 848 c3 -7 15 -15 27 -16 16 -3 22 1 19 10 -3 7 -15 15 -27 16
-16 3 -22 -1 -19 -10z"/>
<path d="M9375 830 c-3 -5 -2 -10 4 -10 5 0 13 5 16 10 3 6 2 10 -4 10 -5 0
-13 -4 -16 -10z"/>
<path d="M6720 654 c0 -8 5 -12 10 -9 6 3 10 10 10 16 0 5 -4 9 -10 9 -5 0
-10 -7 -10 -16z"/>
<path d="M8790 655 c0 -8 5 -15 10 -15 6 0 10 7 10 15 0 8 -4 15 -10 15 -5 0
-10 -7 -10 -15z"/>
<path d="M7248 653 c6 -2 18 -2 25 0 6 3 1 5 -13 5 -14 0 -19 -2 -12 -5z"/>
<path d="M6615 640 c3 -5 8 -10 11 -10 2 0 4 5 4 10 0 6 -5 10 -11 10 -5 0 -7
-4 -4 -10z"/>
<path d="M6350 616 c0 -7 11 -16 25 -18 29 -6 30 -5 9 16 -19 20 -34 21 -34 2z"/>
<path d="M6968 623 c6 -2 18 -2 25 0 6 3 1 5 -13 5 -14 0 -19 -2 -12 -5z"/>
<path d="M6528 583 c12 -2 30 -2 40 0 9 3 -1 5 -23 4 -22 0 -30 -2 -17 -4z"/>
<path d="M6408 573 c6 -2 18 -2 25 0 6 3 1 5 -13 5 -14 0 -19 -2 -12 -5z"/>
<path d="M850 555 c0 -9 8 -18 18 -21 9 -3 25 -10 34 -15 26 -13 48 -11 48 5
0 8 -18 21 -40 30 -50 20 -60 20 -60 1z"/>
<path d="M7505 519 c-82 -9 -172 -19 -200 -23 -69 -8 -493 -57 -530 -61 -17
-2 -73 -6 -125 -10 -52 -3 -124 -11 -160 -16 -36 -6 -98 -13 -137 -16 -82 -6
-95 -18 -30 -26 100 -13 212 -29 357 -53 187 -31 221 -31 420 -4 219 29 732
96 943 122 97 12 177 26 177 31 0 6 -28 7 -65 5 -40 -4 -63 -2 -62 4 3 13 14
12 -318 48 -55 6 -104 12 -110 13 -5 2 -77 -4 -160 -14z m458 -76 c-7 -2 -21
-2 -30 0 -10 3 -4 5 12 5 17 0 24 -2 18 -5z"/>
<path d="M1010 494 c0 -13 15 -25 47 -39 26 -11 50 -21 53 -23 3 -1 6 6 7 17
2 18 -6 23 -94 58 -8 3 -13 -3 -13 -13z"/>
<path d="M3440 479 c0 -5 5 -7 10 -4 6 3 10 8 10 11 0 2 -4 4 -10 4 -5 0 -10
-5 -10 -11z"/>
<path d="M2104 406 c-8 -22 3 -33 18 -18 9 9 9 15 0 24 -9 9 -13 7 -18 -6z"/>
<path d="M5993 376 c4 -14 47 -21 47 -8 0 5 -11 12 -25 15 -16 3 -24 0 -22 -7z"/>
<path d="M6197 343 c-3 -5 -3 -14 1 -20 10 -16 54 -20 59 -5 3 7 -3 12 -14 12
-11 0 -24 5 -30 11 -6 6 -13 7 -16 2z"/>
<path d="M1318 313 c6 -2 18 -2 25 0 6 3 1 5 -13 5 -14 0 -19 -2 -12 -5z"/>
</g>
</svg>
