<?xml version="1.0" standalone="no"?>
<!DOCTYPE svg PUBLIC "-//W3C//DTD SVG 20010904//EN"
 "http://www.w3.org/TR/2001/REC-SVG-20010904/DTD/svg10.dtd">
<svg version="1.0" xmlns="http://www.w3.org/2000/svg"
 width="1802.000000pt" height="1240.000000pt" viewBox="0 0 1802.000000 1240.000000"
 preserveAspectRatio="xMidYMid meet">

<g transform="translate(0.000000,1240.000000) scale(0.100000,-0.100000)"
fill="#000000" stroke="none">
<path d="M2750 9473 c-14 -9 -28 -22 -32 -27 -4 -6 -8 -1753 -8 -3882 0 -3796
0 -3872 19 -3895 19 -24 23 -24 225 -27 l206 -3 0 -335 0 -334 5873 2 5872 3
3 335 2 335 191 2 c164 2 194 5 210 19 19 17 19 120 19 3900 l0 3883 -26 20
-27 21 -6251 0 c-5856 0 -6253 -1 -6276 -17z m12280 -3743 c0 -1908 -3 -3470
-7 -3470 -5 0 -2709 -2 -6011 -3 l-6002 -2 0 3473 0 3472 6010 0 6010 0 0
-3470z m-301 -4086 l31 -6 0 -259 0 -259 -5725 0 -5725 0 0 250 c0 138 0 253
0 258 0 4 2244 9 4987 12 2744 3 5306 6 5694 8 389 1 721 -1 738 -4z"/>
<path d="M5003 8548 c-46 -7 -62 -14 -66 -28 -3 -12 -18 -21 -41 -26 -20 -3
-41 -15 -47 -25 -6 -12 -21 -19 -38 -19 -47 0 -55 -19 -48 -123 11 -158 53
-263 146 -360 52 -55 207 -167 231 -167 17 0 173 107 208 143 28 29 31 36 18
46 -12 10 -24 4 -66 -34 -28 -25 -76 -62 -106 -82 l-54 -36 -71 47 c-139 93
-199 165 -244 295 -14 39 -28 106 -32 147 -7 81 -1 94 42 94 11 0 26 9 32 20
7 10 28 22 47 26 21 3 38 13 41 24 16 50 349 48 362 -1 3 -11 21 -24 46 -31
23 -7 42 -20 45 -30 2 -10 14 -18 26 -18 46 0 51 -12 39 -97 -12 -80 -7 -100
22 -90 13 6 15 23 13 109 l-3 102 -38 9 c-21 5 -41 16 -44 23 -3 8 -22 18 -43
24 -22 6 -40 18 -42 28 -9 34 -197 51 -335 30z"/>
<path d="M5067 8473 c-4 -3 -7 -85 -7 -182 0 -96 -4 -171 -8 -165 -21 24 -42
140 -42 234 0 55 -3 100 -6 100 -3 0 -14 -5 -25 -10 -17 -10 -19 -22 -19 -135
0 -69 -4 -125 -8 -125 -15 0 -33 66 -39 143 -6 83 -19 97 -48 54 -26 -40 -5
-160 47 -264 12 -24 24 -43 27 -43 4 0 14 12 23 27 16 26 17 27 24 8 35 -96
108 -215 133 -215 3 0 5 130 3 290 l-3 290 -23 0 c-12 0 -26 -3 -29 -7z"/>
<path d="M5156 8288 c-10 -301 -8 -388 10 -388 8 0 46 30 85 68 71 67 71 68
74 125 2 44 8 64 25 82 23 24 23 25 5 45 -18 20 -18 21 18 54 47 42 48 72 5
113 -39 37 -152 93 -189 93 l-26 0 -7 -192z m143 94 c41 -30 48 -48 26 -72
-18 -20 -85 -60 -100 -60 -3 0 -5 36 -5 81 l0 81 28 -6 c15 -4 38 -15 51 -24z
m5 -197 c11 -30 -48 -152 -75 -154 -12 -2 -7 154 5 161 20 13 64 9 70 -7z"/>
<path d="M12456 8434 c-61 -22 -106 -62 -132 -118 -57 -122 -11 -254 111 -319
35 -19 56 -22 172 -22 168 0 175 4 183 126 l5 81 55 -90 c56 -93 88 -122 135
-122 61 0 88 47 84 145 -1 30 -1 57 2 59 3 3 27 -32 54 -77 27 -45 59 -92 72
-104 29 -30 95 -31 123 -3 19 19 20 33 20 240 l0 220 -25 0 -25 0 0 -199 c0
-164 -3 -201 -15 -211 -8 -7 -21 -10 -28 -7 -7 3 -60 80 -118 171 -57 91 -107
166 -111 166 -5 0 -8 -69 -8 -154 0 -85 -3 -161 -6 -170 -3 -9 -14 -16 -24
-16 -19 0 -29 14 -161 222 -41 65 -77 118 -81 118 -5 0 -8 -71 -8 -158 0 -110
-4 -162 -12 -170 -15 -15 -205 -16 -245 -1 -74 28 -130 128 -113 202 21 96 78
140 190 147 73 5 75 6 78 33 l3 27 -68 -1 c-37 0 -86 -7 -107 -15z"/>
<path d="M12677 8424 c-26 -26 -27 -30 -29 -173 l-3 -146 -40 -3 c-58 -5 -101
6 -135 34 -26 22 -30 33 -30 73 0 71 50 111 139 111 48 0 51 2 51 25 0 24 -2
25 -73 25 -61 0 -78 -4 -111 -26 -93 -63 -88 -217 9 -271 35 -20 55 -23 148
-23 l107 0 0 158 c0 86 4 163 9 170 19 30 46 0 145 -158 57 -90 109 -166 115
-168 8 -3 11 45 11 162 0 141 2 168 15 173 21 8 45 -16 89 -90 74 -122 153
-241 162 -244 7 -2 10 67 10 194 l-1 198 -27 3 -27 3 -3 -113 -3 -113 -55 90
c-30 49 -65 100 -79 112 -33 31 -84 30 -116 -2 -22 -22 -25 -32 -25 -105 0
-44 -4 -80 -8 -80 -4 0 -30 39 -57 86 -28 48 -61 95 -74 105 -34 27 -83 24
-114 -7z"/>
<path d="M8660 8320 c0 -47 4 -80 10 -80 6 0 10 28 10 63 l0 62 41 -62 c23
-35 46 -63 50 -63 5 0 9 37 9 82 0 45 -3 78 -7 75 -4 -4 -5 -32 -4 -62 1 -30
-2 -55 -6 -55 -5 0 -27 27 -48 60 -21 33 -42 60 -47 60 -4 0 -8 -36 -8 -80z"/>
<path d="M8826 8322 c-29 -85 -31 -96 -16 -87 6 3 10 15 10 26 0 10 5 19 10
19 6 0 10 12 10 28 0 28 15 60 24 52 2 -3 6 -19 8 -35 2 -20 -1 -29 -9 -27 -7
1 -13 -2 -13 -8 0 -5 9 -10 20 -10 13 0 20 -7 20 -19 0 -19 17 -38 25 -29 7 7
-46 168 -55 168 -5 0 -20 -35 -34 -78z"/>
<path d="M8910 8389 c0 -5 11 -9 25 -9 24 0 25 -2 25 -76 0 -51 3 -73 11 -69
6 4 9 35 8 73 -2 62 -1 67 19 70 44 7 21 20 -33 20 -30 0 -55 -5 -55 -9z"/>
<path d="M9040 8314 c0 -54 4 -83 10 -79 6 3 10 42 10 86 0 46 -4 79 -10 79
-6 0 -10 -35 -10 -86z"/>
<path d="M9117 8388 c-51 -39 -35 -138 25 -153 63 -16 101 103 47 148 -25 20
-49 22 -72 5z m61 -20 c7 -7 12 -30 12 -53 0 -88 -80 -89 -83 -1 -1 55 39 86
71 54z"/>
<path d="M9241 8320 c-1 -51 2 -80 9 -80 6 0 10 23 10 55 0 30 3 55 8 55 4 0
22 -25 40 -55 18 -30 37 -55 43 -55 5 0 9 36 9 81 0 54 -3 78 -11 74 -6 -4 -9
-27 -6 -56 3 -27 2 -51 -2 -54 -4 -2 -25 23 -46 55 -21 33 -42 60 -45 60 -3 0
-7 -36 -9 -80z"/>
<path d="M9410 8333 c-13 -38 -25 -74 -28 -80 -2 -7 1 -13 6 -13 6 0 12 10 14
22 4 32 60 32 68 -1 3 -12 10 -21 15 -19 6 2 9 5 9 8 -16 58 -48 150 -54 150
-3 0 -17 -30 -30 -67z m42 7 c0 -11 1 -25 2 -32 1 -6 -7 -12 -16 -14 -12 -1
-18 4 -18 16 0 44 28 71 32 30z"/>
<path d="M9520 8320 l0 -80 43 2 c36 1 38 2 10 5 l-33 4 0 75 c0 43 -4 74 -10
74 -6 0 -10 -33 -10 -80z"/>
<path d="M5565 8156 c10 -14 19 -26 22 -26 7 0 -17 39 -28 46 -6 3 -3 -5 6
-20z"/>
<path d="M8682 8173 c-22 -9 -44 -63 -37 -92 11 -42 34 -61 77 -61 37 0 38 1
38 35 0 19 -4 35 -10 35 -5 0 -10 -13 -10 -30 0 -45 -43 -41 -69 7 -17 33 -14
51 14 79 17 17 32 23 45 19 11 -4 20 -2 20 4 0 11 -44 14 -68 4z"/>
<path d="M8800 8100 l0 -80 38 1 c36 1 36 2 7 8 -25 5 -30 11 -30 36 0 25 4
30 23 28 12 -2 22 2 22 7 0 6 -11 10 -25 10 -20 0 -25 5 -25 25 0 20 5 25 25
25 14 0 25 5 25 10 0 6 -13 10 -30 10 l-30 0 0 -80z"/>
<path d="M8916 8164 c-21 -21 -30 -58 -21 -91 10 -41 24 -53 61 -53 41 0 64
29 64 82 0 64 -64 103 -104 62z m76 -18 c24 -35 -2 -116 -37 -116 -20 0 -45
40 -45 72 0 52 56 82 82 44z"/>
<path d="M9065 8155 c-31 -30 -32 -73 -4 -109 17 -22 28 -27 58 -24 33 3 36 6
39 36 2 18 -1 32 -7 32 -6 0 -11 -13 -11 -30 0 -23 -4 -30 -20 -30 -29 0 -60
35 -60 68 0 41 22 65 59 65 17 0 31 4 31 9 0 19 -62 7 -85 -17z"/>
<path d="M9190 8100 c0 -47 4 -80 10 -80 6 0 10 14 10 30 0 19 5 30 14 30 7 0
19 -13 26 -30 7 -16 16 -30 21 -30 12 0 11 6 -6 39 -13 26 -13 30 0 41 18 15
20 51 3 68 -7 7 -27 12 -45 12 l-33 0 0 -80z m70 36 c0 -26 -24 -51 -40 -41
-5 3 -10 19 -10 36 0 24 4 29 25 29 20 0 25 -5 25 -24z"/>
<path d="M9331 8118 c-10 -35 -22 -71 -26 -80 -4 -10 -3 -18 3 -18 6 0 12 10
14 22 5 34 56 36 68 2 13 -34 31 -31 20 4 -5 15 -16 51 -25 80 -9 28 -21 52
-25 52 -5 0 -18 -28 -29 -62z m43 -10 c5 -24 3 -28 -14 -28 -21 0 -24 10 -14
48 8 27 19 19 28 -20z"/>
<path d="M9440 8100 c0 -47 4 -80 10 -80 6 0 10 13 10 28 0 21 7 30 30 39 62
23 46 93 -22 93 l-28 0 0 -80z m68 39 c3 -17 -22 -49 -39 -49 -5 0 -9 16 -9
36 0 31 3 35 22 32 13 -2 24 -10 26 -19z"/>
<path d="M9550 8100 c0 -47 4 -80 10 -80 6 0 10 18 10 40 0 39 1 40 35 40 34
0 35 -1 35 -40 0 -22 5 -40 10 -40 6 0 10 33 10 80 0 47 -4 80 -10 80 -5 0
-10 -16 -10 -35 0 -33 -2 -35 -35 -35 -33 0 -35 2 -35 35 0 19 -4 35 -10 35
-6 0 -10 -33 -10 -80z"/>
<path d="M9700 8178 c-5 -39 -3 -158 2 -158 9 0 15 151 6 157 -5 2 -8 3 -8 1z"/>
<path d="M9782 8173 c-7 -3 -19 -18 -28 -35 -29 -56 4 -118 63 -118 18 0 33 4
33 9 0 4 -11 6 -24 4 -26 -5 -66 36 -66 69 0 29 44 68 69 61 12 -3 21 -1 21 6
0 11 -44 14 -68 4z"/>
<path d="M5380 8126 c0 -8 5 -16 12 -18 7 -3 12 -18 13 -34 0 -19 5 -29 15
-29 11 0 14 9 13 33 -2 42 12 41 27 -3 16 -49 41 -45 64 11 10 25 16 48 13 51
-12 11 -37 -7 -37 -27 0 -28 -17 -25 -24 5 -6 22 -12 25 -51 25 -32 0 -45 -4
-45 -14z"/>
<path d="M6453 8013 c-39 -19 -59 -62 -44 -91 16 -30 55 -35 99 -14 28 15 49
18 87 13 28 -3 50 -10 50 -16 -1 -5 -4 -33 -8 -60 -8 -50 -9 -51 -57 -68 -59
-21 -95 -65 -85 -104 3 -14 23 -42 43 -60 20 -19 58 -55 83 -79 47 -45 75 -53
108 -33 28 18 71 3 71 -24 0 -13 10 -33 23 -45 23 -22 27 -22 410 -22 l386 0
23 -24 c30 -31 62 -40 80 -23 7 7 22 48 32 91 19 74 21 77 61 95 45 20 92 69
101 107 9 37 -2 40 -20 6 -20 -39 -68 -79 -106 -87 -25 -6 -32 -14 -45 -57 -8
-27 -17 -65 -21 -84 -8 -43 -20 -51 -45 -28 -24 22 -24 61 1 143 15 51 17 68
7 85 -6 12 -10 28 -9 36 2 10 0 11 -5 3 -5 -6 -26 -13 -47 -15 -60 -5 -59 -29
0 -26 37 2 49 -1 52 -13 3 -16 -26 -33 -82 -50 -37 -11 -76 11 -76 43 l0 22
-16 -22 c-24 -35 -51 -28 -82 23 -15 24 -30 45 -33 45 -4 0 -7 -19 -7 -41 -1
-23 -5 -46 -11 -52 -15 -15 -41 0 -41 25 l0 22 -15 -21 c-23 -33 -83 -48 -129
-33 -58 19 -86 72 -45 85 21 7 21 7 -2 19 -14 6 -27 25 -31 41 -4 17 -4 -4 -2
-45 4 -55 2 -80 -8 -94 -13 -17 -15 -17 -31 -1 -13 12 -17 36 -18 93 -1 75 -2
76 -9 25 -17 -113 -113 -172 -262 -161 -38 3 -56 0 -64 -11 -14 -18 -42 -8
-52 19 -4 10 -28 33 -53 49 -64 40 -104 93 -90 119 11 20 78 52 110 52 15 0
22 12 31 51 15 63 40 64 54 2 l9 -41 56 -4 c31 -2 58 0 59 4 6 12 37 9 51 -4
11 -11 11 -9 1 12 l-13 25 28 -25 c38 -36 54 -70 44 -97 -9 -24 -39 -32 -39
-11 0 6 -7 4 -18 -5 -20 -18 -52 -22 -67 -8 -6 5 -31 12 -56 15 l-45 7 -3 -51
-2 -50 58 0 c116 0 178 35 189 105 5 36 2 46 -28 85 -42 56 -122 111 -203 139
-115 41 -255 49 -255 15 0 -15 -10 -17 -34 -8 -21 8 -20 27 3 48 26 23 143 32
223 17 100 -19 219 -82 292 -154 35 -34 62 -58 60 -52 -3 6 13 11 38 11 57 2
101 14 111 30 4 8 19 14 32 14 30 0 59 41 50 69 -9 30 -63 71 -92 71 -14 0
-36 9 -50 20 -51 40 -113 11 -113 -52 0 -18 -7 -41 -15 -51 -7 -11 -11 -26 -7
-35 3 -10 -18 4 -46 29 -59 51 -176 113 -243 128 -68 16 -199 12 -236 -6z
m655 -35 c7 -7 12 -23 12 -37 l0 -24 26 24 c23 22 27 23 52 8 51 -28 37 -89
-20 -89 -23 0 -29 -4 -24 -16 3 -8 2 -12 -4 -9 -6 3 -20 -1 -32 -9 -31 -22
-74 -20 -98 4 -25 25 -25 31 1 64 16 21 18 30 9 41 -30 36 44 77 78 43z m182
-477 c0 -58 -16 -74 -41 -43 -22 28 -29 28 -29 -3 0 -14 -4 -25 -10 -25 -5 0
-10 23 -10 50 0 28 3 50 8 50 4 0 19 -14 34 -32 l27 -33 1 43 c0 23 5 42 10
42 6 0 10 -22 10 -49z m-332 22 c2 -8 -6 -13 -20 -13 -27 0 -68 -26 -68 -42 0
-14 97 -3 116 13 8 6 14 20 14 30 0 11 5 19 10 19 6 0 10 -7 10 -15 0 -8 5
-15 10 -15 6 0 10 9 10 20 0 25 26 27 32 3 7 -26 -3 -93 -13 -93 -5 0 -9 9 -9
19 0 28 -20 37 -27 12 -6 -25 -18 -27 -27 -4 -6 15 -8 15 -19 -1 -10 -13 -25
-17 -67 -14 -51 3 -55 5 -55 28 0 43 90 89 103 53z m211 -32 c23 -42 21 -72
-3 -38 -18 23 -43 22 -51 -3 -8 -25 -25 -26 -25 -1 0 31 30 93 43 88 7 -2 23
-23 36 -46z m221 37 c0 -7 3 -30 6 -50 8 -44 -11 -52 -41 -18 -24 27 -33 25
-27 -5 2 -14 0 -25 -6 -25 -13 0 -24 72 -12 84 6 6 19 1 35 -14 l25 -23 0 31
c0 18 5 32 10 32 6 0 10 -6 10 -12z m103 -8 c-4 -5 -21 -10 -38 -13 l-30 -4
33 -2 c37 -1 44 -21 7 -21 -14 0 -25 -5 -25 -11 0 -7 11 -9 30 -5 22 4 30 2
30 -9 0 -11 -11 -15 -39 -15 -41 0 -51 13 -51 67 0 18 7 22 38 25 42 4 58 0
45 -12z m47 -20 c0 -40 0 -40 39 -40 57 0 60 -17 3 -22 -26 -3 -50 -3 -54 -1
-12 6 -9 103 2 103 6 0 10 -18 10 -40z"/>
<path d="M7035 7879 c-11 -17 1 -21 15 -4 8 9 8 15 2 15 -6 0 -14 -5 -17 -11z"/>
<path d="M7085 7864 l-30 -25 30 6 c32 7 55 22 55 36 0 17 -25 9 -55 -17z"/>
<path d="M7125 7500 c-3 -5 -1 -10 4 -10 6 0 11 5 11 10 0 6 -2 10 -4 10 -3 0
-8 -4 -11 -10z"/>
<path d="M10397 7973 c-4 -3 -7 -64 -7 -135 l0 -128 40 0 c40 0 40 0 40 39 0
39 1 40 38 43 35 3 37 5 37 38 0 33 -2 35 -37 38 -25 2 -38 8 -38 18 0 10 13
14 45 14 l45 0 0 40 0 40 -78 0 c-43 0 -82 -3 -85 -7z"/>
<path d="M10790 7973 c0 -5 16 -34 36 -67 l35 -59 -40 -68 -39 -69 41 0 c37 0
44 4 60 32 l18 32 21 -32 c17 -27 26 -32 59 -32 21 0 39 3 39 6 0 4 -17 34
-37 67 l-36 60 31 62 c18 33 32 64 32 68 0 4 -16 7 -35 7 -26 0 -39 -6 -51
-25 -9 -14 -20 -25 -24 -25 -4 0 -12 11 -18 25 -10 21 -19 25 -52 25 -22 0
-40 -3 -40 -7z"/>
<path d="M10605 7937 c-19 -19 -37 -46 -41 -60 -23 -93 63 -182 156 -162 41 9
88 58 96 100 9 50 -2 83 -41 122 -29 29 -39 33 -85 33 -46 0 -56 -4 -85 -33z
m105 -93 c0 -66 -2 -75 -17 -72 -14 3 -19 15 -21 62 -4 68 1 86 23 86 12 0 15
-14 15 -76z"/>
<path d="M7407 7823 c-4 -3 -7 -13 -7 -22 1 -13 3 -13 11 2 11 19 8 33 -4 20z"/>
<path d="M7447 7819 c7 -7 15 -10 18 -7 3 3 -2 9 -12 12 -14 6 -15 5 -6 -5z"/>
<path d="M7164 7785 c-18 -14 -18 -14 4 -8 12 3 22 9 22 14 0 12 -3 11 -26 -6z"/>
<path d="M7435 7753 c6 -46 23 -98 30 -91 2 2 -4 33 -15 69 -17 54 -19 57 -15
22z"/>
<path d="M7520 7747 c0 -18 28 -42 37 -33 4 3 -3 15 -15 26 -16 15 -22 17 -22
7z"/>
<path d="M7240 7733 c-78 -6 -89 -23 -14 -23 37 0 68 6 80 15 14 10 15 14 4
13 -8 -1 -40 -3 -70 -5z"/>
<path d="M7610 7720 c0 -13 60 -13 80 0 11 7 2 10 -32 10 -27 0 -48 -4 -48
-10z"/>
<path d="M6602 7710 c-69 -10 -72 -24 -14 -61 28 -17 54 -31 58 -30 7 1 10 89
3 94 -2 2 -23 0 -47 -3z m26 -27 c-10 -2 -26 -2 -35 0 -10 3 -2 5 17 5 19 0
27 -2 18 -5z"/>
<path d="M6720 7713 c0 -10 111 -35 119 -27 3 3 0 9 -5 14 -14 14 -114 25
-114 13z"/>
<path d="M7820 7682 c-32 -47 -34 -52 -22 -52 18 0 62 49 62 70 0 30 -12 24
-40 -18z m22 -4 c-7 -7 -12 -8 -12 -2 0 14 12 26 19 19 2 -3 -1 -11 -7 -17z"/>
<path d="M7740 7690 c-6 -11 -8 -20 -6 -20 3 0 10 9 16 20 6 11 8 20 6 20 -3
0 -10 -9 -16 -20z"/>
<path d="M7522 7670 c0 -19 2 -27 5 -17 2 9 2 25 0 35 -3 9 -5 1 -5 -18z"/>
<path d="M10790 7682 c-28 -13 -56 -37 -73 -62 -22 -32 -22 -104 1 -142 20
-35 79 -68 122 -68 43 0 102 33 123 68 9 17 17 50 17 76 0 40 -5 52 -38 88
-33 35 -45 41 -88 44 -27 2 -56 0 -64 -4z m95 -77 c35 -34 34 -86 -1 -114 -15
-12 -34 -21 -44 -21 -34 0 -70 39 -70 76 0 40 37 84 70 84 11 0 32 -11 45 -25z"/>
<path d="M11550 7683 c-33 -12 -50 -37 -50 -74 0 -39 19 -60 83 -87 30 -13 36
-39 11 -49 -9 -3 -21 3 -30 16 -12 16 -21 20 -42 15 -35 -9 -34 -8 -27 -36 8
-32 53 -58 99 -58 77 0 114 85 60 135 -15 14 -31 25 -36 25 -20 0 -56 32 -51
46 7 18 27 18 43 -1 17 -20 59 -19 67 2 9 23 -49 73 -85 72 -15 0 -34 -3 -42
-6z"/>
<path d="M10400 7677 c0 -5 32 -78 86 -195 41 -88 58 -91 94 -15 14 29 28 53
32 53 4 0 6 -24 5 -52 -2 -53 -2 -53 28 -53 l30 0 3 133 3 132 -39 0 -39 0
-29 -75 c-16 -41 -31 -75 -35 -75 -3 0 -20 33 -37 73 -29 69 -32 72 -66 75
-20 2 -36 1 -36 -1z"/>
<path d="M10971 7668 c0 -7 19 -67 42 -133 l42 -120 35 0 35 0 42 120 c23 66
42 126 42 133 1 7 -12 12 -33 12 l-34 0 -23 -85 c-13 -47 -26 -85 -29 -85 -3
0 -16 38 -29 85 l-23 85 -34 0 c-21 0 -34 -5 -33 -12z"/>
<path d="M11232 7548 l3 -133 30 0 30 0 3 133 3 132 -36 0 -36 0 3 -132z"/>
<path d="M11322 7548 l3 -133 72 -3 c70 -3 73 -2 79 22 9 36 -3 48 -45 44 -31
-3 -36 0 -39 20 -3 20 1 22 37 22 39 0 41 2 41 29 0 27 -3 30 -37 33 -26 2
-39 8 -41 20 -3 13 6 17 40 20 39 3 43 6 46 31 l3 27 -81 0 -81 0 3 -132z"/>
<path d="M7260 7650 c0 -5 4 -10 9 -10 6 0 13 5 16 10 3 6 -1 10 -9 10 -9 0
-16 -4 -16 -10z"/>
<path d="M7156 7642 c-11 -11 7 -22 35 -22 17 0 28 4 25 9 -7 10 -53 20 -60
13z"/>
<path d="M10393 7475 l2 -60 48 -3 c26 -2 47 1 47 5 0 4 -23 33 -50 63 l-50
55 3 -60z"/>
<path d="M9245 7358 c-16 -50 -95 -405 -95 -431 0 -16 7 -18 57 -15 l57 3 22
100 c13 55 23 110 24 123 1 47 17 18 56 -100 l40 -123 65 0 64 0 47 215 c26
118 47 221 48 228 0 10 -15 12 -57 10 l-58 -3 -25 -117 c-14 -64 -28 -119 -31
-122 -3 -3 -24 49 -46 117 l-40 122 -62 3 c-43 2 -63 -1 -66 -10z"/>
<path d="M8660 7300 c-62 -57 -67 -60 -118 -60 -53 0 -58 -3 -64 -45 -3 -18 3
-20 50 -23 45 -3 52 -6 48 -20 -3 -9 -14 -60 -25 -113 -11 -52 -21 -102 -23
-110 -2 -11 11 -15 54 -17 l57 -3 7 38 c3 21 15 72 25 113 10 41 19 83 19 93
0 14 9 17 44 17 l45 0 43 -130 42 -130 61 0 61 0 90 158 c49 86 91 160 92 165
2 4 -23 7 -55 7 l-58 0 -53 -95 c-30 -52 -57 -95 -61 -95 -3 0 -20 42 -36 93
l-31 92 -82 3 -82 3 6 27 c3 15 10 40 15 56 16 52 9 49 -71 -24z"/>
<path d="M12730 7239 c-179 -19 -399 -77 -511 -135 -240 -126 -174 -273 152
-338 166 -33 323 -41 484 -26 395 36 691 154 712 283 7 47 -13 78 -75 118
-136 86 -471 129 -762 98z m487 -28 c92 -24 133 -40 133 -53 0 -11 -91 -128
-100 -128 -4 0 -15 9 -25 20 -10 11 -31 20 -48 20 l-29 0 36 -45 c37 -44 37
-45 19 -70 -10 -13 -23 -25 -29 -25 -6 0 -21 26 -34 58 -40 101 -60 105 -107
23 -15 -28 -31 -51 -35 -51 -4 0 -8 24 -10 52 -4 68 -24 74 -63 19 l-28 -41
-36 42 c-56 63 -71 51 -71 -58 0 -64 3 -85 13 -81 8 2 12 22 11 55 -1 29 2 52
5 52 3 0 18 -14 33 -32 l27 -33 31 33 c17 17 33 32 35 32 3 0 3 -19 1 -42 -2
-22 -2 -47 1 -55 8 -20 46 -16 66 7 11 14 29 20 55 20 26 0 45 -7 57 -20 27
-30 66 -26 90 10 11 16 25 30 30 30 6 0 23 -16 38 -35 l28 -35 -64 -30 c-76
-36 -226 -75 -339 -90 -101 -12 -301 -13 -386 0 -85 12 -202 49 -209 66 -2 7
9 33 27 58 29 43 34 46 75 46 34 0 47 -5 55 -21 8 -14 19 -19 38 -17 25 3 27
7 30 55 2 34 8 53 18 57 9 3 12 2 9 -4 -9 -15 74 -110 96 -110 17 0 19 8 19
90 0 53 -4 90 -10 90 -5 0 -10 -25 -10 -55 0 -30 -4 -55 -9 -55 -6 0 -29 25
-53 55 -23 30 -51 55 -60 55 -15 0 -18 -10 -18 -65 0 -36 -4 -65 -8 -65 -5 0
-22 29 -37 66 -39 92 -51 87 -133 -55 l-66 -113 -33 36 c-54 59 -42 121 39
191 87 74 284 143 474 165 131 15 366 5 461 -19z m201 -104 c30 -45 28 -92 -5
-140 -43 -62 -59 -65 -98 -20 -19 21 -34 43 -35 49 0 11 100 144 109 144 3 0
16 -15 29 -33z m-981 -126 c13 -35 9 -41 -29 -41 -33 0 -33 1 -13 40 19 38 28
38 42 1z m660 0 c13 -35 9 -41 -29 -41 -31 0 -34 7 -16 45 15 33 31 32 45 -4z"/>
<path d="M12720 6980 c0 -82 2 -91 18 -88 15 3 17 15 17 88 0 73 -2 85 -17 88
-16 3 -18 -6 -18 -88z"/>
<path d="M5057 7124 c-4 -4 -7 -57 -7 -118 0 -99 -2 -112 -22 -133 l-21 -23
460 0 460 0 22 24 c20 21 21 31 19 137 l-3 114 -451 3 c-247 1 -453 -1 -457
-4z m161 -70 c12 -8 22 -25 22 -37 l-1 -22 -19 23 c-12 15 -28 22 -41 20 -33
-5 -35 -26 -2 -33 62 -13 80 -46 43 -80 -16 -15 -26 -17 -47 -9 -28 10 -52 39
-40 50 3 4 15 -3 25 -16 14 -17 24 -21 41 -15 32 10 23 39 -14 43 -37 5 -55
19 -55 43 0 18 35 49 55 49 6 0 21 -7 33 -16z m132 -6 c11 -12 20 -28 20 -35
0 -22 -38 -53 -65 -53 -18 0 -25 -5 -25 -20 0 -11 -4 -20 -10 -20 -6 0 -10 26
-10 59 0 51 3 62 22 75 30 21 43 20 68 -6z m161 -7 c16 -16 29 -39 29 -51 0
-25 -51 -80 -75 -80 -9 0 -29 7 -45 15 -52 27 -53 102 -2 129 40 22 60 19 93
-13z m129 9 c24 -24 25 -47 4 -71 -12 -14 -13 -22 -4 -38 14 -28 -5 -28 -22
-1 -7 11 -21 20 -30 20 -11 0 -18 -8 -18 -20 0 -11 -4 -20 -10 -20 -6 0 -10
26 -10 59 0 51 3 62 22 75 30 21 44 20 68 -4z m133 11 c17 -2 -5 -21 -24 -21
-17 0 -19 -7 -19 -60 0 -33 -4 -60 -10 -60 -6 0 -10 27 -10 60 0 53 -2 60 -20
60 -18 0 -26 10 -16 21 3 3 58 3 99 0z m99 -8 c19 -17 24 -43 8 -43 -5 0 -10
6 -10 14 0 16 -33 27 -50 16 -20 -12 -3 -40 24 -40 24 0 56 -23 56 -41 0 -16
-40 -49 -60 -49 -21 0 -60 33 -60 50 0 19 28 10 33 -11 7 -28 52 -23 52 6 0
14 -9 21 -34 26 -30 6 -50 22 -51 40 0 12 42 49 57 49 9 0 25 -7 35 -17z"/>
<path d="M5287 7033 c-4 -3 -7 -15 -7 -25 0 -30 54 -21 58 10 3 17 -1 22 -21
22 -13 0 -27 -3 -30 -7z"/>
<path d="M5410 7021 c-15 -29 -12 -49 10 -71 24 -24 53 -26 74 -4 19 18 21 65
4 82 -20 20 -76 15 -88 -7z"/>
<path d="M5578 7015 c-5 -22 -2 -25 22 -25 28 0 41 15 33 38 -3 6 -15 12 -28
12 -16 0 -24 -7 -27 -25z"/>
<path d="M4391 7105 c-2 -5 -2 -41 -1 -80 1 -61 4 -73 26 -92 31 -28 54 -29
88 -2 32 25 37 86 8 112 -20 19 -68 22 -92 7 -12 -8 -16 -2 -21 28 -3 20 -7
33 -8 27z m107 -71 c43 -30 17 -104 -36 -104 -57 0 -85 73 -40 104 12 9 29 16
38 16 9 0 26 -7 38 -16z"/>
<path d="M4570 7040 c-63 -63 25 -166 98 -114 32 22 27 36 -7 16 -38 -22 -82
-8 -95 31 -8 22 -6 31 14 52 27 29 47 31 78 9 34 -23 29 -47 -8 -42 -17 3 -33
1 -36 -4 -3 -4 13 -8 36 -8 51 0 62 21 30 56 -29 30 -82 32 -110 4z"/>
<path d="M4718 6995 c-3 -71 -1 -85 13 -85 5 0 9 34 9 75 0 92 -17 100 -22 10z"/>
<path d="M4772 7048 c-17 -17 -16 -141 1 -135 8 2 11 20 9 54 -3 35 1 53 12
62 12 11 20 6 45 -31 17 -24 37 -53 46 -65 19 -28 46 -29 69 -4 13 14 16 33
14 72 -4 75 -26 77 -30 2 -4 -75 -19 -75 -70 0 -41 58 -69 72 -96 45z"/>
<path d="M8488 6743 c-13 -60 -23 -110 -21 -112 2 -3 14 6 27 18 15 15 28 43
35 82 7 32 14 59 16 59 3 0 12 -14 21 -31 l16 -31 35 33 35 34 -6 -40 c-4 -22
-9 -48 -12 -57 -4 -14 0 -18 18 -18 22 0 26 7 37 68 7 37 15 75 18 85 8 29
-40 21 -72 -13 -16 -16 -34 -30 -40 -30 -6 0 -16 14 -22 30 -8 22 -18 30 -36
30 -22 0 -25 -7 -49 -107z"/>
<path d="M8763 6816 c-30 -27 -37 -41 -37 -71 0 -91 113 -102 171 -16 28 42
29 71 3 99 -33 35 -91 30 -137 -12z m95 -18 c18 -18 15 -39 -10 -65 -34 -36
-78 -25 -78 21 0 43 59 73 88 44z"/>
<path d="M8933 6838 c4 -7 16 -46 29 -85 20 -67 24 -73 49 -73 24 0 33 10 68
76 46 86 48 94 22 94 -12 0 -28 -18 -47 -55 -16 -30 -32 -55 -35 -55 -4 0 -13
24 -21 53 -13 45 -18 52 -42 55 -20 3 -27 0 -23 -10z"/>
<path d="M9157 6843 c-3 -5 -10 -35 -17 -68 -6 -33 -14 -68 -17 -78 -4 -15 0
-18 18 -15 19 2 26 14 40 73 10 39 18 76 18 83 1 13 -35 17 -42 5z"/>
<path d="M9234 6813 c-3 -21 -12 -59 -19 -85 l-14 -48 59 0 c32 0 62 5 65 10
4 6 -8 10 -30 10 -32 0 -36 3 -33 23 2 18 10 23 41 25 50 4 52 32 2 32 -19 0
-35 3 -35 8 1 19 18 31 49 34 19 2 36 9 39 16 3 9 -13 12 -57 12 l-60 0 -7
-37z"/>
<path d="M9402 6830 c-33 -31 -28 -57 13 -77 19 -9 35 -22 35 -29 0 -15 -28
-26 -35 -14 -8 13 -55 13 -55 1 0 -24 34 -43 68 -37 75 12 99 76 38 101 -19 8
-37 19 -41 25 -9 14 24 25 37 12 10 -10 48 -5 48 7 0 34 -75 41 -108 11z"/>
<path d="M10884 6736 c-26 -26 -34 -42 -34 -71 0 -72 44 -115 119 -115 49 0
87 30 102 80 10 33 9 44 -8 77 -23 45 -53 63 -106 63 -31 0 -46 -7 -73 -34z
m105 0 c11 -13 5 -46 -8 -46 -14 0 -5 -37 13 -55 21 -21 18 -43 -10 -62 -19
-12 -24 -11 -44 5 -17 13 -21 24 -16 40 4 12 12 22 17 22 13 0 11 44 -2 57
-16 16 -1 53 20 53 10 0 24 -6 30 -14z"/>
<path d="M7722 6734 c-27 -19 -28 -36 -3 -58 21 -19 54 -10 65 19 8 22 -7 18
-22 -5 -7 -12 -18 -18 -24 -14 -7 5 -6 11 6 19 14 11 15 13 1 19 -9 3 -15 0
-15 -10 0 -8 -5 -12 -10 -9 -19 12 11 37 37 30 28 -7 30 0 5 14 -14 7 -25 6
-40 -5z"/>
<path d="M7448 6711 c-44 -15 -96 -50 -119 -82 -11 -16 -24 -29 -27 -29 -4 0
-16 16 -27 37 -35 64 -62 73 -213 73 l-132 0 2 -247 3 -248 105 -3 c58 -2 120
0 138 3 40 7 98 56 106 90 8 32 17 32 44 -5 12 -16 43 -42 69 -57 41 -24 59
-28 123 -28 64 0 82 4 123 28 88 52 134 142 124 248 -8 93 -55 162 -140 206
-36 18 -140 26 -179 14z m-290 -131 c22 -35 0 -60 -53 -60 l-45 0 0 40 0 40
43 0 c32 0 45 -5 55 -20z m445 -23 c63 -59 56 -154 -15 -197 -85 -52 -187 4
-188 103 0 78 48 126 127 127 34 0 48 -6 76 -33z m-337 -114 c-3 -3 -13 0 -22
8 -14 12 -14 14 3 27 16 11 18 11 21 -8 2 -12 1 -24 -2 -27z m-106 -53 c19
-36 -3 -60 -55 -60 l-45 0 0 40 0 40 45 0 c34 0 47 -5 55 -20z"/>
<path d="M7484 6561 c-30 -13 -64 -59 -64 -88 0 -94 111 -142 172 -74 19 22
28 42 28 66 0 65 -78 120 -136 96z"/>
<path d="M10400 6650 l0 -70 39 0 c48 0 59 13 57 70 -2 60 -10 70 -57 70 l-39
0 0 -70z m63 35 c1 -5 -6 -11 -15 -13 -11 -2 -18 3 -18 13 0 17 30 18 33 0z
m7 -60 c0 -8 -9 -15 -20 -15 -11 0 -20 7 -20 15 0 8 9 15 20 15 11 0 20 -7 20
-15z"/>
<path d="M10510 6650 l0 -70 45 0 c33 0 45 4 45 15 0 10 -10 15 -30 15 -30 0
-30 1 -30 55 0 42 -3 55 -15 55 -12 0 -15 -14 -15 -70z"/>
<path d="M10608 6674 c-4 -60 10 -88 45 -92 44 -5 57 13 57 79 0 33 -4 59 -10
59 -5 0 -10 -22 -10 -48 0 -50 -13 -74 -36 -65 -10 3 -14 22 -14 59 0 40 -4
54 -14 54 -9 0 -15 -15 -18 -46z"/>
<path d="M10730 6650 l0 -70 45 0 c33 0 45 4 45 15 0 10 -10 15 -30 15 -37 0
-41 27 -5 32 33 4 33 22 0 26 -33 4 -27 26 8 30 44 5 30 22 -18 22 l-45 0 0
-70z"/>
<path d="M11119 6693 c-17 -43 -39 -105 -39 -109 0 -11 32 -2 36 11 4 8 17 15
30 15 14 0 27 -7 30 -15 4 -9 19 -15 35 -15 28 0 29 2 29 45 0 56 11 57 31 3
11 -30 22 -44 37 -46 19 -3 21 2 24 55 3 50 6 58 23 58 17 0 20 -8 23 -57 2
-43 7 -58 17 -58 11 0 15 14 15 56 0 47 3 57 20 61 44 12 16 23 -56 23 l-77 0
6 -40 c3 -22 2 -40 -2 -40 -5 0 -16 18 -26 40 -13 30 -24 40 -41 40 -21 0 -23
-5 -26 -57 l-3 -58 -19 58 c-22 65 -49 77 -67 30z m41 -39 c0 -8 -7 -14 -15
-14 -17 0 -18 2 -9 24 7 18 24 12 24 -10z"/>
<path d="M6550 6460 l0 -250 65 0 65 0 0 95 0 95 45 0 45 0 0 -95 0 -96 68 3
67 3 3 248 2 247 -70 0 -70 0 0 -90 0 -90 -45 0 -45 0 0 90 0 90 -65 0 -65 0
0 -250z"/>
<path d="M10400 6370 l0 -160 55 0 c42 0 55 3 55 15 0 11 -12 15 -45 15 l-46
0 3 58 3 57 38 3 c20 2 37 7 37 12 0 5 -17 10 -37 12 l-38 3 0 60 0 60 43 3
c61 5 52 22 -13 22 l-55 0 0 -160z"/>
<path d="M10559 6456 l26 -75 -27 -82 c-15 -46 -26 -85 -23 -87 10 -11 26 14
42 68 9 33 21 60 24 60 4 0 17 -29 29 -65 12 -36 27 -65 35 -65 9 0 5 23 -17
83 l-30 82 22 65 c12 36 24 71 27 78 2 6 -2 12 -9 12 -9 0 -22 -23 -32 -55 -9
-30 -20 -55 -24 -55 -4 0 -15 24 -23 53 -9 29 -22 53 -31 55 -12 2 -10 -11 11
-72z"/>
<path d="M10685 6520 c-4 -6 5 -10 19 -10 l26 0 0 -150 c0 -127 2 -150 15
-150 13 0 15 23 15 150 l0 150 25 0 c14 0 25 5 25 10 0 6 -26 10 -59 10 -33 0
-63 -4 -66 -10z"/>
<path d="M10830 6370 c0 -136 2 -160 15 -160 12 0 15 14 15 66 0 56 2 65 17
62 10 -2 27 -29 42 -65 14 -35 32 -63 39 -63 17 0 16 4 -14 71 l-26 58 26 31
c56 67 14 160 -73 160 l-41 0 0 -160z m88 124 c17 -11 22 -25 22 -56 0 -48
-22 -78 -57 -78 -22 0 -23 3 -23 75 0 65 2 75 18 75 10 0 28 -7 40 -16z"/>
<path d="M11000 6370 l0 -160 55 0 c42 0 55 3 55 15 0 11 -12 15 -45 15 l-45
0 0 60 0 60 40 0 c51 0 53 18 3 22 l-38 3 0 60 0 60 43 3 c61 5 52 22 -13 22
l-55 0 0 -160z"/>
<path d="M11140 6525 c-5 -88 1 -310 9 -313 7 -2 11 43 13 125 l3 128 24 -77
c13 -43 27 -78 30 -78 3 0 17 35 31 77 l25 77 3 -128 c2 -95 6 -126 15 -123 9
3 12 46 12 158 0 130 -2 154 -15 154 -10 0 -23 -25 -38 -70 -13 -38 -26 -73
-30 -77 -4 -4 -18 29 -31 73 -15 48 -29 79 -37 79 -8 0 -14 -2 -14 -5z"/>
<path d="M11340 6370 l0 -160 55 0 c42 0 55 3 55 15 0 11 -12 15 -45 15 l-45
0 0 60 0 60 40 0 c51 0 53 18 3 22 l-38 3 -3 63 -3 62 46 0 c25 0 45 5 45 10
0 6 -25 10 -55 10 l-55 0 0 -160z"/>
<path d="M5150 6075 l0 -65 195 0 195 0 0 65 0 65 -195 0 -195 0 0 -65z"/>
<path d="M8956 6058 c-8 -18 -20 -52 -27 -75 -6 -24 -16 -43 -20 -43 -5 0 -22
29 -38 64 -27 61 -46 84 -58 73 -3 -3 18 -55 47 -114 l52 -108 38 105 c22 58
39 111 39 118 2 24 -20 11 -33 -20z"/>
<path d="M9002 6039 c2 -6 8 -10 13 -10 5 0 11 4 13 10 2 6 -4 11 -13 11 -9 0
-15 -5 -13 -11z"/>
<path d="M9464 6034 c-54 -12 -96 -96 -80 -159 11 -44 58 -85 98 -85 32 0 36
-3 47 -41 7 -23 15 -47 18 -54 6 -18 -37 -39 -106 -54 -57 -12 -70 -9 -54 11
13 16 54 128 48 128 -10 0 -75 -143 -69 -152 7 -11 102 -2 142 13 66 25 121
71 146 122 48 95 27 189 -55 250 -26 19 -94 30 -135 21z m96 -21 c0 -2 -5 -14
-11 -26 -9 -20 -9 -20 11 2 l21 24 25 -24 25 -24 -28 -24 c-20 -17 -22 -21 -8
-16 45 17 51 16 62 -7 13 -28 5 -91 -11 -85 -62 23 -75 17 -21 -10 l34 -18
-18 -40 c-10 -23 -30 -49 -45 -58 l-26 -18 -20 46 c-24 57 -24 50 1 84 28 38
28 85 -1 116 -13 14 -25 23 -28 20 -3 -2 -12 -1 -21 4 -11 6 -25 0 -46 -20
-16 -16 -25 -29 -19 -29 6 0 18 8 27 18 22 25 71 18 87 -12 16 -30 9 -81 -10
-81 -8 0 -18 -8 -22 -17 -10 -24 -43 -23 -68 2 -11 11 -24 20 -29 20 -14 0
-20 28 -20 80 1 34 7 52 27 73 31 33 36 33 50 5 l11 -23 0 22 c1 12 6 23 13
25 14 5 58 -2 58 -9z"/>
<path d="M9487 5913 c-11 -10 -8 -33 4 -33 5 0 7 5 4 10 -3 6 -2 10 4 10 17 0
23 -20 11 -35 -8 -10 -9 -15 -2 -15 17 0 25 39 12 55 -14 16 -23 19 -33 8z"/>
<path d="M9444 5874 c3 -9 6 -18 6 -20 0 -2 7 -4 15 -4 13 0 13 3 3 20 -15 24
-33 27 -24 4z"/>
<path d="M8478 6023 c-10 -2 -18 -6 -18 -7 0 -14 40 -189 44 -193 3 -3 20 -3
39 1 92 17 124 123 55 181 -29 24 -72 31 -120 18z m112 -45 c27 -30 26 -73 -5
-103 -43 -44 -61 -34 -79 44 -9 39 -16 72 -16 75 0 4 18 6 40 6 27 0 45 -6 60
-22z"/>
<path d="M9305 6009 c-10 -15 3 -25 16 -12 7 7 7 13 1 17 -6 3 -14 1 -17 -5z"/>
<path d="M9007 5993 c-11 -10 -8 -113 3 -113 6 0 10 27 10 60 0 61 -1 65 -13
53z"/>
<path d="M9050 5970 c0 -15 -3 -42 -6 -59 -5 -24 -3 -31 10 -31 12 0 16 10 16
39 0 47 22 70 46 50 12 -10 14 -23 9 -57 -5 -34 -4 -43 7 -40 16 6 24 96 9
111 -6 6 -29 12 -51 13 -38 2 -40 0 -40 -26z"/>
<path d="M8678 5969 c-12 -7 -18 -22 -18 -49 0 -32 5 -43 26 -57 21 -13 30
-14 45 -5 10 7 26 12 34 12 16 0 19 26 9 79 -6 28 -10 31 -43 31 -20 0 -44 -5
-53 -11z m73 -36 c11 -29 -18 -67 -44 -58 -23 9 -33 51 -16 71 17 21 50 14 60
-13z"/>
<path d="M9187 5962 c-10 -10 -17 -30 -17 -44 0 -39 56 -78 79 -55 17 17 13
25 -12 20 -44 -9 -63 47 -25 71 13 8 23 8 38 -2 18 -11 20 -10 20 8 0 16 -7
20 -33 20 -20 0 -41 -8 -50 -18z"/>
<path d="M9297 5956 c-13 -33 -19 -106 -9 -106 6 0 13 14 16 30 3 17 9 44 12
60 6 30 -9 43 -19 16z"/>
<path d="M4795 5880 c-27 -82 -27 -100 4 -100 17 0 26 14 46 75 5 16 10 13 37
-28 43 -67 64 -62 94 23 27 77 29 99 9 106 -21 9 -42 -11 -49 -46 -7 -40 -18
-38 -50 10 -41 63 -59 55 -91 -40z"/>
<path d="M5077 5953 c-15 -27 -48 -146 -43 -158 10 -27 43 -17 55 15 8 25 15
30 43 30 30 0 34 -3 33 -27 0 -21 5 -29 21 -31 19 -3 25 7 49 77 14 44 24 85
20 91 -13 21 -42 9 -56 -22 -11 -26 -21 -34 -47 -36 -31 -3 -32 -2 -30 30 3
27 -1 34 -19 36 -11 2 -23 0 -26 -5z"/>
<path d="M5335 5950 c-14 -23 -52 -146 -48 -157 10 -27 44 -13 59 23 l15 37
38 -37 c20 -20 44 -36 53 -36 27 0 28 28 3 58 l-24 29 37 24 c20 13 38 32 40
42 6 31 -26 30 -79 -3 -35 -21 -50 -26 -46 -16 4 9 4 23 1 31 -7 17 -40 20
-49 5z"/>
<path d="M12374 5845 c-18 -14 -17 -14 11 -4 27 9 67 7 113 -7 9 -3 6 2 -8 10
-32 20 -91 20 -116 1z"/>
<path d="M12808 5843 c7 -3 16 -2 19 1 4 3 -2 6 -13 5 -11 0 -14 -3 -6 -6z"/>
<path d="M8933 5799 c14 -8 15 -14 6 -32 -11 -21 -10 -21 6 -5 21 19 13 48
-12 48 -17 -1 -17 -1 0 -11z"/>
<path d="M8890 5771 c0 -37 10 -62 21 -55 5 2 19 0 31 -7 14 -7 10 0 -11 18
-26 22 -33 35 -29 51 4 12 2 22 -3 22 -5 0 -9 -13 -9 -29z"/>
<path d="M9071 5784 c-1 -11 -7 -28 -14 -37 -11 -16 -14 -15 -30 13 -10 16
-22 30 -28 30 -14 0 -12 -5 25 -45 l34 -37 12 36 c6 20 9 42 7 49 -3 6 -6 3
-6 -9z"/>
<path d="M8680 5755 c0 -14 4 -25 9 -25 5 0 8 11 7 25 -1 33 -16 33 -16 0z"/>
<path d="M8810 5760 c-8 -9 -16 -27 -17 -41 -3 -23 -2 -23 9 -4 16 30 16 30
38 10 25 -22 26 -9 2 26 -15 23 -18 24 -32 9z"/>
<path d="M9111 5764 c0 -11 3 -14 6 -6 3 7 2 16 -1 19 -3 4 -6 -2 -5 -13z"/>
<path d="M9227 5773 c-4 -3 -7 -17 -7 -30 0 -12 -4 -23 -8 -23 -15 0 -30 22
-25 36 3 8 0 14 -6 14 -16 0 -14 -15 8 -51 17 -28 20 -30 29 -13 11 22 24 74
19 74 -2 0 -7 -3 -10 -7z"/>
<path d="M13140 5716 c23 -31 46 -56 51 -56 11 0 -68 103 -83 109 -6 2 9 -22
32 -53z"/>
<path d="M13332 5745 c0 -16 2 -22 5 -12 2 9 2 23 0 30 -3 6 -5 -1 -5 -18z"/>
<path d="M8589 5718 c4 -24 12 -43 21 -46 12 -4 13 -2 3 9 -7 7 -13 28 -13 46
0 18 -4 33 -8 33 -5 0 -6 -19 -3 -42z"/>
<path d="M8980 5740 c0 -11 2 -20 4 -20 2 0 6 9 9 20 3 11 1 20 -4 20 -5 0 -9
-9 -9 -20z"/>
<path d="M9274 5738 l-19 -23 22 19 c13 11 31 16 43 13 11 -3 18 -1 14 4 -10
16 -41 9 -60 -13z"/>
<path d="M9289 5713 c-13 -16 -12 -17 4 -4 15 12 17 11 17 -7 0 -11 -6 -23
-12 -25 -10 -4 -10 -6 -1 -6 20 -2 35 35 19 48 -10 9 -17 7 -27 -6z"/>
<path d="M12440 5710 c0 -5 12 -10 26 -10 14 0 23 4 19 10 -3 6 -15 10 -26 10
-10 0 -19 -4 -19 -10z"/>
<path d="M8690 5700 c0 -5 5 -10 11 -10 5 0 7 5 4 10 -3 6 -8 10 -11 10 -2 0
-4 -4 -4 -10z"/>
<path d="M9260 5690 c6 -11 13 -20 16 -20 2 0 0 9 -6 20 -6 11 -13 20 -16 20
-2 0 0 -9 6 -20z"/>
<path d="M4786 5668 c18 -94 21 -103 34 -103 9 0 16 12 18 30 5 54 16 62 21
15 8 -63 32 -60 47 5 15 64 16 85 4 85 -5 0 -13 -18 -16 -40 -7 -45 -24 -54
-24 -12 0 29 -15 60 -25 51 -3 -4 -9 -26 -14 -50 -8 -45 -18 -39 -23 15 -2 16
-9 31 -15 34 -9 2 -11 -6 -7 -30z"/>
<path d="M4982 5688 c-17 -17 -16 -103 3 -118 40 -33 85 23 70 87 -8 30 -15
39 -35 41 -14 2 -31 -3 -38 -10z m46 -55 c-2 -35 -7 -48 -18 -48 -11 0 -16 13
-18 48 -3 42 -1 47 18 47 19 0 21 -5 18 -47z"/>
<path d="M5120 5630 c0 -40 4 -70 10 -70 6 0 10 14 10 31 0 24 4 30 18 27 10
-2 18 -14 20 -31 6 -52 21 -26 20 36 -1 66 -7 77 -50 77 -28 0 -28 0 -28 -70z
m55 30 c0 -8 -8 -16 -17 -18 -13 -2 -18 3 -18 18 0 15 5 20 18 18 9 -2 17 -10
17 -18z"/>
<path d="M5274 5686 c-3 -7 -4 -38 -2 -67 l3 -54 38 -3 c21 -2 37 1 37 7 0 6
-11 11 -25 11 -24 0 -25 3 -25 60 0 56 -13 79 -26 46z"/>
<path d="M5414 5686 c-3 -7 -4 -38 -2 -67 3 -50 5 -54 29 -57 15 -2 34 4 43
13 19 19 22 95 4 113 -16 16 -67 15 -74 -2z m60 -22 c10 -25 7 -59 -6 -72 -22
-22 -28 -13 -28 38 0 36 4 50 14 50 8 0 17 -7 20 -16z"/>
<path d="M8485 5511 c-3 -6 -1 -11 4 -11 6 0 11 -8 11 -19 0 -10 7 -25 16 -32
14 -12 14 -9 0 26 -20 47 -22 49 -31 36z"/>
<path d="M9151 5490 c0 -29 1 -32 10 -17 7 11 7 23 0 35 -9 14 -10 11 -10 -18z"/>
<path d="M4740 5495 c0 -13 52 -15 405 -15 353 0 405 2 405 15 0 13 -52 15
-405 15 -353 0 -405 -2 -405 -15z"/>
<path d="M8851 5496 c-10 -12 -8 -13 8 -9 12 3 18 9 15 14 -7 12 -10 11 -23
-5z"/>
<path d="M8595 5490 c3 -5 10 -10 16 -10 5 0 9 5 9 10 0 6 -7 10 -16 10 -8 0
-12 -4 -9 -10z"/>
<path d="M8716 5478 c-14 -20 -14 -24 -1 -37 12 -12 17 -13 27 -2 11 10 10 11
-4 6 -13 -5 -18 -2 -18 9 0 9 7 19 15 22 8 4 15 10 15 15 0 16 -19 9 -34 -13z"/>
<path d="M8802 5493 c3 -15 -14 -43 -23 -37 -5 3 -9 0 -9 -5 0 -17 15 -13 33
7 19 21 22 42 7 42 -5 0 -9 -3 -8 -7z"/>
<path d="M9049 5479 c-9 -17 -8 -24 4 -36 11 -12 16 -12 22 -2 5 7 4 10 -3 5
-6 -3 -14 -1 -18 5 -4 6 1 16 10 21 17 10 22 28 6 28 -5 0 -14 -10 -21 -21z"/>
<path d="M9208 5476 c-9 -21 -9 -29 2 -39 10 -9 11 -9 6 1 -9 14 2 52 14 52 5
0 11 -7 13 -15 4 -12 5 -11 3 1 -2 28 -25 28 -38 0z"/>
<path d="M9323 5493 c-7 -2 -13 -17 -13 -31 0 -21 3 -23 10 -12 8 12 11 12 28
-3 10 -9 23 -17 28 -17 5 0 1 5 -9 11 -17 10 -17 12 -2 29 12 14 13 20 4 26
-8 4 -10 3 -5 -5 4 -6 0 -14 -9 -17 -21 -9 -33 5 -15 16 16 10 4 12 -17 3z"/>
<path d="M9495 5473 l-18 -28 27 24 c28 26 31 31 17 31 -5 0 -17 -12 -26 -27z"/>
<path d="M8449 5464 l-24 -27 28 18 c15 9 27 21 27 26 0 14 -5 11 -31 -17z"/>
<path d="M8635 5465 c0 -13 3 -21 8 -18 4 2 7 10 7 18 0 8 -3 16 -7 18 -5 3
-8 -5 -8 -18z"/>
<path d="M8946 5481 c-4 -7 -5 -15 -2 -18 9 -9 19 4 14 18 -4 11 -6 11 -12 0z"/>
<path d="M8990 5465 c1 -26 2 -28 11 -12 8 14 8 22 0 30 -8 8 -11 3 -11 -18z"/>
<path d="M9400 5464 c0 -14 4 -23 9 -20 5 3 7 15 4 26 -7 28 -13 25 -13 -6z"/>
<path d="M9430 5485 c0 -3 9 -14 20 -25 22 -22 26 -14 6 13 -13 16 -26 23 -26
12z"/>
<path d="M9590 5480 c0 -5 5 -10 11 -10 5 0 7 5 4 10 -3 6 -8 10 -11 10 -2 0
-4 -4 -4 -10z"/>
<path d="M9620 5465 c-7 -9 -10 -18 -7 -21 3 -3 10 4 17 15 13 25 8 27 -10 6z"/>
<path d="M8867 5455 c3 -8 9 -12 14 -9 12 7 11 11 -5 17 -10 4 -13 1 -9 -8z"/>
<path d="M4840 5423 c0 -21 4 -33 8 -28 4 6 16 15 27 21 29 16 25 38 -7 42
-26 3 -28 1 -28 -35z m40 12 c0 -8 -7 -15 -15 -15 -8 0 -15 7 -15 15 0 8 7 15
15 15 8 0 15 -7 15 -15z"/>
<path d="M4920 5425 c0 -23 4 -34 10 -30 6 4 10 16 8 28 -2 15 3 23 16 25 14
3 17 0 13 -12 -7 -17 1 -46 12 -46 3 0 6 15 6 33 0 29 -3 32 -32 35 -32 3 -33
2 -33 -33z"/>
<path d="M5020 5430 c0 -16 0 -33 0 -37 0 -5 12 -9 27 -10 21 -1 22 0 6 4 -27
5 -30 30 -5 36 16 4 16 5 0 6 -26 2 -22 19 5 24 19 4 18 4 -5 6 -25 1 -28 -3
-28 -29z"/>
<path d="M5101 5423 c0 -21 3 -31 6 -23 3 8 10 18 15 21 10 7 0 39 -13 39 -5
0 -9 -17 -8 -37z"/>
<path d="M5165 5450 c-8 -12 5 -60 16 -60 5 0 9 16 9 35 0 33 -12 46 -25 25z"/>
<path d="M5219 5458 c-5 -16 -2 -68 4 -68 4 0 7 16 7 35 0 19 -2 35 -5 35 -3
0 -5 -1 -6 -2z"/>
<path d="M5261 5428 c-1 -29 3 -38 19 -43 12 -4 27 -1 35 5 17 14 20 70 5 70
-5 0 -10 -16 -10 -36 0 -49 -32 -44 -41 6 l-6 35 -2 -37z"/>
<path d="M5358 5454 c-9 -17 -8 -64 2 -64 5 0 7 7 4 15 -4 8 -2 15 4 15 5 0
13 -7 16 -16 6 -16 26 -11 26 7 0 6 -4 8 -10 4 -5 -3 -15 6 -23 21 -8 15 -16
23 -19 18z"/>
<path d="M5416 5445 c-3 -8 0 -15 5 -15 6 0 9 -9 6 -20 -3 -11 -1 -20 4 -20 5
0 9 16 9 35 0 36 -13 47 -24 20z"/>
<path d="M8611 5444 c0 -11 3 -14 6 -6 3 7 2 16 -1 19 -3 4 -6 -2 -5 -13z"/>
<path d="M8910 5450 c0 -5 5 -10 11 -10 5 0 7 5 4 10 -3 6 -8 10 -11 10 -2 0
-4 -4 -4 -10z"/>
<path d="M9506 5438 c3 -5 10 -6 15 -3 13 9 11 12 -6 12 -8 0 -12 -4 -9 -9z"/>
<path d="M6790 5420 c-18 -18 -20 -33 -20 -127 0 -112 5 -119 34 -42 19 52 37
72 81 86 24 8 30 16 31 39 0 16 4 37 8 47 7 15 2 17 -53 17 -48 0 -65 -4 -81
-20z"/>
<path d="M6988 5428 c17 -17 15 -42 -7 -70 l-20 -25 35 -32 c23 -22 34 -42 34
-61 0 -40 30 -132 52 -156 23 -26 23 -66 0 -87 -22 -20 -63 -22 -80 -5 -9 9
-12 6 -12 -13 0 -14 4 -29 9 -35 20 -20 44 -136 54 -261 l2 -23 231 0 c183 0
234 3 250 14 18 14 19 30 19 375 0 348 -1 361 -20 375 -17 13 -65 15 -289 16
-210 0 -267 -3 -258 -12z m292 -167 c0 -23 -5 -30 -22 -33 -23 -3 -23 -4 -26
-211 l-2 -208 -33 3 -32 3 -3 208 -2 207 -25 0 c-20 0 -25 5 -25 23 0 13 3 27
7 30 3 4 42 7 85 7 l78 0 0 -29z m84 21 c3 -5 8 -75 12 -155 8 -160 24 -200
24 -59 0 48 3 117 7 155 l6 67 33 0 c32 0 34 -2 34 -32 0 -18 -5 -62 -10 -98
-5 -36 -14 -114 -19 -175 -18 -185 -15 -177 -64 -173 l-42 3 -22 195 c-12 107
-22 214 -22 238 -1 40 0 42 28 42 17 0 32 -4 35 -8z"/>
<path d="M5130 5400 c0 -5 5 -10 10 -10 6 0 10 5 10 10 0 6 -4 10 -10 10 -5 0
-10 -4 -10 -10z"/>
<path d="M4736 5361 c-3 -5 0 -13 7 -19 14 -11 791 -11 802 0 25 25 -24 28
-405 28 -221 0 -401 -4 -404 -9z"/>
<path d="M11040 5351 c-73 -23 -116 -60 -147 -126 -16 -35 -23 -40 -56 -43
-20 -2 -37 -6 -37 -10 0 -16 41 -72 60 -82 21 -11 21 -17 19 -165 -2 -85 0
-157 3 -161 4 -3 22 2 40 13 46 27 59 69 52 174 -8 109 -2 127 39 131 31 3 32
5 35 51 3 46 3 47 -27 47 -17 0 -31 5 -31 10 0 17 51 60 71 60 27 0 79 51 81
80 3 23 -1 25 -37 27 -22 1 -51 -2 -65 -6z"/>
<path d="M6959 5194 c-8 -21 -8 -37 0 -60 6 -17 11 -43 11 -59 l0 -28 25 27
25 27 -19 55 c-23 69 -28 73 -42 38z"/>
<path d="M10540 5164 c-119 -52 -166 -204 -93 -308 59 -83 171 -113 260 -68
38 20 39 20 63 1 14 -10 33 -19 43 -19 18 0 19 9 15 139 -3 136 -4 140 -33
182 -56 80 -166 111 -255 73z m125 -90 c78 -37 86 -149 13 -194 -40 -24 -60
-25 -104 -4 -66 31 -83 109 -37 164 42 51 75 59 128 34z"/>
<path d="M11089 5098 c0 -46 -3 -138 -5 -206 -5 -136 1 -149 51 -116 42 27 55
64 55 155 0 79 1 82 34 115 46 46 101 48 148 5 31 -28 33 -32 38 -127 6 -109
18 -138 63 -153 38 -14 41 -4 34 138 -5 136 -19 175 -78 222 -66 52 -164 65
-229 30 -35 -18 -36 -18 -59 0 -44 35 -51 26 -52 -63z"/>
<path d="M6770 4932 c0 -287 -8 -271 140 -273 l105 -2 3 38 c6 63 -17 120 -64
159 -45 38 -122 134 -149 186 -9 18 -15 48 -13 72 2 26 -2 43 -9 45 -10 4 -13
-46 -13 -225z m90 -174 c0 -32 -4 -58 -10 -58 -5 0 -11 10 -11 23 l-2 22 -4
-22 c-9 -45 -23 -22 -23 36 0 57 1 59 25 57 24 -1 25 -4 25 -58z m56 14 c2
-59 14 -67 14 -9 0 43 13 67 28 53 8 -9 20 -116 12 -116 -3 0 -11 5 -18 12 -9
9 -12 9 -12 -1 0 -7 -6 -11 -15 -8 -8 4 -17 2 -20 -3 -3 -5 -12 -7 -20 -3 -11
3 -15 21 -15 57 0 57 5 68 30 64 10 -2 15 -16 16 -46z"/>
<path d="M6891 4784 c0 -11 3 -14 6 -6 3 7 2 16 -1 19 -3 4 -6 -2 -5 -13z"/>
<path d="M12432 4730 c-124 -60 -222 -161 -233 -240 -4 -24 -1 -25 45 -25 l48
0 18 57 c28 89 85 158 178 214 23 14 42 28 42 30 0 9 -20 2 -98 -36z"/>
<path d="M13110 4765 c0 -2 15 -12 33 -21 103 -52 177 -147 201 -256 6 -26 10
-28 56 -28 42 0 50 3 50 18 0 37 -53 123 -103 168 -65 56 -237 143 -237 119z"/>
<path d="M10787 4706 c-3 -8 -2 -27 3 -43 6 -22 9 -24 10 -8 2 11 4 30 5 43 3
24 -10 30 -18 8z"/>
<path d="M10997 4702 c-36 -22 -33 -56 6 -60 26 -3 27 -1 27 37 0 23 -1 41 -2
40 -2 0 -15 -8 -31 -17z m16 -27 c8 -18 -11 -31 -25 -17 -11 11 -3 32 12 32 4
0 10 -7 13 -15z"/>
<path d="M11220 4686 c0 -45 16 -55 17 -10 1 19 -3 37 -8 40 -5 3 -9 -11 -9
-30z"/>
<path d="M11472 4680 c0 -25 2 -39 5 -32 3 9 9 10 17 3 10 -8 13 -3 13 19 0
23 -3 27 -13 19 -9 -8 -14 -4 -17 13 -2 13 -5 3 -5 -22z"/>
<path d="M10452 4691 c-23 -14 -10 -46 21 -49 23 -3 27 0 27 21 0 14 -7 28
-16 31 -19 7 -16 8 -32 -3z m30 -33 c-9 -9 -15 -9 -24 0 -10 10 -10 15 2 22
20 12 38 -6 22 -22z"/>
<path d="M10524 4689 c-3 -6 0 -15 7 -20 12 -8 12 -11 -1 -19 -12 -8 -11 -10
8 -10 13 0 22 6 22 15 0 8 -5 15 -11 15 -6 0 -9 7 -5 15 6 17 -9 20 -20 4z"/>
<path d="M10610 4685 c-18 -21 -5 -45 25 -45 21 0 25 5 25 30 0 23 -5 30 -19
30 -10 0 -24 -7 -31 -15z m32 -27 c-15 -15 -26 -4 -18 18 5 13 9 15 18 6 9 -9
9 -15 0 -24z"/>
<path d="M10687 4694 c-4 -4 -7 -19 -6 -33 1 -25 1 -25 7 -3 9 30 26 33 30 5
2 -13 7 -23 12 -23 4 0 5 12 1 28 -7 26 -30 40 -44 26z"/>
<path d="M10830 4686 c-18 -22 -5 -48 22 -44 17 2 23 10 23 28 0 29 -26 38
-45 16z m40 -22 c0 -17 -26 -19 -36 -3 -7 12 15 31 28 23 4 -3 8 -12 8 -20z"/>
<path d="M10902 4683 c-13 -26 -4 -43 24 -43 22 0 25 4 22 27 -4 33 -32 43
-46 16z m38 -19 c0 -8 -7 -14 -15 -14 -15 0 -21 21 -9 33 10 9 24 -2 24 -19z"/>
<path d="M11087 4694 c-4 -4 -7 -19 -6 -33 1 -25 1 -25 7 -3 9 30 26 33 30 5
2 -13 7 -23 12 -23 4 0 5 12 1 28 -7 26 -30 40 -44 26z"/>
<path d="M11162 4691 c-21 -13 -10 -46 16 -47 16 -1 17 -1 3 3 -13 3 -17 10
-14 24 5 20 23 27 23 9 0 -5 5 -10 11 -10 8 0 8 5 -1 15 -14 17 -20 18 -38 6z"/>
<path d="M11354 4685 c-9 -23 3 -45 26 -45 25 0 37 25 20 45 -16 19 -39 19
-46 0z m36 -15 c0 -11 -7 -20 -15 -20 -15 0 -21 21 -8 33 12 13 23 7 23 -13z"/>
<path d="M11421 4668 c0 -18 3 -26 6 -18 3 8 10 23 15 33 6 12 5 17 -7 17 -10
0 -15 -10 -14 -32z"/>
<path d="M10570 4671 c0 -11 4 -22 9 -25 5 -3 8 5 7 19 -1 29 -16 34 -16 6z"/>
<path d="M11264 4677 c3 -10 6 -23 6 -28 0 -5 5 -9 10 -9 6 0 10 6 10 14 0 8
6 16 13 19 6 2 8 8 4 13 -4 5 -12 2 -18 -6 -8 -13 -10 -13 -20 0 -9 13 -10 12
-5 -3z"/>
<path d="M11315 4669 c-10 -30 0 -33 13 -4 6 14 7 25 2 25 -5 0 -12 -9 -15
-21z"/>
<path d="M12470 4515 l0 -155 40 0 40 0 0 50 0 50 45 0 45 0 0 39 c0 40 0 40
-42 43 -36 2 -44 7 -46 26 -3 20 1 22 46 22 27 0 51 2 53 5 3 2 3 20 1 40 l-4
35 -89 0 -89 0 0 -155z"/>
<path d="M12930 4657 c0 -5 16 -36 36 -70 39 -67 41 -57 -20 -164 l-36 -63 45
0 c42 0 48 3 66 35 12 19 24 35 28 35 3 0 15 -16 25 -35 17 -32 23 -35 63 -35
23 0 43 3 43 8 0 4 -18 38 -40 76 -22 37 -40 73 -40 80 0 6 16 37 35 69 19 32
35 62 35 68 0 5 -18 9 -39 9 -34 0 -43 -5 -58 -30 -22 -37 -29 -37 -47 -1 -13
25 -21 29 -56 28 -22 -1 -40 -5 -40 -10z"/>
<path d="M12732 4640 c-69 -42 -91 -128 -51 -200 28 -49 66 -70 127 -70 149 0
195 206 62 272 -46 24 -97 23 -138 -2z m96 -47 c5 -10 6 -49 3 -88 -5 -61 -8
-70 -26 -70 -18 0 -20 8 -23 74 -2 41 -1 80 2 88 8 19 34 16 44 -4z"/>
<path d="M8200 4596 c0 -22 5 -24 60 -28 74 -5 104 -29 104 -83 0 -57 -39 -89
-109 -89 -53 -1 -55 -2 -55 -28 0 -26 3 -28 43 -28 108 0 168 46 174 132 7 95
-51 148 -161 148 -52 0 -56 -2 -56 -24z"/>
<path d="M8458 4608 c-8 -21 2 -38 22 -38 19 0 30 17 23 38 -3 6 -13 12 -23
12 -10 0 -20 -6 -22 -12z"/>
<path d="M8227 4524 c-11 -14 -25 -23 -33 -20 -22 9 -17 -41 7 -65 16 -16 27
-19 52 -14 41 9 46 14 52 55 3 19 3 29 -1 23 -3 -7 -12 -13 -20 -13 -8 0 -14
-6 -14 -14 0 -24 -18 -28 -30 -6 -15 28 -3 60 21 60 11 0 17 5 14 10 -10 17
-29 11 -48 -16z m-7 -59 c0 -8 -4 -15 -9 -15 -5 0 -11 7 -15 15 -3 9 0 15 9
15 8 0 15 -7 15 -15z"/>
<path d="M8452 4443 c3 -97 3 -98 28 -98 25 0 25 0 25 95 l0 95 -28 3 -28 3 3
-98z"/>
<path d="M8551 4514 c-12 -15 -21 -30 -21 -33 0 -21 36 -52 71 -61 23 -7 39
-16 36 -23 -5 -18 -42 -20 -56 -4 -12 15 -51 12 -51 -4 0 -23 42 -49 80 -49
94 0 110 96 20 120 -22 6 -40 17 -40 25 0 20 23 24 42 7 13 -11 24 -12 38 -6
l21 9 -21 23 c-31 33 -92 31 -119 -4z"/>
<path d="M8739 4511 c-88 -89 36 -228 135 -150 51 40 27 61 -41 37 -30 -11
-36 -10 -54 9 -16 15 -20 28 -15 46 8 33 37 42 81 26 28 -11 37 -11 47 0 11
10 7 17 -15 37 -41 35 -99 33 -138 -5z"/>
<path d="M8948 4510 c-28 -28 -30 -36 -25 -78 10 -88 99 -123 166 -66 27 22
31 32 31 72 -1 69 -34 102 -105 102 -27 0 -44 -8 -67 -30z m112 -41 c17 -31 4
-68 -25 -75 -45 -11 -75 37 -48 75 19 27 59 27 73 0z"/>
<path d="M9141 4488 c55 -139 60 -148 89 -148 28 0 30 4 98 188 2 8 -5 12 -22
12 -22 0 -30 -8 -46 -46 -11 -25 -20 -52 -20 -60 0 -31 -16 -11 -35 44 -18 52
-23 57 -53 60 l-32 3 21 -53z"/>
<path d="M9367 4520 c-48 -38 -44 -130 7 -165 30 -22 89 -19 120 6 14 11 26
24 26 29 0 18 -40 21 -64 5 -19 -13 -29 -14 -45 -5 -12 6 -21 17 -21 25 0 12
15 15 64 15 36 0 67 4 71 10 9 15 -21 77 -43 89 -33 17 -87 13 -115 -9z m91
-32 c21 -21 13 -28 -28 -28 -22 0 -40 4 -40 8 0 14 23 32 40 32 9 0 21 -5 28
-12z"/>
<path d="M9554 4527 c-3 -8 -4 -52 -2 -98 3 -82 4 -84 28 -84 23 0 25 4 28 57
3 57 15 77 48 82 22 3 26 46 6 54 -8 3 -24 -1 -35 -8 -15 -9 -22 -10 -25 -1
-5 15 -42 14 -48 -2z"/>
<path d="M9690 4535 c0 -3 18 -42 41 -87 l41 -82 -21 -43 c-12 -24 -21 -46
-21 -48 0 -3 13 -5 29 -5 27 0 31 7 85 129 31 71 56 131 56 135 0 3 -11 6 -26
6 -21 0 -29 -8 -46 -50 -11 -27 -24 -50 -28 -50 -4 0 -17 23 -28 50 -19 45
-24 50 -51 50 -17 0 -31 -2 -31 -5z"/>
<path d="M12196 4432 c-3 -5 1 -33 10 -63 22 -75 106 -155 219 -210 92 -44
136 -49 64 -7 -95 56 -174 160 -189 248 -5 34 -7 35 -52 38 -25 2 -49 -1 -52
-6z"/>
<path d="M13345 4403 c-17 -97 -88 -192 -182 -245 -29 -17 -53 -34 -53 -39 0
-10 109 35 165 69 91 55 175 165 175 230 0 20 -5 22 -49 22 -48 0 -49 0 -56
-37z"/>
<path d="M12472 4331 c-8 -4 -12 -19 -10 -32 2 -20 10 -25 41 -27 47 -4 49
-22 3 -22 -19 0 -38 -5 -41 -11 -5 -7 11 -9 47 -7 49 3 53 5 53 28 0 21 -6 26
-34 30 -48 7 -53 30 -7 30 20 0 36 5 36 10 0 12 -70 13 -88 1z"/>
<path d="M12590 4286 c0 -43 3 -56 15 -56 8 0 15 6 15 14 0 9 12 16 31 18 39
4 59 30 43 56 -7 11 -27 18 -58 20 l-46 3 0 -55z m75 14 c0 -8 -10 -16 -22
-18 -18 -3 -23 2 -23 18 0 16 5 21 23 18 12 -2 22 -10 22 -18z"/>
<path d="M12727 4333 c-4 -3 -7 -28 -7 -55 l0 -49 53 3 52 3 3 40 c3 29 -1 43
-14 52 -19 14 -76 18 -87 6z m68 -48 c0 -25 -4 -30 -25 -30 -16 0 -26 6 -28
18 -6 30 6 49 30 45 18 -2 23 -9 23 -33z"/>
<path d="M12850 4285 c0 -42 3 -55 15 -55 8 0 15 9 15 20 0 11 7 20 15 20 8 0
19 -9 25 -20 6 -11 17 -20 25 -20 17 0 20 16 5 25 -6 4 -5 15 2 30 16 36 -4
55 -58 55 l-44 0 0 -55z m78 18 c2 -8 -6 -13 -22 -13 -17 0 -26 5 -26 16 0 19
41 16 48 -3z"/>
<path d="M12973 4328 c2 -7 10 -13 18 -13 9 0 15 -14 17 -43 2 -28 7 -42 15
-39 7 2 11 17 9 35 -3 23 2 33 17 42 35 18 24 30 -30 30 -36 0 -49 -4 -46 -12z"/>
<path d="M13097 4333 c-4 -3 -7 -19 -7 -35 0 -25 3 -28 35 -28 19 0 35 -4 35
-10 0 -5 -15 -10 -34 -10 -19 0 -38 -5 -41 -11 -5 -7 11 -9 47 -7 50 3 53 5
56 31 3 25 1 27 -32 27 -25 0 -36 4 -36 15 0 10 11 15 35 15 19 0 35 5 35 10
0 11 -83 14 -93 3z"/>
<path d="M10421 3974 c-22 -16 -23 -19 -19 -178 3 -174 10 -199 65 -250 28
-26 91 -46 145 -46 100 0 178 59 197 148 6 29 11 109 11 177 0 112 -2 127 -20
145 -23 23 -33 24 -61 10 -17 -10 -19 -23 -19 -153 0 -156 -12 -200 -60 -225
-37 -19 -98 -8 -129 22 -25 26 -26 30 -29 179 -3 121 -7 156 -19 170 -20 21
-32 21 -62 1z"/>
<path d="M10914 3976 c-41 -18 -61 -65 -45 -105 13 -30 33 -43 96 -63 29 -10
40 -19 40 -33 0 -27 -34 -31 -89 -10 -48 19 -66 14 -66 -15 0 -23 30 -41 85
-51 80 -16 145 23 145 86 0 33 -37 68 -88 83 -74 22 -80 72 -7 56 59 -13 80
-10 83 11 1 11 -6 25 -16 32 -32 19 -104 24 -138 9z"/>
<path d="M11172 3970 c-91 -56 -97 -198 -10 -253 56 -36 150 -28 187 17 12 15
12 19 -1 32 -14 14 -19 14 -46 0 -17 -9 -41 -16 -54 -16 -32 0 -68 27 -68 50
0 18 8 20 86 19 99 -1 118 9 108 55 -20 97 -121 145 -202 96z m106 -56 c12 -8
22 -24 22 -35 0 -17 -7 -19 -59 -19 -33 0 -63 4 -66 10 -8 14 40 60 62 60 10
0 29 -7 41 -16z"/>
<path d="M11472 3970 c-69 -43 -94 -139 -52 -208 27 -44 98 -76 147 -67 74 14
108 44 80 73 -13 12 -19 12 -45 -2 -42 -22 -74 -20 -100 4 -44 41 -30 50 68
49 54 -1 95 2 102 9 15 15 2 74 -23 106 -44 57 -118 72 -177 36z m106 -56 c12
-8 22 -24 22 -35 0 -17 -7 -19 -60 -19 -66 0 -77 13 -40 50 24 24 48 25 78 4z"/>
<path d="M5058 3732 c-10 -4 17 -7 60 -7 90 0 148 -22 201 -76 89 -89 106
-227 41 -330 -41 -64 -117 -115 -189 -129 -58 -11 -81 -24 -81 -47 0 -14 -39
-34 -52 -26 -5 2 4 15 20 28 31 27 26 36 -35 54 -45 12 -61 36 -18 25 32 -8
71 17 77 49 3 16 1 24 -7 21 -6 -3 -22 21 -35 53 -27 65 -98 141 -162 174 -47
24 -54 19 -64 -50 -25 -164 61 -316 214 -375 61 -23 168 -21 237 5 78 29 155
106 184 184 19 49 22 75 19 140 -7 133 -70 228 -191 285 -51 25 -74 30 -132
29 -38 0 -78 -3 -87 -7z"/>
<path d="M7291 3694 c0 -11 3 -14 6 -6 3 7 2 16 -1 19 -3 4 -6 -2 -5 -13z"/>
<path d="M4973 3679 c-51 -19 -123 -86 -123 -112 0 -6 30 -32 65 -56 36 -23
81 -65 100 -92 38 -51 62 -64 110 -60 34 3 58 21 38 28 -7 3 -13 20 -13 39 0
35 1 35 38 32 35 -3 37 -5 37 -38 1 -19 4 -43 8 -52 4 -10 10 -26 13 -35 10
-29 54 74 54 128 0 180 -156 284 -327 218z"/>
<path d="M10849 3655 c0 -3 0 -38 -1 -77 l0 -73 161 -3 161 -2 0 79 0 80 -160
0 c-88 0 -160 -2 -161 -4z m115 -28 c26 -19 16 -50 -21 -67 -18 -8 -33 -21
-33 -27 0 -7 -7 -13 -15 -13 -12 0 -15 13 -15 60 l0 60 33 0 c18 0 41 -6 51
-13z m56 -58 c0 -33 -4 -59 -10 -59 -6 0 -10 29 -10 66 0 41 4 63 10 59 6 -3
10 -33 10 -66z m111 61 c23 -13 25 -43 4 -60 -14 -12 -14 -15 0 -30 25 -28 1
-32 -25 -5 -28 30 -40 32 -40 5 0 -11 -4 -20 -10 -20 -6 0 -10 27 -10 60 l0
60 31 0 c17 0 39 -5 50 -10z"/>
<path d="M10905 3610 c-12 -20 9 -38 34 -29 19 8 21 12 11 24 -14 17 -36 20
-45 5z"/>
<path d="M11070 3600 c0 -14 7 -20 23 -20 30 0 40 10 26 27 -18 20 -49 16 -49
-7z"/>
<path d="M11190 3580 l0 -80 75 0 75 0 0 80 0 80 -75 0 -75 0 0 -80z m81 47
c-1 -4 -1 -29 -1 -57 0 -27 -4 -50 -10 -50 -6 0 -10 27 -10 61 0 39 4 59 11
57 6 -2 10 -7 10 -11z"/>
<path d="M11360 3580 l0 -80 75 0 75 0 0 80 0 80 -75 0 -75 0 0 -80z m55 33
l18 -27 23 29 c31 40 46 23 42 -46 -3 -61 -20 -69 -28 -12 -5 38 -5 38 -19 14
l-14 -25 -17 22 c-24 30 -27 28 -22 -14 3 -28 1 -35 -9 -32 -9 3 -13 18 -12
39 1 19 2 44 2 57 1 30 15 28 36 -5z"/>
<path d="M11527 3653 c-4 -3 -7 -39 -7 -80 l0 -73 80 0 80 0 0 80 0 80 -73 0
c-41 0 -77 -3 -80 -7z m123 -22 c0 -6 -14 -11 -32 -13 -42 -4 -50 -28 -9 -28
41 0 49 -18 9 -22 -46 -4 -49 -28 -4 -28 20 0 36 -4 36 -9 0 -9 -77 -20 -86
-12 -2 2 -4 31 -4 63 l0 58 45 0 c25 0 45 -4 45 -9z"/>
<path d="M8372 3398 c-9 -9 -12 -60 -12 -182 0 -159 2 -174 23 -211 60 -105
247 -125 336 -36 50 50 61 98 61 269 0 127 -2 140 -20 157 -16 15 -26 17 -48
9 l-27 -9 -5 -160 c-4 -139 -8 -164 -25 -187 -37 -51 -119 -55 -166 -9 l-29
29 0 144 c0 95 -5 151 -13 168 -14 28 -55 38 -75 18z"/>
<path d="M8900 3404 c-39 -16 -60 -48 -60 -89 0 -51 19 -71 92 -96 59 -20 82
-44 58 -59 -22 -14 -57 -12 -91 6 -41 21 -73 15 -77 -14 -7 -48 141 -82 207
-47 33 17 41 33 41 84 0 47 -18 64 -96 94 -60 24 -72 41 -42 61 14 8 29 7 62
-5 66 -24 101 5 57 45 -20 18 -122 31 -151 20z"/>
<path d="M9172 3390 c-48 -30 -72 -75 -72 -140 0 -100 60 -160 160 -160 64 0
120 28 120 60 0 29 -25 35 -66 15 -44 -21 -97 -13 -119 18 -8 12 -15 25 -15
29 0 5 44 8 98 8 63 0 102 4 110 12 31 31 -4 130 -58 161 -39 23 -117 22 -158
-3z m123 -65 c44 -43 34 -55 -45 -55 -79 0 -87 9 -45 54 30 33 59 33 90 1z"/>
<path d="M9514 3396 c-44 -19 -76 -70 -82 -126 -10 -105 45 -171 148 -178 73
-5 130 18 130 54 0 33 -23 40 -64 20 -40 -19 -60 -20 -89 -5 -25 14 -37 28
-37 47 0 9 24 12 89 12 115 0 121 3 121 52 0 108 -109 170 -216 124z m110 -67
c14 -11 26 -29 26 -40 0 -17 -7 -19 -63 -19 -35 0 -66 3 -70 6 -10 10 14 51
37 62 31 15 40 14 70 -9z"/>
<path d="M12280 3401 c-109 -36 -170 -116 -170 -223 1 -130 103 -228 238 -228
80 0 169 59 203 135 66 144 -34 308 -195 321 -28 2 -62 0 -76 -5z m159 -44
c123 -63 146 -222 47 -321 -162 -162 -432 22 -335 228 27 58 57 85 121 108 62
22 104 18 167 -15z"/>
<path d="M12285 3306 c-105 -47 -113 -195 -14 -248 102 -54 219 23 207 136
-11 94 -107 150 -193 112z m133 -48 c7 -7 12 -24 12 -38 0 -48 -45 -67 -82
-33 -36 32 -17 83 32 83 14 0 31 -5 38 -12z"/>
<path d="M12715 3358 c-2 -7 -15 -74 -29 -148 -22 -114 -29 -138 -50 -155 -13
-11 -26 -29 -28 -40 -4 -23 0 -23 117 6 86 22 117 41 98 60 -9 9 -23 9 -59 0
-25 -7 -48 -10 -50 -8 -2 1 -1 20 3 40 l6 37 57 0 58 0 11 -43 c11 -47 41 -91
72 -108 16 -8 26 -7 45 5 34 23 65 87 53 109 -15 26 -27 21 -49 -23 -11 -22
-26 -40 -33 -40 -16 0 -33 27 -42 68 l-7 32 71 0 c60 0 72 3 81 20 17 33 3 40
-76 40 -66 0 -75 2 -72 18 3 14 16 18 70 20 76 3 84 10 89 77 l4 40 -168 3
c-129 2 -168 0 -172 -10z m278 -53 c1 -6 -45 -11 -120 -13 -106 -2 -123 0
-123 13 0 13 17 15 120 13 69 -2 121 -7 123 -13z m-159 -81 c10 -26 -2 -34
-49 -34 -47 0 -59 8 -49 34 4 11 19 16 49 16 30 0 45 -5 49 -16z"/>
<path d="M13147 3363 c-4 -3 -7 -13 -7 -20 0 -11 18 -13 82 -11 70 3 83 6 86
21 3 15 -6 17 -76 17 -43 0 -82 -3 -85 -7z"/>
<path d="M13345 3358 c-3 -7 -14 -58 -25 -112 -18 -89 -19 -101 -5 -108 13 -8
13 -12 0 -38 -8 -16 -28 -37 -45 -47 -30 -18 -38 -37 -20 -48 11 -7 66 28 92
60 9 11 20 33 23 48 4 15 11 27 17 25 11 -4 11 -7 2 -66 -8 -51 6 -72 48 -72
41 0 88 48 88 90 0 43 -29 37 -45 -10 -14 -43 -45 -54 -45 -16 0 42 17 74 42
78 20 3 25 14 45 103 12 55 23 106 23 113 0 9 -26 12 -95 12 -67 0 -97 -4
-100 -12z m133 -40 c-5 -14 -61 -23 -85 -14 -27 11 -2 26 43 26 32 0 44 -4 42
-12z m-10 -60 c-2 -6 -24 -11 -48 -11 -24 0 -46 5 -48 11 -2 8 13 12 48 12 35
0 50 -4 48 -12z m-8 -63 c0 -11 -12 -15 -50 -15 -46 0 -60 7 -43 23 3 4 26 7
50 7 32 0 43 -4 43 -15z"/>
<path d="M5162 3319 c2 -7 10 -15 17 -17 8 -3 12 1 9 9 -2 7 -10 15 -17 17 -8
3 -12 -1 -9 -9z"/>
<path d="M13126 3293 c-11 -27 -6 -33 24 -33 38 0 38 -7 5 -142 -14 -57 -25
-107 -25 -111 0 -5 12 -7 27 -5 30 3 27 -5 64 161 21 94 22 97 49 97 27 0 46
22 34 41 -3 5 -43 9 -89 8 -64 -1 -85 -5 -89 -16z"/>
<path d="M5112 3269 c-7 -11 -11 -23 -9 -25 7 -7 29 24 25 36 -2 6 -9 1 -16
-11z"/>
<path d="M13119 3238 c0 -2 -9 -34 -20 -73 -34 -121 -34 -115 -11 -115 21 0
38 35 62 125 14 56 13 65 -10 65 -11 0 -20 -1 -21 -2z"/>
<path d="M13256 3228 c-19 -63 -35 -153 -29 -159 18 -18 36 12 53 84 9 42 15
79 12 82 -10 10 -33 5 -36 -7z"/>
<path d="M8823 3053 c-4 -2 -7 -33 -6 -70 l1 -68 146 -3 146 -3 0 71 c0 69 0
70 -27 71 -57 3 -252 4 -260 2z m97 -23 c16 -10 8 -13 -27 -10 -33 2 -28 -19
7 -31 34 -12 40 -43 12 -58 -21 -11 -62 -4 -62 11 0 6 11 7 24 4 37 -9 41 11
6 29 -31 16 -41 49 -17 58 20 9 41 7 57 -3z m155 -6 c24 -24 14 -48 -23 -59
-17 -5 -32 -15 -32 -22 0 -7 -4 -13 -10 -13 -5 0 -10 25 -10 55 0 54 0 55 29
55 16 0 37 -7 46 -16z"/>
<path d="M9020 3000 c0 -16 5 -21 23 -18 12 2 22 10 22 18 0 8 -10 16 -22 18
-18 3 -23 -2 -23 -18z"/>
<path d="M9130 3052 c-5 -2 -10 -35 -10 -72 l0 -69 225 0 224 0 4 67 3 67 2
-67 2 -68 75 0 75 0 0 70 c0 69 0 70 -27 72 -56 3 -563 3 -573 0z m100 -32
c23 -23 27 -60 6 -60 -7 0 -20 -9 -27 -20 -10 -14 -21 -18 -36 -14 -13 4 -23
10 -23 15 0 5 7 6 15 3 10 -4 15 0 15 11 0 12 -6 16 -20 12 -31 -8 -32 7 -3
41 30 37 45 40 73 12z m47 5 c0 -8 -4 -15 -9 -15 -10 0 -11 14 -1 23 9 10 10
9 10 -8z m107 -1 c20 -19 20 -28 1 -44 -12 -10 -13 -16 -4 -27 21 -25 -1 -27
-24 -2 l-22 24 -3 -23 c-5 -36 -25 -20 -25 19 1 68 1 69 32 69 16 0 37 -7 45
-16z m43 -21 c-3 -10 -5 -4 -5 12 0 17 2 24 5 18 2 -7 2 -21 0 -30z m123 28
c0 -5 -9 -11 -20 -14 -16 -4 -20 -14 -20 -46 0 -23 -4 -41 -10 -41 -5 0 -10
20 -10 45 0 39 -3 45 -21 45 -11 0 -17 5 -14 10 8 12 95 13 95 1z m138 -9 c3
-9 -3 -11 -22 -6 -34 8 -35 -13 -1 -26 29 -11 42 -37 27 -52 -14 -14 -61 -13
-75 2 -10 10 -5 11 20 7 35 -7 56 9 26 20 -37 13 -53 34 -42 55 12 22 60 22
67 0z"/>
<path d="M9190 3006 c0 -9 7 -16 16 -16 9 0 14 5 12 12 -6 18 -28 21 -28 4z"/>
<path d="M9326 3011 c-8 -12 21 -34 34 -26 17 11 11 35 -9 35 -11 0 -22 -4
-25 -9z"/>
<path d="M4438 2956 l4 -63 62 2 c87 3 126 25 126 73 0 32 -52 52 -132 52
l-63 0 3 -64z m114 42 c28 -24 29 -48 3 -74 -36 -35 -49 -26 -53 34 -3 45 -1
52 16 52 10 0 25 -6 34 -12z"/>
<path d="M5157 2955 c19 -36 38 -65 43 -65 5 0 20 19 33 41 l25 42 17 -34 c24
-47 37 -53 58 -27 11 14 21 18 25 11 10 -14 53 -36 59 -29 3 3 -2 12 -11 21
-21 21 -20 34 2 58 17 19 16 20 -10 13 -32 -7 -36 1 -10 20 15 12 14 13 -11
14 -16 0 -26 -4 -22 -10 3 -5 -2 -24 -11 -41 l-16 -32 -25 42 c-13 22 -28 41
-33 41 -5 0 -19 -19 -31 -42 l-21 -42 -15 28 c-8 15 -12 34 -9 42 4 11 -4 14
-33 14 l-39 0 35 -65z"/>
<path d="M4642 2940 c-2 -44 0 -50 18 -50 13 0 20 7 20 20 0 20 0 20 30 -1 34
-26 52 -19 26 10 -15 16 -15 19 -1 31 12 10 13 16 4 26 -18 21 -39 17 -36 -7
1 -12 -4 -24 -10 -26 -8 -3 -13 5 -13 21 0 18 -5 26 -18 26 -14 0 -18 -10 -20
-50z"/>
<path d="M4770 2941 c0 -44 2 -50 20 -48 14 1 20 8 20 24 0 16 5 22 18 20 9
-1 18 3 19 8 1 6 -7 9 -17 7 -15 -2 -20 3 -20 17 0 14 -6 21 -20 21 -17 0 -20
-7 -20 -49z"/>
<path d="M4840 2980 c0 -5 5 -10 10 -10 6 0 10 5 10 10 0 6 -4 10 -10 10 -5 0
-10 -4 -10 -10z"/>
<path d="M4881 2944 c-18 -25 -29 -49 -26 -52 7 -7 45 33 45 48 0 5 4 10 10
10 5 0 7 -7 4 -15 -4 -8 -1 -15 5 -15 6 0 11 -7 11 -15 0 -10 11 -15 35 -15
33 0 34 1 29 30 -8 36 8 39 26 5 18 -33 32 -32 55 8 l20 32 5 -35 c8 -56 30
-49 30 10 0 44 -3 50 -20 50 -12 0 -25 -10 -32 -25 -6 -14 -15 -25 -19 -25 -5
0 -16 11 -25 25 -9 14 -25 25 -35 25 -15 0 -19 -7 -19 -40 0 -47 -13 -52 -30
-10 -23 54 -35 55 -69 4z"/>
<path d="M5453 2972 c15 -16 15 -21 1 -46 -19 -39 -10 -44 27 -17 l31 23 -7
-22 c-6 -18 -3 -21 17 -18 15 2 22 9 20 21 -4 22 3 22 38 -5 34 -24 52 -18 27
10 -12 13 -14 21 -6 29 15 15 4 43 -16 43 -11 0 -15 -6 -10 -19 3 -11 0 -21
-9 -24 -18 -7 -26 1 -26 25 0 10 -7 18 -15 18 -8 0 -15 -7 -15 -16 0 -14 -2
-14 -22 0 -12 9 -29 16 -37 16 -12 0 -11 -3 2 -18z"/>
<path d="M5634 2974 c3 -9 6 -31 6 -49 0 -26 4 -33 18 -30 9 1 16 9 14 19 -4
21 4 20 34 -3 14 -11 40 -19 60 -19 34 0 35 1 20 17 -13 12 -18 13 -25 3 -5
-9 -14 -5 -32 14 l-24 25 25 19 c18 14 21 20 9 20 -9 0 -24 -9 -34 -20 -10
-11 -22 -20 -27 -20 -5 0 -6 9 -3 20 5 17 2 20 -20 20 -21 0 -26 -4 -21 -16z"/>
<path d="M5780 2975 c-16 -19 3 -45 31 -45 12 0 19 -7 19 -20 0 -13 5 -18 15
-14 26 10 17 41 -16 54 -18 8 -28 18 -25 26 7 19 -8 18 -24 -1z"/>
<path d="M5830 2980 c20 -13 33 -13 25 0 -3 6 -14 10 -23 10 -15 0 -15 -2 -2
-10z"/>
</g>
</svg>
