<svg height="511pt" viewBox="1 -40 511.999 511" width="511pt" xmlns="http://www.w3.org/2000/svg"><path d="m206.789062 332.296875h98.417969v84.84375h-98.417969zm0 0" fill="#1dc2ff"/><path d="m276.464844 332.296875h28.742187v84.84375h-28.742187zm0 0" fill="#00a2ff"/><path d="m496.554688.5h-481.109376c-8.53125 0-15.445312 6.914062-15.445312 15.445312v320.695313c0 8.53125 6.914062 15.445313 15.445312 15.445313h481.109376c8.53125 0 15.445312-6.914063 15.445312-15.445313v-320.695313c0-8.53125-6.914062-15.445312-15.445312-15.445312zm0 0" fill="#1dc2ff"/><path d="m496.554688.5h-8.378907v309.328125c0 8.527344-6.917969 15.445313-15.445312 15.445313h-472.730469v11.367187c0 8.53125 6.914062 15.445313 15.445312 15.445313h481.109376c8.53125 0 15.445312-6.914063 15.445312-15.445313v-320.695313c0-8.53125-6.914062-15.445312-15.445312-15.445312zm0 0" fill="#00a2ff"/><path d="m176.847656 408.023438h158.304688c6.550781 0 11.863281 5.308593 11.863281 11.863281v.703125c0 6.554687-5.3125 11.867187-11.863281 11.867187h-158.304688c-6.550781 0-11.863281-5.3125-11.863281-11.867187v-.703125c0-6.554688 5.3125-11.863281 11.863281-11.863281zm0 0" fill="#1dc2ff"/><path d="m335.152344 408.019531h-40c6.550781 0 11.863281 5.3125 11.863281 11.867188v.703125c0 6.554687-5.3125 11.867187-11.863281 11.867187h40c6.550781 0 11.863281-5.3125 11.863281-11.867187v-.703125c0-6.554688-5.3125-11.867188-11.863281-11.867188zm0 0" fill="#00a2ff"/><path d="m475.472656 303.851562h-438.945312c-2.761719 0-5-2.238281-5-5v-258.566406c0-2.761718 2.238281-5 5-5h438.945312c2.761719 0 5 2.238282 5 5v258.566406c0 2.761719-2.238281 5-5 5zm0 0" fill="#d2ffff"/><path d="m102.910156 142.046875h-71.382812v-101.761719c0-2.761718 2.238281-5 5-5h66.382812zm0 0" fill="#0470b2"/><path d="m480.5 197.519531h-65.539062c-5.523438 0-10-4.476562-10-10v-152.691406h70.539062c2.761719 0 5 2.238281 5 5zm0 0" fill="#0470b2"/><path d="m92.910156 197.949219h-61.382812v-61.238281h71.382812v51.238281c0 5.519531-4.476562 10-10 10zm0 0" fill="#0882bf"/><path d="m458.878906 273.753906h-402.074218c-4.265626 0-7.722657-3.457031-7.722657-7.722656s3.457031-7.722656 7.722657-7.722656h402.074218c4.265625 0 7.722656 3.457031 7.722656 7.722656-.003906 4.265625-3.460937 7.722656-7.722656 7.722656zm0 0" fill="#0882bf"/><path d="m389.816406 266.03125c0 10.414062-8.441406 18.859375-18.855468 18.859375-10.417969 0-18.859376-8.445313-18.859376-18.859375s8.441407-18.855469 18.859376-18.855469c10.414062 0 18.855468 8.441407 18.855468 18.855469zm0 0" fill="#ff738b"/><path d="m148.742188 266.03125c0 10.414062-8.441407 18.859375-18.855469 18.859375-10.414063 0-18.859375-8.445313-18.859375-18.859375s8.445312-18.855469 18.859375-18.855469c10.414062 0 18.855469 8.441407 18.855469 18.855469zm0 0" fill="#ff738b"/><path d="m458.878906 235.921875h-402.074218c-4.265626 0-7.722657-3.457031-7.722657-7.722656s3.457031-7.722657 7.722657-7.722657h402.074218c4.265625 0 7.722656 3.457032 7.722656 7.722657s-3.460937 7.722656-7.722656 7.722656zm0 0" fill="#0882bf"/><path d="m227.082031 228.199219c0 10.414062-8.445312 18.855469-18.859375 18.855469-10.414062 0-18.855468-8.441407-18.855468-18.855469 0-10.414063 8.441406-18.859375 18.855468-18.859375 10.414063 0 18.859375 8.445312 18.859375 18.859375zm0 0" fill="#ff738b"/><path d="m322.492188 116.269531-95.140626-54.929687c-6.664062-3.847656-15 .960937-15 8.660156v109.855469c0 7.699219 8.335938 12.511719 15 8.660156l95.140626-54.925781c6.664062-3.851563 6.664062-13.472656 0-17.320313zm0 0" fill="#005ca0"/><path d="m322.046875 116.011719-15.058594-8.691407c-.597656 2.628907-2.214843 5.058594-4.875 6.59375l-89.761719 51.824219v13.605469c0 7.925781 8.582032 12.878906 15.445313 8.917969l94.25-54.414063c6.863281-3.964844 6.863281-13.875 0-17.835937zm0 0" fill="#005182"/></svg>