<svg id="flat" height="512" viewBox="0 0 512 512" width="512" xmlns="http://www.w3.org/2000/svg"><path d="m344 298.37988v189.62012h-304v-189.62012a32.00023 32.00023 0 0 1 15.87988-27.63988l57.85012-33.75 13.86011-8.08008 8.40989-4.90992h112l8.40991 4.90991 13.86009 8.08009 57.8501 33.75a31.9997 31.9997 0 0 1 15.8799 27.63988z" fill="#f6bb00"/><path d="m432 440-31.598 31.598a56 56 0 0 1 -39.598 16.402h-64.804v-48z" fill="#deae7e"/><path d="m40 488h104a104 104 0 0 1 -104-104z" fill="#eda600"/><path d="m320 248h128v192h-128z" fill="#7e57df"/><g fill="#a88af2"><path d="m288 280h32v16h-32z"/><path d="m288 312h32v16h-32z"/><path d="m288 344h32v16h-32z"/><path d="m288 376h32v16h-32z"/><path d="m448 280h32v16h-32z"/><path d="m448 312h32v16h-32z"/><path d="m448 344h32v16h-32z"/><path d="m448 376h32v16h-32z"/><path d="m344 216h16v32h-16z"/><path d="m376 216h16v32h-16z"/><path d="m408 216h16v32h-16z"/></g><path d="m152 416v-80h80v88z" fill="#548aff"/><path d="m270.27 236.99-71.68992 103.56005a8.00006 8.00006 0 0 1 -13.16016 0l-71.68992-103.56005 13.86011-8.08008 64.40989 93.04008 64.40991-93.04z" fill="#4d6378"/><path d="m352 304a24 24 0 0 0 24-24h40v128h-64z" fill="#633dcc"/><path d="m376 328h16v48h-16z" fill="#522fbd"/><path d="m272 440h-16a8.0014 8.0014 0 0 1 -1.39062-.12207l-109.56153-19.33393a39.9439 39.9439 0 0 1 -33.04785-39.39166v-21.15234h16v21.15234a23.96832 23.96832 0 0 0 19.8291 23.63575l108.8711 19.21191h15.2998z" fill="#eda600"/><path d="m256 488h64.804a56 56 0 0 0 39.598-16.402l30.8461-30.8461a15.09755 15.09755 0 0 0 1.88634-19.05019 15.09755 15.09755 0 0 0 -21.99328-3.41459l-20.56722 16.45378a24 24 0 0 1 -14.99269 5.2591h-15.58125s3.65767-18.28836 6.05226-30.12008a13.14614 13.14614 0 0 0 -7.03573-14.37165l-.20491-.10246a12.75682 12.75682 0 0 0 -13.12952 1.03637l-49.6821 35.55782z" fill="#f5c99d"/><path d="m232 72v-24a24 24 0 0 0 -24-24h-32a56 56 0 0 0 -56 56v16l18.34315-18.34315a19.3137 19.3137 0 0 1 13.65685-5.65685 19.31369 19.31369 0 0 1 13.65684 5.65685l12.68631 12.6863a19.31369 19.31369 0 0 0 13.65685 5.65685 19.31369 19.31369 0 0 0 13.65684-5.65685l12.6863-12.6863a19.3137 19.3137 0 0 1 13.65686-5.65685z" fill="#b1792c"/><path d="m240 40a24 24 0 0 1 24 24v32l-18.34315-18.34315a19.31369 19.31369 0 0 0 -13.65685-5.65685v-24a8 8 0 0 1 8-8z" fill="#956625"/><path d="m264 96v80.00007a71.99993 71.99993 0 0 1 -71.99994 71.99993h-.00014a71.99993 71.99993 0 0 1 -71.99992-71.99993v-80.00007l18.34315-18.34315a19.3137 19.3137 0 0 1 13.65685-5.65685 19.31369 19.31369 0 0 1 13.65684 5.65685l12.68631 12.6863a19.31369 19.31369 0 0 0 13.65685 5.65685 19.31369 19.31369 0 0 0 13.65684-5.65685l12.6863-12.6863a19.3137 19.3137 0 0 1 13.65686-5.65685 19.31369 19.31369 0 0 1 13.65684 5.65685z" fill="#f5c99d"/><path d="m144 120h32v16h-32z" fill="#b1792c"/><path d="m192 368a8.00039 8.00039 0 0 1 -8-8v-24a8 8 0 0 1 16 0v24a8.00039 8.00039 0 0 1 -8 8z" fill="#5c7387"/><path d="m184 208h-8v-16h8a8.00917 8.00917 0 0 0 8-8v-16h16v16a24.0275 24.0275 0 0 1 -24 24z" fill="#c79369"/><circle cx="160" cy="152" fill="#956625" r="8"/><circle cx="224" cy="152" fill="#956625" r="8"/><path d="m208 120h32v16h-32z" fill="#b1792c"/></svg>