<svg xmlns="http://www.w3.org/2000/svg" viewBox="0 0 16 16"><defs><style>.cls-1{fill:none;}.cls-2{fill:#00bfd8;}.cls-3{fill:#fff;}</style></defs><title>Asset 3</title><g id="Layer_2" data-name="Layer 2"><g id="Layer_1-2" data-name="Layer 1"><circle class="cls-1" cx="11.02" cy="11.86" r="1.42"/><path class="cls-2" d="M8,0a8,8,0,1,0,8,8A8,8,0,0,0,8,0ZM7.58,3.3H8L7.56,4.58H5.84l.41-1.28ZM2.24,5.88c.3-.52.68-1.2.88-1.53a1,1,0,0,1,.1-.17v0h0a1.73,1.73,0,0,1,.88-.67A8.71,8.71,0,0,1,6,3.31l-.4,1.27a8.45,8.45,0,0,0-1.29.1,3.91,3.91,0,0,0-1.18.43A3.34,3.34,0,0,0,2.24,5.88Zm.32,2.88.62-.84h0a2.18,2.18,0,0,1,.65-.65,2.25,2.25,0,0,1,1-.16h0L4.44,8.37a6.44,6.44,0,0,0-1.5.23A1.36,1.36,0,0,0,2.56,8.76Zm2.88,2.63-.06.21h0l-.25.83a.8.8,0,0,0,0,.21A.62.62,0,0,0,5.2,13a5,5,0,0,1-1.52.27c-.29,0-.43-.08-.43-.22a3.17,3.17,0,0,1,.16-.65l1.25-4h0l.49-1.59.62-2H7.5l0,.15h0L6.77,7.11h0L6.36,8.44Zm1.16-3L7,7.11H8.55a11.51,11.51,0,0,0,2.73-.27,1.73,1.73,0,0,1-.87.74,5.69,5.69,0,0,0,.67-.13,1.72,1.72,0,0,1-.91.76,7.91,7.91,0,0,1-2,.16ZM11,13.28a1.42,1.42,0,1,1,1.42-1.42A1.43,1.43,0,0,1,11,13.28Zm1.8-9.54.74-.11a2.51,2.51,0,0,1-1.06.76,5.51,5.51,0,0,1-1.71.2h-3l.4-1.28H9.74a24.74,24.74,0,0,0,4-.28A2.75,2.75,0,0,1,12.82,3.74Z"/><path class="cls-3" d="M4.85,7.11h0a2.25,2.25,0,0,0-1,.16,2.18,2.18,0,0,0-.65.65h0l-.62.84a1.36,1.36,0,0,1,.38-.16,6.44,6.44,0,0,1,1.5-.23Z"/><path class="cls-3" d="M9.74,3.3H8.19l-.4,1.28h3a5.51,5.51,0,0,0,1.71-.2,2.51,2.51,0,0,0,1.06-.76l-.74.11A2.75,2.75,0,0,0,13.76,3,24.74,24.74,0,0,1,9.74,3.3Z"/><path class="cls-3" d="M11.08,7.45a5.69,5.69,0,0,1-.67.13,1.73,1.73,0,0,0,.87-.74,11.51,11.51,0,0,1-2.73.27H7L6.6,8.37H8.16a7.91,7.91,0,0,0,2-.16A1.72,1.72,0,0,0,11.08,7.45Z"/><path class="cls-3" d="M4.34,4.68a8.45,8.45,0,0,1,1.29-.1L6,3.31a8.71,8.71,0,0,0-1.92.18,1.73,1.73,0,0,0-.88.67h0v0a1,1,0,0,0-.1.17c-.2.33-.58,1-.88,1.53a3.34,3.34,0,0,1,.92-.77A3.91,3.91,0,0,1,4.34,4.68Z"/><path class="cls-3" d="M6.77,7.11l.68-2.18h0l0-.15H5.77l-.62,2L4.66,8.37h0l-1.25,4a3.17,3.17,0,0,0-.16.65c0,.14.14.22.43.22A5,5,0,0,0,5.2,13a.62.62,0,0,1-.11-.32.8.8,0,0,1,0-.21l.25-.83h0l.06-.21.92-3,.41-1.33Z"/><path class="cls-3" d="M7.56,4.58h0L8,3.3H6.25L5.84,4.59Z"/></g></g></svg>