<svg height="512" viewBox="0 0 512 512" width="512" xmlns="http://www.w3.org/2000/svg"><g id="flat"><path d="m320 360 102.989 32.523a78 78 0 0 1 54.125 66.618l2.886 28.859h-448l2.886-28.859a78 78 0 0 1 54.125-66.618l102.989-32.523z" fill="#0bafea"/><path d="m211.06 389.18-11.06 2.82-68.88 17.22a67.495 67.495 0 0 0 -51.12 65.47v13.31h-48l2.89-28.86a77.986 77.986 0 0 1 54.12-66.62l102.99-32.52h2.56z" fill="#0bafea"/><path d="m211.06 389.18-11.06 2.82-68.88 17.22a67.495 67.495 0 0 0 -51.12 65.47v13.31h-48l2.89-28.86a77.986 77.986 0 0 1 54.12-66.62l102.99-32.52h2.56z" fill="#026ca2"/><path d="m300.94 389.18 11.06 2.82 68.88 17.22a67.495 67.495 0 0 1 51.12 65.47v13.31h48l-2.89-28.86a77.986 77.986 0 0 0 -54.12-66.62l-102.99-32.52h-2.56z" fill="#026ca2"/><path d="m208 304v40l-16 16 2.813 9.847a63.637 63.637 0 0 0 61.187 46.153 63.637 63.637 0 0 0 61.187-46.153l2.813-9.847-16-16v-40z" fill="#fdc9a6"/><g fill="#e6af89"><path d="m304 304v21.28a70.9 70.9 0 0 1 -96 0v-21.28z"/><path d="m272.006 384a8 8 0 0 1 -3.584-15.157l16-8a8 8 0 1 1 7.156 14.31l-16 8a7.976 7.976 0 0 1 -3.572.847z"/><path d="m239.994 384a7.976 7.976 0 0 1 -3.572-.847l-16-8a8 8 0 1 1 7.156-14.31l16 8a8 8 0 0 1 -3.584 15.157z"/><path d="m304 304v21.28a70.9 70.9 0 0 1 -96 0v-21.28z"/></g><path d="m248 488a52.739 52.739 0 0 1 23.532-43.969l4.03-2.688a8 8 0 1 1 8.876 13.314l-4.031 2.687a36.768 36.768 0 0 0 -16.407 30.656z" fill="#026ca2"/><path d="m152 208v-87.122a88.876 88.876 0 0 1 21.4-57.841 88.878 88.878 0 0 1 67.478-31.037h26.307a88.879 88.879 0 0 1 62.847 26.032l3.936 3.936a88.879 88.879 0 0 1 26.032 62.847v83.185z" fill="#ea9d2d"/><path d="m256 328a70.9 70.9 0 0 1 -65.827-44.567 198.156 198.156 0 0 1 -14.173-73.596v-57.837l24-40.73.253.112a138 138 0 0 0 111.494 0l.253-.112 24 40.73v57.837a198.156 198.156 0 0 1 -14.173 73.6 70.9 70.9 0 0 1 -65.827 44.563z" fill="#fdc9a6"/><path d="m304 184h-24a8 8 0 0 1 0-16h24a8 8 0 0 1 0 16z" fill="#ea9d2d"/><circle cx="290" cy="202" fill="#ea9d2d" r="10"/><path d="m232 184h-24a8 8 0 0 1 0-16h24a8 8 0 0 1 0 16z" fill="#ea9d2d"/><circle cx="222" cy="202" fill="#ea9d2d" r="10"/><path d="m176 176h-11.8c-11.154 0-20.2 9.377-20.2 20.944v14.112a21.582 21.582 0 0 0 2.132 9.366 20.133 20.133 0 0 0 18.068 11.578h19.8z" fill="#fdc9a6"/><path d="m336 176h10.661c11.154 0 20.2 9.377 20.2 20.944v14.112a21.582 21.582 0 0 1 -2.132 9.366 20.133 20.133 0 0 1 -18.068 11.578h-18.661z" fill="#fdc9a6"/><path d="m264 256h-16a8 8 0 0 1 -8-8v-32a8 8 0 0 1 16 0v24h8a8 8 0 0 1 0 16z" fill="#e6af89"/><path d="m282.207 250.483a70.568 70.568 0 0 0 -52.414 0 22.4 22.4 0 0 0 -14.077 20.369l-.876 45.748a80 80 0 0 0 82.32 0l-.876-45.747a22.4 22.4 0 0 0 -14.077-20.37z" fill="#d18d28"/><path d="m264 280h-16a8 8 0 0 1 0-16h16a8 8 0 0 1 0 16z" fill="#e6af89"/></g></svg>