<svg id="Capa_1" enable-background="new 0 0 512 512" height="512" viewBox="0 0 512 512" width="512" xmlns="http://www.w3.org/2000/svg"><g><path d="m402.1 110.352v32.69h40.885v-25.626c0-2.602.764-5.02 2.064-7.064z" fill="#dfebfa"/><path d="m66.95 110.352c1.3 2.043 2.064 4.462 2.064 7.064v25.626h40.886v-32.69z" fill="#dfebfa"/><path d="m392.422 96.75h-272.473-.369c-7.052 0-12.77 5.717-12.77 12.77v34.353c0 7.052 5.718 12.77 12.77 12.77h272.842c7.053 0 12.769-5.718 12.769-12.77v-34.353c0-7.053-5.717-12.77-12.769-12.77z" fill="#665e68"/><path d="m240.733 143.873v-34.353c0-7.053 5.718-12.77 12.77-12.77h.369-133.924-.369c-7.052 0-12.77 5.717-12.77 12.77v34.353c0 7.052 5.718 12.77 12.77 12.77h133.924c-7.052 0-12.77-5.718-12.77-12.77z" fill="#544e55"/><path d="m339.004 33.237-7.379-29.622c-.53-2.124-2.438-3.615-4.627-3.615h-24.892c-2.19 0-4.098 1.491-4.627 3.616l-7.379 29.621c-1.361 5.463-2.049 11.071-2.049 16.701h53.002c-.001-5.63-.689-11.238-2.049-16.701z" fill="#dfebfa"/><path d="m298.379 75.204h32.345v160.709h-32.345z" fill="#dfebfa"/><path d="m341.524 231.516h-53.945c-7.575 0-13.773 6.198-13.773 13.773v6.501c0 7.575 6.198 13.773 13.773 13.773h53.945c7.575 0 13.773-6.198 13.773-13.773v-6.501c0-7.575-6.198-13.773-13.773-13.773z" fill="#ff4756"/><path d="m320.608 251.79v-6.501c0-7.575 6.198-13.773 13.773-13.773h-46.803c-7.575 0-13.773 6.198-13.773 13.773v6.501c0 7.575 6.198 13.773 13.773 13.773h46.803c-7.575 0-13.773-6.197-13.773-13.773z" fill="#fc2d39"/><path d="m288.05 49.938c0 3.215.66 6.396 1.938 9.347l8.391 19.37h32.345l8.391-19.37c1.278-2.95 1.938-6.131 1.938-9.347z" fill="#b1dbfc"/><path d="m429.836 265.564c6.099 0 11.089-4.99 11.089-11.089v-71.043l-70.438 82.132z" fill="#ffd301"/><path d="m440.925 183.431-70.438 82.132h35.219l35.219-41.065z" fill="#ffc20c"/><path d="m71.075 254.474c0 6.099 4.99 11.089 11.089 11.089h59.35l-70.438-82.133v71.044z" fill="#ffd301"/><path d="m106.294 254.474v-29.977l-35.219-41.066v71.043c0 6.099 4.99 11.089 11.089 11.089h35.219c-6.099 0-11.089-4.99-11.089-11.089z" fill="#ffc20c"/><path d="m210.799 266.594v-152.287c-9.625 5.307-20.648 8.332-32.34 8.332s-22.715-3.025-32.34-8.332v152.287z" fill="#dfebfa"/><path d="m173.72 122.467c-9.929-.7-19.287-3.576-27.601-8.16v152.287h27.601z" fill="#b1dbfc"/><path d="m186.186 266.594v-105.074c0-4.268-3.459-7.726-7.726-7.726s-7.726 3.459-7.726 7.726v105.074z" fill="#8bcaff"/><path d="m214.429.607c-2.578-1.627-5.94.206-5.94 3.254v60.394c0 2.744-1.464 5.28-3.841 6.653l-22.348 12.902c-2.377 1.372-5.305 1.372-7.681 0l-22.349-12.903c-2.376-1.372-3.84-3.908-3.84-6.652v-60.394c0-3.048-3.362-4.881-5.94-3.254-19.05 12.022-31.776 33.253-31.776 57.32v.001c0 37.26 30.485 67.745 67.746 67.745s67.746-30.485 67.746-67.745v-.001c-.001-24.067-12.727-45.298-31.777-57.32z" fill="#b1dbfc"/><g><path d="m154.032 71.925-1.762-1.017c-2.376-1.372-3.84-3.908-3.84-6.652v-60.395c0-3.048-3.362-4.881-5.94-3.254-19.05 12.022-31.776 33.253-31.776 57.32v.001c0 37.26 30.485 67.745 67.746 67.745 7.295 0 14.325-1.183 20.923-3.343-22.764-7.45-40.315-26.68-45.351-50.405z" fill="#8bcaff"/></g><path d="m470.633 104.228h-17.551c-7.283 0-13.187 5.904-13.187 13.187v136.029c0 6.099-4.99 11.089-11.089 11.089h-345.612c-6.099 0-11.089-4.99-11.089-11.089v-136.029c0-7.283-5.904-13.187-13.187-13.187h-17.551c-7.575 0-13.773 6.198-13.773 13.773v380.225c0 7.575 6.198 13.773 13.773 13.773h429.266c7.575 0 13.773-6.198 13.773-13.773v-380.225c0-7.575-6.198-13.773-13.773-13.773z" fill="#fee55a"/><g><path d="m72.105 498.227v-244.778c0-.002 0-.003 0-.005v-136.029c0-7.283-5.904-13.187-13.187-13.187h-17.551c-7.575 0-13.773 6.198-13.773 13.773v380.225c0 7.575 6.198 13.773 13.773 13.773h44.511c-7.575.001-13.773-6.197-13.773-13.772z" fill="#ffd301"/></g><g><path d="m427.27 333.092h-56.783c-4.267 0-7.726-3.459-7.726-7.726 0-4.268 3.459-7.726 7.726-7.726h56.783c4.267 0 7.726 3.459 7.726 7.726.001 4.267-3.458 7.726-7.726 7.726z" fill="#ffd301"/></g><g><path d="m427.27 365.229h-56.783c-4.267 0-7.726-3.459-7.726-7.726s3.459-7.726 7.726-7.726h56.783c4.267 0 7.726 3.459 7.726 7.726s-3.458 7.726-7.726 7.726z" fill="#ffd301"/></g></g></svg>