<svg height="512" viewBox="0 0 512 512" width="512" xmlns="http://www.w3.org/2000/svg" xmlns:xlink="http://www.w3.org/1999/xlink"><linearGradient id="a" gradientUnits="userSpaceOnUse" x1="-25.886" x2="467.124" y1="457.886" y2="-35.124" data-name="New Gradient Swatch 1"><stop offset="0" stop-color="#003f8a"/><stop offset=".518" stop-color="#00d7df"/><stop offset="1" stop-color="#006df0"/></linearGradient><linearGradient id="b" x1="-21.886" x2="471.124" xlink:href="#a" y1="461.886" y2="-31.124"/><linearGradient id="c" x1="-30.831" x2="462.18" xlink:href="#a" y1="452.942" y2="-40.068"/><linearGradient id="d" x1="-39.775" x2="453.235" xlink:href="#a" y1="443.998" y2="-49.013"/><linearGradient id="e" x1="122.114" x2="615.124" xlink:href="#a" y1="605.886" y2="112.876"/><linearGradient id="f" x1="56.113" x2="549.124" xlink:href="#a" y1="539.886" y2="46.876"/><linearGradient id="g" x1="62.114" x2="555.124" xlink:href="#a" y1="545.886" y2="52.876"/><g><path d="m496 8h-480a8 8 0 0 0 -8 8v304a8 8 0 0 0 8 8h24v16h-8a8 8 0 0 0 0 16h56a8 8 0 0 0 0-16h-8v-16h80v152a24.032 24.032 0 0 0 24 24h144a24.032 24.032 0 0 0 24-24v-152h80v16h-8a8 8 0 0 0 0 16h56a8 8 0 0 0 0-16h-8v-16h24a8 8 0 0 0 8-8v-304a8 8 0 0 0 -8-8zm-432 336h-8v-16h8zm96-32h-136v-16h136zm176 168a8.011 8.011 0 0 1 -8 8h-144a8.011 8.011 0 0 1 -8-8v-256a8.011 8.011 0 0 1 8-8h34.23l6.18 18.53a8 8 0 0 0 7.59 5.47h48a8 8 0 0 0 7.59-5.47l6.18-18.53h34.23a8.011 8.011 0 0 1 8 8zm-100.9-264h41.8l-2.67 8h-36.46zm220.9 128h-8v-16h8zm32-32h-136v-16h136zm0-32h-136v-56a24.032 24.032 0 0 0 -24-24h-144a24.032 24.032 0 0 0 -24 24v56h-136v-256h464z" fill="url(#a)"/><circle cx="256" cy="184" fill="url(#b)" r="8"/><path d="m277.335 160.15a32 32 0 0 0 -42.67 0 8 8 0 1 0 10.67 11.922 16 16 0 0 1 21.33 0 8 8 0 1 0 10.67-11.922z" fill="url(#c)"/><path d="m229.335 154.183a40 40 0 0 1 53.33 0 8 8 0 1 0 10.67-11.922 56 56 0 0 0 -74.67 0 8 8 0 1 0 10.67 11.922z" fill="url(#d)"/><path d="m280 464h-48a8 8 0 0 0 0 16h48a8 8 0 0 0 0-16z" fill="url(#e)"/><path d="m291.969 345.054-56-32a8 8 0 0 0 -11.969 6.946v64a8 8 0 0 0 11.969 6.946l56-32a8 8 0 0 0 0-13.892zm-51.969 25.16v-36.428l31.875 18.214z" fill="url(#f)"/><path d="m304 288h-96a24.027 24.027 0 0 0 -24 24v80a24.027 24.027 0 0 0 24 24h96a24.027 24.027 0 0 0 24-24v-80a24.027 24.027 0 0 0 -24-24zm8 104a8.009 8.009 0 0 1 -8 8h-96a8.009 8.009 0 0 1 -8-8v-80a8.009 8.009 0 0 1 8-8h96a8.009 8.009 0 0 1 8 8z" fill="url(#g)"/></g></svg>