<svg id="Capa_1" enable-background="new 0 0 512 512" height="512" viewBox="0 0 512 512" width="512" xmlns="http://www.w3.org/2000/svg"><g><path d="m76.065 416.177c-8.284 0-15 6.716-15 15v26.042c0 8.284 6.716 15 15 15s15-6.716 15-15v-26.042c0-8.284-6.715-15-15-15z" fill="#293f65"/><path d="m435.935 416.177c-8.284 0-15 6.716-15 15v26.042c0 8.284 6.716 15 15 15s15-6.716 15-15v-26.042c0-8.284-6.716-15-15-15z" fill="#152133"/><path d="m470.042 40.172c-8.067-1.87-16.128 3.157-17.999 11.227l-50 215.804c-1.87 8.07 3.157 16.129 11.227 17.999 1.139.264 2.277.391 3.399.391 6.822 0 12.994-4.687 14.6-11.618l50-215.804c1.87-8.071-3.157-16.13-11.227-17.999z" fill="#a3aacc"/><path d="m59.957 51.399c-1.87-8.07-9.928-13.097-17.999-11.227-8.07 1.87-13.097 9.928-11.227 17.999l50 215.804c1.606 6.932 7.776 11.618 14.6 11.618 1.121 0 2.26-.126 3.399-.391 8.07-1.87 13.097-9.928 11.227-17.999z" fill="#cfcfe6"/><path d="m497 263.718h-482c-8.284 0-15 6.716-15 15v151.768c0 8.284 6.716 15 15 15h482c8.284 0 15-6.716 15-15v-151.768c0-8.284-6.716-15-15-15z" fill="#fff5f5"/><path d="m497 263.718h-241v181.768h241c8.284 0 15-6.716 15-15v-151.768c0-8.284-6.716-15-15-15z" fill="#ece6f2"/><path d="m204.857 369.602h-127.625c-8.284 0-15-6.716-15-15s6.716-15 15-15h127.625c8.284 0 15 6.716 15 15s-6.716 15-15 15z" fill="#3a5d7e"/><path d="m346.842 369.602h-29.163c-8.284 0-15-6.716-15-15s6.716-15 15-15h29.163c8.284 0 15 6.716 15 15s-6.716 15-15 15z" fill="#ffbe40"/><path d="m434.768 369.602h-29.163c-8.284 0-15-6.716-15-15s6.716-15 15-15h29.163c8.284 0 15 6.716 15 15s-6.716 15-15 15z" fill="#80aaff"/><path d="m299.349 228.065c-3.839 0-7.678-1.464-10.606-4.394-18.055-18.054-47.431-18.054-65.485 0-5.857 5.858-15.355 5.858-21.213 0s-5.858-15.355 0-21.213c29.751-29.752 78.16-29.752 107.911 0 5.858 5.858 5.858 15.355 0 21.213-2.929 2.93-6.768 4.394-10.607 4.394z" fill="#b3d9ff"/><path d="m341.722 185.692c-3.839 0-7.678-1.464-10.606-4.394-41.419-41.418-108.812-41.418-150.23 0-5.857 5.858-15.355 5.858-21.213 0s-5.858-15.355 0-21.213c53.115-53.116 139.541-53.116 192.656 0 5.858 5.858 5.858 15.355 0 21.213-2.93 2.93-6.768 4.394-10.607 4.394z" fill="#b3d9ff"/><path d="m388.669 138.745c-3.839 0-7.678-1.464-10.606-4.394-67.306-67.305-176.819-67.305-244.125 0-5.857 5.858-15.355 5.858-21.213 0s-5.858-15.355 0-21.213c38.27-38.27 89.152-59.346 143.275-59.346s105.005 21.076 143.275 59.347c5.858 5.858 5.858 15.355 0 21.213-2.928 2.929-6.767 4.393-10.606 4.393z" fill="#b3d9ff"/><g fill="#80aaff"><path d="m288.743 223.671c2.929 2.929 6.768 4.394 10.606 4.394s7.678-1.464 10.606-4.394c5.858-5.858 5.858-15.355 0-21.213-14.875-14.876-34.415-22.314-53.955-22.314v29.987c11.858 0 23.715 4.513 32.743 13.54z"/><path d="m331.115 181.299c2.929 2.929 6.768 4.394 10.606 4.394s7.678-1.464 10.606-4.394c5.858-5.858 5.858-15.355 0-21.213-26.558-26.558-61.443-39.837-96.328-39.837v29.987c27.204-.001 54.407 10.354 75.116 31.063z"/><path d="m378.063 134.352c2.929 2.929 6.768 4.394 10.606 4.394s7.678-1.464 10.606-4.394c5.858-5.858 5.858-15.355 0-21.213-38.27-38.271-89.152-59.347-143.275-59.347v30.081c44.205 0 88.41 16.826 122.063 50.479z"/></g></g></svg>